G04*
G04 #@! TF.GenerationSoftware,Altium Limited,Altium Designer,24.5.2 (23)*
G04*
G04 Layer_Physical_Order=3*
G04 Layer_Color=16440176*
%FSLAX44Y44*%
%MOMM*%
G71*
G04*
G04 #@! TF.SameCoordinates,E71CDDC7-94F0-4B5D-9B63-04EB80979921*
G04*
G04*
G04 #@! TF.FilePolarity,Positive*
G04*
G01*
G75*
%ADD15C,0.2540*%
%ADD179R,1.7000X1.7000*%
%ADD182R,1.5900X1.5900*%
%ADD183C,0.5000*%
G36*
X565065Y79925D02*
X565150Y79500D01*
Y5179D01*
X373712D01*
Y79500D01*
X373797Y79925D01*
X374222Y80010D01*
X413296D01*
X413687Y79619D01*
X416007Y78658D01*
X418517D01*
X420836Y79619D01*
X421227Y80010D01*
X454031D01*
X454420Y79071D01*
X454391Y79043D01*
X453430Y76723D01*
Y74213D01*
X454391Y71894D01*
X456166Y70119D01*
X458485Y69158D01*
X460995D01*
X463314Y70119D01*
X464490Y71294D01*
X465666Y70119D01*
X467985Y69158D01*
X470495D01*
X472814Y70119D01*
X473990Y71294D01*
X475166Y70119D01*
X477485Y69158D01*
X479995D01*
X482314Y70119D01*
X483490Y71294D01*
X484666Y70119D01*
X486985Y69158D01*
X489495D01*
X491814Y70119D01*
X493589Y71894D01*
X494550Y74213D01*
Y76723D01*
X493589Y79043D01*
X493561Y79071D01*
X493949Y80010D01*
X564640D01*
X565065Y79925D01*
D02*
G37*
G36*
X694821Y5179D02*
X570330D01*
Y79500D01*
X570230Y80000D01*
Y80510D01*
X570145Y80936D01*
Y80936D01*
X569950Y81407D01*
X569935Y81482D01*
X569893Y81545D01*
X569372Y82803D01*
X568657Y83518D01*
X567943Y84232D01*
X566685Y84753D01*
X566622Y84795D01*
X566547Y84810D01*
X566076Y85005D01*
X566076D01*
X565650Y85090D01*
X565140D01*
X564640Y85190D01*
X494550D01*
Y86223D01*
X493589Y88542D01*
X492414Y89718D01*
X493589Y90894D01*
X494550Y93213D01*
Y95723D01*
X493589Y98042D01*
X491814Y99818D01*
X489495Y100778D01*
X486985D01*
X484666Y99818D01*
X483490Y98642D01*
X482314Y99818D01*
X479995Y100778D01*
X477485D01*
X475166Y99818D01*
X473990Y98642D01*
X472814Y99818D01*
X470495Y100778D01*
X467985D01*
X465666Y99818D01*
X464490Y98642D01*
X463314Y99818D01*
X460995Y100778D01*
X458485D01*
X456166Y99818D01*
X454391Y98042D01*
X453430Y95723D01*
Y93213D01*
X454391Y90894D01*
X455566Y89718D01*
X454391Y88542D01*
X453430Y86223D01*
Y85190D01*
X423572D01*
Y86223D01*
X422611Y88542D01*
X420836Y90317D01*
X418517Y91278D01*
X416007D01*
X413687Y90317D01*
X411912Y88542D01*
X410952Y86223D01*
Y85190D01*
X374222D01*
X373722Y85090D01*
X373212D01*
X372786Y85005D01*
X372786D01*
X372315Y84810D01*
X372240Y84795D01*
X372177Y84753D01*
X370919Y84232D01*
X370205Y83518D01*
X369490Y82803D01*
X368969Y81545D01*
X368927Y81482D01*
X368912Y81407D01*
X368717Y80936D01*
Y80936D01*
X368632Y80510D01*
Y80000D01*
X368532Y79500D01*
Y5179D01*
X5179D01*
Y159413D01*
X62660D01*
X64642Y159807D01*
X66322Y160930D01*
X67445Y162610D01*
X67839Y164592D01*
Y546510D01*
X67445Y548492D01*
X66322Y550172D01*
X64642Y551295D01*
X62660Y551689D01*
X5179D01*
Y694821D01*
X694821D01*
Y5179D01*
D02*
G37*
%LPC*%
G36*
X468906Y35635D02*
X466396D01*
X464077Y34674D01*
X462302Y32899D01*
X461341Y30580D01*
Y28070D01*
X462302Y25750D01*
X464077Y23975D01*
X466396Y23015D01*
X468906D01*
X471225Y23975D01*
X473000Y25750D01*
X473961Y28070D01*
Y30580D01*
X473000Y32899D01*
X471225Y34674D01*
X468906Y35635D01*
D02*
G37*
G36*
X453084D02*
X450574D01*
X448255Y34674D01*
X446480Y32899D01*
X445519Y30580D01*
Y28070D01*
X446480Y25750D01*
X448255Y23975D01*
X450574Y23015D01*
X453084D01*
X455403Y23975D01*
X457178Y25750D01*
X458139Y28070D01*
Y30580D01*
X457178Y32899D01*
X455403Y34674D01*
X453084Y35635D01*
D02*
G37*
G36*
X304210Y672710D02*
X279590D01*
Y664528D01*
X278574Y664394D01*
X278371Y665152D01*
X276751Y667959D01*
X274459Y670250D01*
X271651Y671871D01*
X268521Y672710D01*
X265279D01*
X262148Y671871D01*
X259342Y670250D01*
X257050Y667959D01*
X255429Y665152D01*
X254590Y662021D01*
Y658779D01*
X255429Y655648D01*
X257050Y652841D01*
X259342Y650549D01*
X262148Y648929D01*
X265279Y648090D01*
X268521D01*
X271651Y648929D01*
X274459Y650549D01*
X276751Y652841D01*
X278371Y655648D01*
X278574Y656406D01*
X279590Y656272D01*
Y648090D01*
X304210D01*
Y672710D01*
D02*
G37*
G36*
X182290D02*
X157670D01*
Y664528D01*
X156654Y664394D01*
X156451Y665152D01*
X154831Y667959D01*
X152538Y670250D01*
X149732Y671871D01*
X146601Y672710D01*
X143359D01*
X140229Y671871D01*
X137422Y670250D01*
X135130Y667959D01*
X133509Y665152D01*
X132670Y662021D01*
Y658779D01*
X133509Y655648D01*
X135130Y652841D01*
X137422Y650549D01*
X140229Y648929D01*
X143359Y648090D01*
X146601D01*
X149732Y648929D01*
X152538Y650549D01*
X154831Y652841D01*
X156451Y655648D01*
X156654Y656406D01*
X157670Y656272D01*
Y648090D01*
X182290D01*
Y672710D01*
D02*
G37*
G36*
X42516Y685540D02*
X37485D01*
X32550Y684558D01*
X27902Y682633D01*
X23719Y679838D01*
X20162Y676281D01*
X17367Y672098D01*
X15442Y667450D01*
X14460Y662516D01*
Y657485D01*
X15442Y652550D01*
X17367Y647902D01*
X20162Y643719D01*
X23719Y640162D01*
X27902Y637367D01*
X32550Y635442D01*
X37485Y634460D01*
X42516D01*
X47450Y635442D01*
X52098Y637367D01*
X56281Y640162D01*
X59838Y643719D01*
X62633Y647902D01*
X64559Y652550D01*
X65540Y657485D01*
Y662516D01*
X64559Y667450D01*
X62633Y672098D01*
X59838Y676281D01*
X56281Y679838D01*
X52098Y682633D01*
X47450Y684558D01*
X42516Y685540D01*
D02*
G37*
G36*
X662516Y685540D02*
X657485D01*
X652551Y684558D01*
X647903Y682633D01*
X643719Y679838D01*
X640162Y676281D01*
X637367Y672098D01*
X635442Y667450D01*
X634460Y662515D01*
Y657485D01*
X635442Y652550D01*
X637367Y647902D01*
X640162Y643719D01*
X643719Y640162D01*
X647903Y637367D01*
X652551Y635442D01*
X657485Y634460D01*
X662516D01*
X667450Y635442D01*
X672098Y637367D01*
X676281Y640162D01*
X679838Y643719D01*
X682633Y647902D01*
X684559Y652550D01*
X685540Y657485D01*
Y662515D01*
X684559Y667450D01*
X682633Y672098D01*
X679838Y676281D01*
X676281Y679838D01*
X672098Y682633D01*
X667450Y684558D01*
X662516Y685540D01*
D02*
G37*
G36*
X255509Y608036D02*
X252999D01*
X250680Y607075D01*
X248905Y605300D01*
X247944Y602981D01*
Y600471D01*
X248905Y598152D01*
X250680Y596377D01*
X252999Y595416D01*
X255509D01*
X257828Y596377D01*
X259603Y598152D01*
X260564Y600471D01*
Y602981D01*
X259603Y605300D01*
X257828Y607075D01*
X255509Y608036D01*
D02*
G37*
G36*
X86665Y585430D02*
X84155D01*
X81836Y584469D01*
X80061Y582694D01*
X79100Y580375D01*
Y577865D01*
X80061Y575546D01*
X81836Y573771D01*
X84155Y572810D01*
X86665D01*
X88984Y573771D01*
X90759Y575546D01*
X91720Y577865D01*
Y580375D01*
X90759Y582694D01*
X88984Y584469D01*
X86665Y585430D01*
D02*
G37*
G36*
X69336D02*
X66825D01*
X64506Y584469D01*
X62731Y582694D01*
X61771Y580375D01*
Y577865D01*
X62731Y575546D01*
X64506Y573771D01*
X66825Y572810D01*
X69336D01*
X71655Y573771D01*
X73430Y575546D01*
X74391Y577865D01*
Y580375D01*
X73430Y582694D01*
X71655Y584469D01*
X69336Y585430D01*
D02*
G37*
G36*
X362951Y572677D02*
X360441D01*
X358122Y571717D01*
X356347Y569942D01*
X355386Y567622D01*
Y565112D01*
X356221Y563097D01*
X355386Y561082D01*
Y558572D01*
X356347Y556253D01*
X358122Y554478D01*
X360441Y553517D01*
X362951D01*
X365270Y554478D01*
X367045Y556253D01*
X368006Y558572D01*
Y561082D01*
X367171Y563097D01*
X368006Y565112D01*
Y567622D01*
X367045Y569942D01*
X365270Y571717D01*
X362951Y572677D01*
D02*
G37*
G36*
X487170Y685900D02*
X396750D01*
X396250Y685800D01*
X395740D01*
X395314Y685715D01*
X395314D01*
X394843Y685520D01*
X394768Y685505D01*
X394705Y685463D01*
X393447Y684942D01*
X392733Y684228D01*
X392018Y683513D01*
X391497Y682255D01*
X391455Y682192D01*
X391440Y682117D01*
X391245Y681646D01*
Y681646D01*
X391160Y681220D01*
Y680710D01*
X391060Y680210D01*
Y672160D01*
X390012D01*
X387021Y671359D01*
X384339Y669810D01*
X382150Y667621D01*
X380601Y664939D01*
X379800Y661948D01*
Y658852D01*
X380601Y655861D01*
X382150Y653179D01*
X384339Y650990D01*
X387021Y649441D01*
X390012Y648640D01*
X391060D01*
Y546447D01*
X391324Y545121D01*
X389915Y543711D01*
X388954Y541392D01*
Y538881D01*
X389915Y536562D01*
X391324Y535153D01*
X391060Y533827D01*
Y529489D01*
X391160Y528989D01*
Y528479D01*
X391245Y528053D01*
Y528053D01*
X391440Y527582D01*
X391455Y527507D01*
X391497Y527444D01*
X392018Y526186D01*
X392733Y525472D01*
X393447Y524757D01*
X394705Y524236D01*
X394768Y524194D01*
X394843Y524179D01*
X395314Y523984D01*
X395314D01*
X395740Y523899D01*
X396250D01*
X396750Y523800D01*
X406461D01*
Y492859D01*
X396750D01*
X396250Y492760D01*
X395740D01*
X395314Y492675D01*
X395314D01*
X394843Y492480D01*
X394768Y492465D01*
X394705Y492423D01*
X393447Y491902D01*
X392733Y491188D01*
X392018Y490473D01*
X391497Y489215D01*
X391455Y489152D01*
X391440Y489077D01*
X391245Y488606D01*
Y488606D01*
X391160Y488180D01*
Y487670D01*
X391060Y487170D01*
Y264670D01*
X391160Y264170D01*
Y263660D01*
X391245Y263234D01*
Y263234D01*
X391440Y262763D01*
X391455Y262688D01*
X391497Y262625D01*
X392018Y261367D01*
X392733Y260653D01*
X393447Y259938D01*
X394705Y259417D01*
X394768Y259375D01*
X394843Y259360D01*
X395314Y259165D01*
X395314D01*
X395740Y259080D01*
X396250D01*
X396750Y258981D01*
X487170D01*
X487670Y259080D01*
X488180D01*
X488606Y259165D01*
X488606D01*
X489077Y259360D01*
X489152Y259375D01*
X489215Y259417D01*
X490473Y259938D01*
X491188Y260653D01*
X491902Y261367D01*
X492423Y262625D01*
X492465Y262688D01*
X492480Y262763D01*
X492675Y263234D01*
Y263234D01*
X492760Y263660D01*
Y264170D01*
X492859Y264670D01*
Y315238D01*
X493078Y315451D01*
X493876Y315827D01*
X495907Y314986D01*
X498418D01*
X500737Y315946D01*
X501912Y317122D01*
X503088Y315946D01*
X505407Y314986D01*
X507918D01*
X510237Y315946D01*
X511413Y317122D01*
X512588Y315946D01*
X514907Y314986D01*
X517418D01*
X519737Y315946D01*
X521512Y317721D01*
X522472Y320041D01*
Y322551D01*
X521512Y324870D01*
X519737Y326645D01*
X517418Y327606D01*
X514907D01*
X512588Y326645D01*
X511413Y325469D01*
X510237Y326645D01*
X507918Y327606D01*
X505407D01*
X503088Y326645D01*
X501912Y325469D01*
X500737Y326645D01*
X498418Y327606D01*
X495907D01*
X493876Y326764D01*
X493078Y327140D01*
X492859Y327353D01*
Y356356D01*
X493876Y357035D01*
X495534Y356348D01*
X498045D01*
X500364Y357309D01*
X501539Y358484D01*
X502715Y357309D01*
X505034Y356348D01*
X507545D01*
X509864Y357309D01*
X511039Y358484D01*
X512215Y357309D01*
X514534Y356348D01*
X517044D01*
X519364Y357309D01*
X521139Y359084D01*
X522099Y361403D01*
Y363913D01*
X521139Y366232D01*
X519364Y368007D01*
X517044Y368968D01*
X514534D01*
X512215Y368007D01*
X511039Y366832D01*
X509864Y368007D01*
X507545Y368968D01*
X505034D01*
X502715Y368007D01*
X501539Y366832D01*
X500364Y368007D01*
X498045Y368968D01*
X495534D01*
X493876Y368281D01*
X492859Y368960D01*
Y425200D01*
X492465Y427183D01*
X492298Y427432D01*
X492802Y427936D01*
X493763Y430255D01*
Y432766D01*
X492802Y435085D01*
X491027Y436860D01*
X488708Y437820D01*
X488200Y438836D01*
X488861Y440434D01*
Y441803D01*
X489662Y442135D01*
X491343Y443258D01*
X492465Y444938D01*
X492859Y446920D01*
Y461720D01*
X492760Y462220D01*
Y462730D01*
X492565Y463202D01*
X492465Y463702D01*
X492182Y464126D01*
X491987Y464597D01*
X491626Y464958D01*
X491343Y465382D01*
X490918Y465666D01*
X490893Y465691D01*
X491511Y467182D01*
Y469692D01*
X490550Y472011D01*
X489374Y473187D01*
X490550Y474363D01*
X491511Y476682D01*
Y479192D01*
X490893Y480683D01*
X490918Y480708D01*
X491343Y480992D01*
X491626Y481416D01*
X491987Y481777D01*
X492182Y482248D01*
X492465Y482672D01*
X492565Y483173D01*
X492760Y483644D01*
Y484154D01*
X492859Y484654D01*
Y496973D01*
X492465Y498956D01*
X492335Y499150D01*
X492895Y499709D01*
X493855Y502028D01*
Y504539D01*
X492895Y506858D01*
X492335Y507417D01*
X492465Y507611D01*
X492859Y509593D01*
Y544704D01*
X493876Y544906D01*
X494309Y543860D01*
X496084Y542085D01*
X498403Y541124D01*
X500913D01*
X503232Y542085D01*
X505008Y543860D01*
X505968Y546179D01*
Y548689D01*
X505008Y551009D01*
X503232Y552784D01*
X500913Y553744D01*
X498403D01*
X496084Y552784D01*
X494309Y551009D01*
X493876Y549963D01*
X492859Y550165D01*
Y680210D01*
X492760Y680710D01*
Y681220D01*
X492675Y681646D01*
Y681646D01*
X492480Y682117D01*
X492465Y682192D01*
X492423Y682255D01*
X491902Y683513D01*
X491188Y684228D01*
X490473Y684942D01*
X489215Y685463D01*
X489152Y685505D01*
X489077Y685520D01*
X488606Y685715D01*
X488606D01*
X488180Y685800D01*
X487670D01*
X487170Y685900D01*
D02*
G37*
G36*
X521320Y529627D02*
X518810D01*
X516491Y528666D01*
X514716Y526891D01*
X513755Y524572D01*
Y522062D01*
X514716Y519743D01*
X516491Y517967D01*
X518810Y517007D01*
X521320D01*
X523639Y517967D01*
X525414Y519743D01*
X526375Y522062D01*
Y524572D01*
X525414Y526891D01*
X523639Y528666D01*
X521320Y529627D01*
D02*
G37*
G36*
X362452Y515820D02*
X359942D01*
X357623Y514859D01*
X355848Y513084D01*
X354887Y510765D01*
Y508255D01*
X355848Y505936D01*
X357623Y504161D01*
X359942Y503200D01*
X362452D01*
X364772Y504161D01*
X366547Y505936D01*
X367507Y508255D01*
Y510765D01*
X366547Y513084D01*
X364772Y514859D01*
X362452Y515820D01*
D02*
G37*
G36*
X311005D02*
X308495D01*
X306176Y514859D01*
X304401Y513084D01*
X303440Y510765D01*
Y508255D01*
X304401Y505936D01*
X306176Y504161D01*
X308495Y503200D01*
X311005D01*
X313324Y504161D01*
X315099Y505936D01*
X316060Y508255D01*
Y510765D01*
X315099Y513084D01*
X313324Y514859D01*
X311005Y515820D01*
D02*
G37*
G36*
X203254Y508433D02*
X200013D01*
X196882Y507594D01*
X194075Y505974D01*
X191783Y503682D01*
X190163Y500875D01*
X189659Y498995D01*
X188607D01*
X188104Y500875D01*
X186483Y503682D01*
X184191Y505974D01*
X181384Y507594D01*
X178253Y508433D01*
X175012D01*
X171881Y507594D01*
X169074Y505974D01*
X166782Y503682D01*
X165161Y500875D01*
X164659Y499000D01*
X163607D01*
X163105Y500875D01*
X161484Y503682D01*
X159192Y505974D01*
X156385Y507594D01*
X153254Y508433D01*
X150013D01*
X146882Y507594D01*
X144075Y505974D01*
X141783Y503682D01*
X140163Y500875D01*
X139659Y498995D01*
X138607D01*
X138104Y500875D01*
X136483Y503682D01*
X134191Y505974D01*
X131384Y507594D01*
X128253Y508433D01*
X125012D01*
X121881Y507594D01*
X119074Y505974D01*
X116782Y503682D01*
X115162Y500875D01*
X114659Y499000D01*
X113607D01*
X113105Y500875D01*
X111484Y503682D01*
X109192Y505974D01*
X106385Y507594D01*
X103255Y508433D01*
X100013D01*
X96882Y507594D01*
X94075Y505974D01*
X91784Y503682D01*
X90163Y500875D01*
X89324Y497744D01*
Y494503D01*
X90163Y491372D01*
X91784Y488565D01*
X94075Y486273D01*
X96882Y484652D01*
X100013Y483813D01*
X103255D01*
X106385Y484652D01*
X109192Y486273D01*
X111484Y488565D01*
X113105Y491372D01*
X113607Y493247D01*
X114659D01*
X115162Y491372D01*
X116782Y488565D01*
X119074Y486273D01*
X121881Y484652D01*
X125012Y483813D01*
X128253D01*
X131384Y484652D01*
X134191Y486273D01*
X136483Y488565D01*
X138104Y491372D01*
X138607Y493251D01*
X139659D01*
X140163Y491372D01*
X141783Y488565D01*
X144075Y486273D01*
X146882Y484652D01*
X150013Y483813D01*
X153254D01*
X156385Y484652D01*
X159192Y486273D01*
X161484Y488565D01*
X163105Y491372D01*
X163607Y493247D01*
X164659D01*
X165161Y491372D01*
X166782Y488565D01*
X169074Y486273D01*
X171881Y484652D01*
X175012Y483813D01*
X178253D01*
X181384Y484652D01*
X184191Y486273D01*
X186483Y488565D01*
X188104Y491372D01*
X188607Y493251D01*
X189659D01*
X190163Y491372D01*
X191783Y488565D01*
X194075Y486273D01*
X196882Y484652D01*
X200013Y483813D01*
X203254D01*
X206385Y484652D01*
X209192Y486273D01*
X211484Y488565D01*
X213105Y491372D01*
X213944Y494503D01*
Y497744D01*
X213105Y500875D01*
X211484Y503682D01*
X209192Y505974D01*
X206385Y507594D01*
X203254Y508433D01*
D02*
G37*
G36*
X542421Y480830D02*
X539911D01*
X537592Y479870D01*
X535817Y478095D01*
X534856Y475776D01*
Y473265D01*
X535817Y470946D01*
X537592Y469171D01*
X539911Y468210D01*
X542421D01*
X544741Y469171D01*
X546516Y470946D01*
X547476Y473265D01*
Y475776D01*
X546516Y478095D01*
X544741Y479870D01*
X542421Y480830D01*
D02*
G37*
G36*
X516875Y481006D02*
X514365D01*
X512046Y480045D01*
X510271Y478270D01*
X509310Y475951D01*
Y473441D01*
X510271Y471122D01*
X512046Y469347D01*
X512687Y469081D01*
Y468065D01*
X512046Y467799D01*
X510271Y466024D01*
X509310Y463705D01*
Y461195D01*
X510271Y458876D01*
X512046Y457101D01*
X514365Y456140D01*
X516875D01*
X519194Y457101D01*
X520969Y458876D01*
X521930Y461195D01*
Y463705D01*
X520969Y466024D01*
X519194Y467799D01*
X518553Y468065D01*
Y469081D01*
X519194Y469347D01*
X520969Y471122D01*
X521930Y473441D01*
Y475951D01*
X520969Y478270D01*
X519194Y480045D01*
X516875Y481006D01*
D02*
G37*
G36*
X128255Y466050D02*
X125745D01*
X123426Y465089D01*
X121651Y463314D01*
X120690Y460995D01*
Y458485D01*
X121651Y456166D01*
X123426Y454391D01*
X125745Y453430D01*
X128255D01*
X130574Y454391D01*
X132349Y456166D01*
X133310Y458485D01*
Y460995D01*
X132349Y463314D01*
X130574Y465089D01*
X128255Y466050D01*
D02*
G37*
G36*
X557080Y458430D02*
X554570D01*
X552250Y457469D01*
X550475Y455694D01*
X549515Y453375D01*
Y450865D01*
X550475Y448546D01*
X552250Y446771D01*
X554570Y445810D01*
X557080D01*
X559399Y446771D01*
X561174Y448546D01*
X562135Y450865D01*
Y453375D01*
X561174Y455694D01*
X559399Y457469D01*
X557080Y458430D01*
D02*
G37*
G36*
X572015Y448881D02*
X569505D01*
X567186Y447920D01*
X565411Y446145D01*
X564450Y443826D01*
Y441316D01*
X565289Y439290D01*
X564450Y437264D01*
Y434754D01*
X565411Y432435D01*
X567186Y430660D01*
X569505Y429699D01*
X572015D01*
X574334Y430660D01*
X576109Y432435D01*
X577070Y434754D01*
Y437264D01*
X576231Y439290D01*
X577070Y441316D01*
Y443826D01*
X576109Y446145D01*
X574334Y447920D01*
X572015Y448881D01*
D02*
G37*
G36*
X77555Y434300D02*
X75045D01*
X72726Y433339D01*
X70951Y431564D01*
X69990Y429245D01*
Y426735D01*
X70951Y424416D01*
X72726Y422641D01*
X75045Y421680D01*
X77555D01*
X79874Y422641D01*
X81649Y424416D01*
X82610Y426735D01*
Y429245D01*
X81649Y431564D01*
X79874Y433339D01*
X77555Y434300D01*
D02*
G37*
G36*
X557080Y433030D02*
X554570D01*
X552250Y432069D01*
X550475Y430294D01*
X549515Y427975D01*
Y425465D01*
X550475Y423146D01*
X552250Y421371D01*
X554570Y420410D01*
X557080D01*
X559399Y421371D01*
X561174Y423146D01*
X562135Y425465D01*
Y427975D01*
X561174Y430294D01*
X559399Y432069D01*
X557080Y433030D01*
D02*
G37*
G36*
X238155Y419060D02*
X235645D01*
X233326Y418099D01*
X231551Y416324D01*
X230590Y414005D01*
Y411495D01*
X231551Y409176D01*
X233326Y407401D01*
X235645Y406440D01*
X238155D01*
X240474Y407401D01*
X242249Y409176D01*
X243210Y411495D01*
Y414005D01*
X242249Y416324D01*
X240474Y418099D01*
X238155Y419060D01*
D02*
G37*
G36*
X517891Y396454D02*
X515381D01*
X513062Y395493D01*
X511287Y393718D01*
X510326Y391399D01*
Y388889D01*
X511287Y386570D01*
X513062Y384795D01*
X515381Y383834D01*
X517891D01*
X520210Y384795D01*
X521985Y386570D01*
X522946Y388889D01*
Y391399D01*
X521985Y393718D01*
X520210Y395493D01*
X517891Y396454D01*
D02*
G37*
G36*
X660750Y564429D02*
X657508D01*
X654378Y563590D01*
X651571Y561969D01*
X649278Y559678D01*
X647658Y556870D01*
X646819Y553740D01*
Y550498D01*
X647658Y547368D01*
X649278Y544561D01*
X651571Y542269D01*
X654378Y540648D01*
X656252Y540146D01*
Y539094D01*
X654378Y538591D01*
X651571Y536971D01*
X649278Y534679D01*
X647658Y531872D01*
X646819Y528741D01*
Y525500D01*
X647658Y522369D01*
X649278Y519562D01*
X651571Y517270D01*
X654378Y515649D01*
X656257Y515146D01*
Y514094D01*
X654378Y513590D01*
X651571Y511970D01*
X649278Y509678D01*
X647658Y506871D01*
X646819Y503740D01*
Y500499D01*
X647658Y497368D01*
X649278Y494561D01*
X651571Y492269D01*
X654378Y490648D01*
X656252Y490146D01*
Y489094D01*
X654378Y488591D01*
X651571Y486971D01*
X649278Y484679D01*
X647658Y481872D01*
X646819Y478741D01*
Y475500D01*
X647658Y472369D01*
X649278Y469562D01*
X651571Y467270D01*
X654378Y465649D01*
X656257Y465146D01*
Y464094D01*
X654378Y463590D01*
X651571Y461970D01*
X649278Y459678D01*
X647658Y456871D01*
X646819Y453740D01*
Y450499D01*
X647658Y447368D01*
X649278Y444561D01*
X651571Y442269D01*
X654378Y440648D01*
X656252Y440146D01*
Y439094D01*
X654378Y438592D01*
X651571Y436971D01*
X649278Y434679D01*
X647658Y431872D01*
X646819Y428741D01*
Y425500D01*
X647658Y422369D01*
X649278Y419562D01*
X651571Y417270D01*
X654378Y415649D01*
X656257Y415146D01*
Y414094D01*
X654378Y413590D01*
X651571Y411970D01*
X649278Y409678D01*
X647658Y406871D01*
X646819Y403740D01*
Y400499D01*
X647658Y397368D01*
X649278Y394561D01*
X651571Y392269D01*
X654378Y390648D01*
X655130Y390447D01*
X654996Y389431D01*
X646819D01*
Y364811D01*
X671439D01*
Y389431D01*
X663262D01*
X663128Y390447D01*
X663880Y390648D01*
X666687Y392269D01*
X668979Y394561D01*
X670600Y397368D01*
X671439Y400499D01*
Y403740D01*
X670600Y406871D01*
X668979Y409678D01*
X666687Y411970D01*
X663880Y413590D01*
X662001Y414094D01*
Y415146D01*
X663880Y415649D01*
X666687Y417270D01*
X668979Y419562D01*
X670600Y422369D01*
X671439Y425500D01*
Y428741D01*
X670600Y431872D01*
X668979Y434679D01*
X666687Y436971D01*
X663880Y438592D01*
X662006Y439094D01*
Y440146D01*
X663880Y440648D01*
X666687Y442269D01*
X668979Y444561D01*
X670600Y447368D01*
X671439Y450499D01*
Y453740D01*
X670600Y456871D01*
X668979Y459678D01*
X666687Y461970D01*
X663880Y463590D01*
X662001Y464094D01*
Y465146D01*
X663880Y465649D01*
X666687Y467270D01*
X668979Y469562D01*
X670600Y472369D01*
X671439Y475500D01*
Y478741D01*
X670600Y481872D01*
X668979Y484679D01*
X666687Y486971D01*
X663880Y488591D01*
X662006Y489094D01*
Y490146D01*
X663880Y490648D01*
X666687Y492269D01*
X668979Y494561D01*
X670600Y497368D01*
X671439Y500499D01*
Y503740D01*
X670600Y506871D01*
X668979Y509678D01*
X666687Y511970D01*
X663880Y513590D01*
X662001Y514094D01*
Y515146D01*
X663880Y515649D01*
X666687Y517270D01*
X668979Y519562D01*
X670600Y522369D01*
X671439Y525500D01*
Y528741D01*
X670600Y531872D01*
X668979Y534679D01*
X666687Y536971D01*
X663880Y538591D01*
X662006Y539094D01*
Y540146D01*
X663880Y540648D01*
X666687Y542269D01*
X668979Y544561D01*
X670600Y547368D01*
X671439Y550498D01*
Y553740D01*
X670600Y556870D01*
X668979Y559678D01*
X666687Y561969D01*
X663880Y563590D01*
X660750Y564429D01*
D02*
G37*
G36*
X163420Y356242D02*
X160910D01*
X158591Y355282D01*
X157415Y354106D01*
X156239Y355282D01*
X153920Y356242D01*
X151410D01*
X149091Y355282D01*
X147915Y354106D01*
X146739Y355282D01*
X144420Y356242D01*
X141910D01*
X139591Y355282D01*
X137816Y353507D01*
X136855Y351188D01*
Y348677D01*
X137816Y346358D01*
X138991Y345182D01*
X137816Y344007D01*
X136855Y341688D01*
Y339177D01*
X137816Y336858D01*
X138991Y335682D01*
X137816Y334507D01*
X136855Y332188D01*
Y329677D01*
X137816Y327358D01*
X139591Y325583D01*
X141910Y324622D01*
X144420D01*
X146739Y325583D01*
X147915Y326759D01*
X149091Y325583D01*
X151410Y324622D01*
X153920D01*
X156239Y325583D01*
X157415Y326759D01*
X158591Y325583D01*
X160910Y324622D01*
X163420D01*
X165739Y325583D01*
X167514Y327358D01*
X168475Y329677D01*
Y332188D01*
X167514Y334507D01*
X166339Y335682D01*
X167514Y336858D01*
X168475Y339177D01*
Y341688D01*
X167514Y344007D01*
X166339Y345182D01*
X167514Y346358D01*
X168475Y348677D01*
Y351188D01*
X167514Y353507D01*
X165739Y355282D01*
X163420Y356242D01*
D02*
G37*
G36*
X631175Y347940D02*
X628665D01*
X626346Y346979D01*
X624571Y345204D01*
X623610Y342885D01*
Y340375D01*
X624571Y338056D01*
X626346Y336281D01*
X628665Y335320D01*
X631175D01*
X633494Y336281D01*
X635269Y338056D01*
X636230Y340375D01*
Y342885D01*
X635269Y345204D01*
X633494Y346979D01*
X631175Y347940D01*
D02*
G37*
G36*
X685488Y293691D02*
X682978D01*
X680658Y292731D01*
X679483Y291555D01*
X678307Y292731D01*
X675988Y293691D01*
X673478D01*
X671159Y292731D01*
X669983Y291555D01*
X668807Y292731D01*
X666488Y293691D01*
X663978D01*
X661658Y292731D01*
X659883Y290956D01*
X658923Y288636D01*
Y286126D01*
X659883Y283807D01*
X661658Y282032D01*
X663978Y281071D01*
X666488D01*
X668807Y282032D01*
X669983Y283207D01*
X671159Y282032D01*
X673478Y281071D01*
X675988D01*
X678307Y282032D01*
X679483Y283207D01*
X680658Y282032D01*
X682978Y281071D01*
X685488D01*
X687807Y282032D01*
X689582Y283807D01*
X690543Y286126D01*
Y288636D01*
X689582Y290956D01*
X687807Y292731D01*
X685488Y293691D01*
D02*
G37*
G36*
X523904D02*
X521394D01*
X519075Y292731D01*
X517899Y291555D01*
X516724Y292731D01*
X514404Y293691D01*
X511894D01*
X509575Y292731D01*
X508399Y291555D01*
X507224Y292731D01*
X504905Y293691D01*
X502394D01*
X500075Y292731D01*
X498300Y290956D01*
X497339Y288636D01*
Y286126D01*
X498300Y283807D01*
X500075Y282032D01*
X502394Y281071D01*
X504905D01*
X507224Y282032D01*
X508399Y283207D01*
X509575Y282032D01*
X511894Y281071D01*
X514404D01*
X516724Y282032D01*
X517899Y283207D01*
X519075Y282032D01*
X521394Y281071D01*
X523904D01*
X526224Y282032D01*
X527999Y283807D01*
X528959Y286126D01*
Y288636D01*
X527999Y290956D01*
X526224Y292731D01*
X523904Y293691D01*
D02*
G37*
G36*
X102955Y289520D02*
X100445D01*
X98126Y288559D01*
X96351Y286784D01*
X95390Y284465D01*
Y281955D01*
X96351Y279636D01*
X98126Y277861D01*
X100445Y276900D01*
X102955D01*
X105274Y277861D01*
X107049Y279636D01*
X108010Y281955D01*
Y284465D01*
X107049Y286784D01*
X105274Y288559D01*
X102955Y289520D01*
D02*
G37*
G36*
X77555D02*
X75045D01*
X72726Y288559D01*
X70951Y286784D01*
X69990Y284465D01*
Y281955D01*
X70951Y279636D01*
X72726Y277861D01*
X75045Y276900D01*
X77555D01*
X79874Y277861D01*
X81649Y279636D01*
X82610Y281955D01*
Y284465D01*
X81649Y286784D01*
X79874Y288559D01*
X77555Y289520D01*
D02*
G37*
G36*
X239710Y255230D02*
X237200D01*
X235185Y254396D01*
X233170Y255230D01*
X230660D01*
X228341Y254269D01*
X226566Y252494D01*
X225605Y250175D01*
Y247665D01*
X226566Y245346D01*
X228341Y243571D01*
X230660Y242610D01*
X233170D01*
X235185Y243445D01*
X237200Y242610D01*
X239710D01*
X242029Y243571D01*
X243804Y245346D01*
X244765Y247665D01*
Y250175D01*
X243804Y252494D01*
X242029Y254269D01*
X239710Y255230D01*
D02*
G37*
G36*
X685861Y252329D02*
X683351D01*
X681032Y251368D01*
X679856Y250193D01*
X678680Y251368D01*
X676361Y252329D01*
X673851D01*
X671532Y251368D01*
X670356Y250193D01*
X669180Y251368D01*
X666861Y252329D01*
X664351D01*
X662032Y251368D01*
X660257Y249593D01*
X659296Y247274D01*
Y244764D01*
X660257Y242444D01*
X662032Y240669D01*
X664351Y239709D01*
X666861D01*
X669180Y240669D01*
X670356Y241845D01*
X671532Y240669D01*
X673851Y239709D01*
X676361D01*
X678680Y240669D01*
X679856Y241845D01*
X681032Y240669D01*
X683351Y239709D01*
X685861D01*
X688180Y240669D01*
X689955Y242444D01*
X690916Y244764D01*
Y247274D01*
X689955Y249593D01*
X688180Y251368D01*
X685861Y252329D01*
D02*
G37*
G36*
X524278D02*
X521767D01*
X519448Y251368D01*
X518273Y250193D01*
X517097Y251368D01*
X514778Y252329D01*
X512267D01*
X509948Y251368D01*
X508773Y250193D01*
X507597Y251368D01*
X505278Y252329D01*
X502767D01*
X500448Y251368D01*
X498673Y249593D01*
X497713Y247274D01*
Y244764D01*
X498673Y242444D01*
X500448Y240669D01*
X502767Y239709D01*
X505278D01*
X507597Y240669D01*
X508773Y241845D01*
X509948Y240669D01*
X512267Y239709D01*
X514778D01*
X517097Y240669D01*
X518273Y241845D01*
X519448Y240669D01*
X521767Y239709D01*
X524278D01*
X526597Y240669D01*
X528372Y242444D01*
X529333Y244764D01*
Y247274D01*
X528372Y249593D01*
X526597Y251368D01*
X524278Y252329D01*
D02*
G37*
G36*
X367015Y256574D02*
X364505D01*
X362186Y255613D01*
X360411Y253838D01*
X359450Y251519D01*
Y249008D01*
X360411Y246689D01*
X362186Y244914D01*
X364505Y243954D01*
X367015D01*
X369334Y244914D01*
X371109Y246689D01*
X372070Y249008D01*
Y251519D01*
X371109Y253838D01*
X369334Y255613D01*
X367015Y256574D01*
D02*
G37*
G36*
X131856Y252407D02*
X129346D01*
X127027Y251447D01*
X125252Y249672D01*
X124291Y247352D01*
Y244842D01*
X125252Y242523D01*
X127027Y240748D01*
X129346Y239787D01*
X131856D01*
X134175Y240748D01*
X135950Y242523D01*
X136911Y244842D01*
Y247352D01*
X135950Y249672D01*
X134175Y251447D01*
X131856Y252407D01*
D02*
G37*
G36*
X426012Y245070D02*
X423502D01*
X421182Y244109D01*
X419407Y242334D01*
X418447Y240015D01*
Y237505D01*
X419407Y235186D01*
X421182Y233411D01*
X423502Y232450D01*
X426012D01*
X428331Y233411D01*
X430106Y235186D01*
X431067Y237505D01*
Y240015D01*
X430106Y242334D01*
X428331Y244109D01*
X426012Y245070D01*
D02*
G37*
G36*
X407843D02*
X405332D01*
X403013Y244109D01*
X401238Y242334D01*
X400278Y240015D01*
Y237505D01*
X401238Y235186D01*
X403013Y233411D01*
X405332Y232450D01*
X407843D01*
X410162Y233411D01*
X411937Y235186D01*
X412898Y237505D01*
Y240015D01*
X411937Y242334D01*
X410162Y244109D01*
X407843Y245070D01*
D02*
G37*
G36*
X549210Y243221D02*
X546700D01*
X544381Y242261D01*
X542606Y240486D01*
X541645Y238167D01*
Y235656D01*
X542606Y233337D01*
X544381Y231562D01*
X546700Y230601D01*
X549210D01*
X551530Y231562D01*
X553304Y233337D01*
X554265Y235656D01*
Y238167D01*
X553304Y240486D01*
X551530Y242261D01*
X549210Y243221D01*
D02*
G37*
G36*
X367015Y237995D02*
X364505D01*
X362186Y237035D01*
X360411Y235259D01*
X359450Y232940D01*
Y230430D01*
X360411Y228111D01*
X362186Y226336D01*
X364505Y225375D01*
X367015D01*
X369334Y226336D01*
X371109Y228111D01*
X372070Y230430D01*
Y232940D01*
X371109Y235259D01*
X369334Y237035D01*
X367015Y237995D01*
D02*
G37*
G36*
X337667Y247440D02*
X335157D01*
X332838Y246479D01*
X331063Y244704D01*
X330102Y242385D01*
Y239875D01*
X331063Y237556D01*
X332157Y236461D01*
X330956Y235259D01*
X329995Y232940D01*
Y230430D01*
X330956Y228111D01*
X332731Y226336D01*
X335050Y225375D01*
X337560D01*
X339880Y226336D01*
X341655Y228111D01*
X342615Y230430D01*
Y232940D01*
X341655Y235259D01*
X340560Y236354D01*
X341762Y237556D01*
X342722Y239875D01*
Y242385D01*
X341762Y244704D01*
X339986Y246479D01*
X337667Y247440D01*
D02*
G37*
G36*
X78261Y209094D02*
X75751D01*
X73432Y208133D01*
X71656Y206358D01*
X70696Y204039D01*
Y201529D01*
X71656Y199210D01*
X72832Y198034D01*
X71656Y196858D01*
X70696Y194539D01*
Y192029D01*
X71656Y189710D01*
X73432Y187935D01*
X75751Y186974D01*
X78261D01*
X80580Y187935D01*
X82355Y189710D01*
X83316Y192029D01*
Y194539D01*
X82355Y196858D01*
X81180Y198034D01*
X82355Y199210D01*
X83316Y201529D01*
Y204039D01*
X82355Y206358D01*
X80580Y208133D01*
X78261Y209094D01*
D02*
G37*
G36*
X492696Y194270D02*
X490186D01*
X487867Y193309D01*
X486092Y191534D01*
X485131Y189215D01*
Y186705D01*
X486092Y184386D01*
X487867Y182611D01*
X490186Y181650D01*
X492696D01*
X495015Y182611D01*
X496791Y184386D01*
X497751Y186705D01*
Y189215D01*
X496791Y191534D01*
X495015Y193309D01*
X492696Y194270D01*
D02*
G37*
G36*
X476741D02*
X474230D01*
X471911Y193309D01*
X470136Y191534D01*
X469175Y189215D01*
Y186705D01*
X470136Y184386D01*
X471911Y182611D01*
X474230Y181650D01*
X476741D01*
X479060Y182611D01*
X480835Y184386D01*
X481796Y186705D01*
Y189215D01*
X480835Y191534D01*
X479060Y193309D01*
X476741Y194270D01*
D02*
G37*
G36*
X366560Y184110D02*
X364050D01*
X361731Y183149D01*
X359956Y181374D01*
X358995Y179055D01*
Y176545D01*
X359956Y174226D01*
X361731Y172451D01*
X364050Y171490D01*
X366560D01*
X368880Y172451D01*
X370655Y174226D01*
X371615Y176545D01*
Y179055D01*
X370655Y181374D01*
X368880Y183149D01*
X366560Y184110D01*
D02*
G37*
G36*
X306055Y168870D02*
X303545D01*
X301226Y167909D01*
X299451Y166134D01*
X298490Y163815D01*
Y161305D01*
X299451Y158986D01*
X301226Y157211D01*
X303545Y156250D01*
X306055D01*
X308374Y157211D01*
X310149Y158986D01*
X311110Y161305D01*
Y163815D01*
X310149Y166134D01*
X308374Y167909D01*
X306055Y168870D01*
D02*
G37*
G36*
X337560Y168683D02*
X335050D01*
X332731Y167722D01*
X330956Y165947D01*
X329995Y163628D01*
Y161118D01*
X330956Y158798D01*
X332731Y157023D01*
X335050Y156063D01*
X337560D01*
X339880Y157023D01*
X341655Y158798D01*
X342615Y161118D01*
Y163628D01*
X341655Y165947D01*
X339880Y167722D01*
X337560Y168683D01*
D02*
G37*
G36*
X580375Y156170D02*
X577865D01*
X575546Y155209D01*
X573771Y153434D01*
X572810Y151115D01*
Y148605D01*
X573771Y146286D01*
X575546Y144511D01*
X577865Y143550D01*
X580375D01*
X582694Y144511D01*
X584469Y146286D01*
X585430Y148605D01*
Y151115D01*
X584469Y153434D01*
X582694Y155209D01*
X580375Y156170D01*
D02*
G37*
G36*
X519806Y155960D02*
X517295D01*
X514976Y154999D01*
X513201Y153224D01*
X512240Y150905D01*
Y148395D01*
X513201Y146076D01*
X514976Y144301D01*
X517295Y143340D01*
X519806D01*
X522125Y144301D01*
X523900Y146076D01*
X524860Y148395D01*
Y150905D01*
X523900Y153224D01*
X522125Y154999D01*
X519806Y155960D01*
D02*
G37*
G36*
X233768Y143470D02*
X231258D01*
X228939Y142509D01*
X227164Y140734D01*
X226203Y138415D01*
Y135905D01*
X227164Y133586D01*
X228939Y131811D01*
X231258Y130850D01*
X233768D01*
X236087Y131811D01*
X237862Y133586D01*
X238823Y135905D01*
Y138415D01*
X237862Y140734D01*
X236087Y142509D01*
X233768Y143470D01*
D02*
G37*
G36*
X519806Y128230D02*
X517295D01*
X514976Y127269D01*
X513800Y126094D01*
X512625Y127269D01*
X510306Y128230D01*
X507795D01*
X505476Y127269D01*
X504300Y126094D01*
X503125Y127269D01*
X500806Y128230D01*
X498295D01*
X495976Y127269D01*
X494800Y126094D01*
X493625Y127269D01*
X491306Y128230D01*
X488795D01*
X486476Y127269D01*
X484701Y125494D01*
X483740Y123175D01*
Y120665D01*
X484701Y118346D01*
X486476Y116571D01*
X488795Y115610D01*
X491306D01*
X493625Y116571D01*
X494800Y117746D01*
X495976Y116571D01*
X498295Y115610D01*
X500806D01*
X503125Y116571D01*
X504300Y117746D01*
X505476Y116571D01*
X507795Y115610D01*
X510306D01*
X512625Y116571D01*
X513800Y117746D01*
X514976Y116571D01*
X517295Y115610D01*
X519806D01*
X522125Y116571D01*
X523900Y118346D01*
X524860Y120665D01*
Y123175D01*
X523900Y125494D01*
X522125Y127269D01*
X519806Y128230D01*
D02*
G37*
G36*
X568279Y136102D02*
X565769D01*
X563450Y135141D01*
X561674Y133366D01*
X560714Y131047D01*
Y128537D01*
X561674Y126217D01*
X563450Y124442D01*
X565769Y123482D01*
X568279D01*
X570598Y124442D01*
X572373Y126217D01*
X573334Y128537D01*
Y131047D01*
X572373Y133366D01*
X570598Y135141D01*
X568279Y136102D01*
D02*
G37*
G36*
X662021Y167050D02*
X658779D01*
X655648Y166211D01*
X652841Y164590D01*
X650549Y162299D01*
X648929Y159492D01*
X648090Y156361D01*
Y153119D01*
X648929Y149988D01*
X650549Y147182D01*
X652841Y144889D01*
X655648Y143269D01*
X656406Y143066D01*
X656272Y142050D01*
X648090D01*
Y117430D01*
X672710D01*
Y142050D01*
X664528D01*
X664394Y143066D01*
X665152Y143269D01*
X667959Y144889D01*
X670250Y147182D01*
X671871Y149988D01*
X672710Y153119D01*
Y156361D01*
X671871Y159492D01*
X670250Y162299D01*
X667959Y164590D01*
X665152Y166211D01*
X662021Y167050D01*
D02*
G37*
G36*
X580375Y116800D02*
X577865D01*
X575546Y115839D01*
X573771Y114064D01*
X572810Y111745D01*
Y109235D01*
X573771Y106916D01*
X575546Y105141D01*
X577865Y104180D01*
X580375D01*
X582694Y105141D01*
X584469Y106916D01*
X585430Y109235D01*
Y111745D01*
X584469Y114064D01*
X582694Y115839D01*
X580375Y116800D01*
D02*
G37*
G36*
X250175Y99080D02*
X247665D01*
X245346Y98119D01*
X243571Y96344D01*
X242610Y94025D01*
Y91515D01*
X243571Y89196D01*
X245346Y87421D01*
X247665Y86460D01*
X250175D01*
X252494Y87421D01*
X254269Y89196D01*
X255230Y91515D01*
Y94025D01*
X254269Y96344D01*
X252494Y98119D01*
X250175Y99080D01*
D02*
G37*
G36*
X580375Y91400D02*
X577865D01*
X575546Y90439D01*
X573771Y88664D01*
X572810Y86345D01*
Y83835D01*
X573771Y81516D01*
X575546Y79741D01*
X577865Y78780D01*
X580375D01*
X582694Y79741D01*
X584469Y81516D01*
X585430Y83835D01*
Y86345D01*
X584469Y88664D01*
X582694Y90439D01*
X580375Y91400D01*
D02*
G37*
G36*
X254051Y63590D02*
X251540D01*
X249221Y62629D01*
X248318Y61726D01*
X247414Y62629D01*
X245095Y63590D01*
X242585D01*
X240266Y62629D01*
X238491Y60854D01*
X237530Y58535D01*
Y56025D01*
X238491Y53706D01*
X240266Y51931D01*
X242585Y50970D01*
X245095D01*
X247414Y51931D01*
X248318Y52834D01*
X249221Y51931D01*
X251540Y50970D01*
X254051D01*
X256370Y51931D01*
X258145Y53706D01*
X259105Y56025D01*
Y58535D01*
X258145Y60854D01*
X256370Y62629D01*
X254051Y63590D01*
D02*
G37*
G36*
X42516Y65540D02*
X37485D01*
X32550Y64559D01*
X27902Y62633D01*
X23719Y59838D01*
X20162Y56281D01*
X17367Y52098D01*
X15442Y47450D01*
X14460Y42516D01*
Y37485D01*
X15442Y32550D01*
X17367Y27902D01*
X20162Y23719D01*
X23719Y20162D01*
X27902Y17367D01*
X32550Y15442D01*
X37485Y14460D01*
X42516D01*
X47450Y15442D01*
X52098Y17367D01*
X56281Y20162D01*
X59838Y23719D01*
X62633Y27902D01*
X64559Y32550D01*
X65540Y37485D01*
Y42516D01*
X64559Y47450D01*
X62633Y52098D01*
X59838Y56281D01*
X56281Y59838D01*
X52098Y62633D01*
X47450Y64559D01*
X42516Y65540D01*
D02*
G37*
G36*
X662516Y65540D02*
X657485D01*
X652551Y64558D01*
X647903Y62633D01*
X643719Y59838D01*
X640162Y56281D01*
X637367Y52098D01*
X635442Y47450D01*
X634460Y42515D01*
Y37485D01*
X635442Y32550D01*
X637367Y27902D01*
X640162Y23719D01*
X643719Y20162D01*
X647903Y17367D01*
X652551Y15442D01*
X657485Y14460D01*
X662516D01*
X667450Y15442D01*
X672098Y17367D01*
X676281Y20162D01*
X679838Y23719D01*
X682633Y27902D01*
X684559Y32550D01*
X685540Y37485D01*
Y42515D01*
X684559Y47450D01*
X682633Y52098D01*
X679838Y56281D01*
X676281Y59838D01*
X672098Y62633D01*
X667450Y64558D01*
X662516Y65540D01*
D02*
G37*
%LPD*%
G36*
X487595Y680635D02*
X487680Y680210D01*
Y550165D01*
Y544704D01*
Y509593D01*
X486290D01*
X483971Y508633D01*
X482196Y506858D01*
X481235Y504539D01*
Y502028D01*
X482196Y499709D01*
X483971Y497934D01*
X486290Y496973D01*
X487680D01*
Y484654D01*
X486835Y484090D01*
X486456Y484247D01*
X483945D01*
X481626Y483287D01*
X480451Y482111D01*
X479275Y483287D01*
X476956Y484247D01*
X474445D01*
X472126Y483287D01*
X470351Y481511D01*
X469390Y479192D01*
Y476682D01*
X470351Y474363D01*
X471527Y473187D01*
X470351Y472011D01*
X469390Y469692D01*
Y467182D01*
X470351Y464863D01*
X472126Y463088D01*
X474445Y462127D01*
X476956D01*
X479275Y463088D01*
X480451Y464263D01*
X481626Y463088D01*
X483945Y462127D01*
X486456D01*
X486835Y462284D01*
X487680Y461720D01*
Y446920D01*
X486664Y446499D01*
X486125Y447038D01*
X483806Y447999D01*
X481296D01*
X478977Y447038D01*
X477202Y445263D01*
X476241Y442944D01*
Y440434D01*
X477202Y438114D01*
X477525Y437791D01*
X477136Y436852D01*
X466498D01*
X466491Y436851D01*
X465893Y436970D01*
X465380Y437313D01*
X465037Y437826D01*
X464918Y438424D01*
X464920Y438431D01*
Y449966D01*
X465089Y450136D01*
X466050Y452455D01*
Y454965D01*
X465089Y457284D01*
X463314Y459059D01*
X460995Y460020D01*
X458485D01*
X457713Y459700D01*
X456796Y460420D01*
Y462450D01*
X455836Y464770D01*
X454061Y466545D01*
X451742Y467505D01*
X449231D01*
X446912Y466545D01*
X445137Y464770D01*
X444177Y462450D01*
Y459940D01*
X445137Y457621D01*
X446912Y455846D01*
X449231Y454885D01*
X451742D01*
X452513Y455205D01*
X453430Y454485D01*
Y452455D01*
X454391Y450136D01*
X454561Y449966D01*
Y438431D01*
X454558D01*
X454965Y435341D01*
X456157Y432461D01*
X458055Y429988D01*
X460528Y428091D01*
X463408Y426898D01*
X466498Y426491D01*
Y426493D01*
X483546D01*
X483879Y426161D01*
X486198Y425200D01*
X487680D01*
Y368960D01*
Y356356D01*
Y327244D01*
Y315347D01*
Y264670D01*
X487595Y264245D01*
X487170Y264160D01*
X396750D01*
X396325Y264245D01*
X396240Y264670D01*
Y487170D01*
X396325Y487595D01*
X396750Y487680D01*
X411641D01*
Y528979D01*
X396750D01*
X396325Y529064D01*
X396240Y529489D01*
Y533827D01*
X396519D01*
X398534Y534661D01*
X400549Y533827D01*
X403059D01*
X405378Y534787D01*
X407153Y536562D01*
X408114Y538881D01*
Y541392D01*
X407153Y543711D01*
X405378Y545486D01*
X403059Y546447D01*
X400549D01*
X398534Y545612D01*
X396519Y546447D01*
X396240D01*
Y648640D01*
Y649523D01*
X398781Y650990D01*
X400970Y653179D01*
X402519Y655861D01*
X403320Y658852D01*
Y661948D01*
X402519Y664939D01*
X400970Y667621D01*
X398781Y669810D01*
X396240Y671277D01*
Y680210D01*
X396325Y680635D01*
X396750Y680720D01*
X487170D01*
X487595Y680635D01*
D02*
G37*
%LPC*%
G36*
X443108Y672160D02*
X440012D01*
X437021Y671359D01*
X434339Y669810D01*
X432150Y667621D01*
X430601Y664939D01*
X429800Y661948D01*
Y658852D01*
X430601Y655861D01*
X432150Y653179D01*
X434339Y650990D01*
X437021Y649441D01*
X440012Y648640D01*
X443108D01*
X446099Y649441D01*
X448781Y650990D01*
X450970Y653179D01*
X452519Y655861D01*
X453320Y658852D01*
Y661948D01*
X452519Y664939D01*
X450970Y667621D01*
X448781Y669810D01*
X446099Y671359D01*
X443108Y672160D01*
D02*
G37*
G36*
X418108D02*
X415012D01*
X412021Y671359D01*
X409339Y669810D01*
X407150Y667621D01*
X405601Y664939D01*
X404800Y661948D01*
Y658852D01*
X405601Y655861D01*
X407150Y653179D01*
X409339Y650990D01*
X412021Y649441D01*
X415012Y648640D01*
X418108D01*
X421099Y649441D01*
X423781Y650990D01*
X425970Y653179D01*
X427519Y655861D01*
X428320Y658852D01*
Y661948D01*
X427519Y664939D01*
X425970Y667621D01*
X423781Y669810D01*
X421099Y671359D01*
X418108Y672160D01*
D02*
G37*
G36*
X446682Y596200D02*
X444171D01*
X441852Y595239D01*
X440077Y593464D01*
X439117Y591145D01*
Y588635D01*
X440077Y586315D01*
X441852Y584540D01*
X444171Y583580D01*
X446682D01*
X449001Y584540D01*
X450776Y586315D01*
X451737Y588635D01*
Y591145D01*
X450776Y593464D01*
X449001Y595239D01*
X446682Y596200D01*
D02*
G37*
G36*
X413864Y596197D02*
X411353D01*
X409034Y595237D01*
X407259Y593462D01*
X406298Y591142D01*
Y588632D01*
X407259Y586313D01*
X409034Y584538D01*
X411353Y583577D01*
X413864D01*
X416183Y584538D01*
X417958Y586313D01*
X418918Y588632D01*
Y591142D01*
X417958Y593462D01*
X416183Y595237D01*
X413864Y596197D01*
D02*
G37*
G36*
X469095Y580698D02*
X466585D01*
X464266Y579738D01*
X462491Y577962D01*
X461530Y575643D01*
Y573133D01*
X462491Y570814D01*
X464266Y569039D01*
X466585Y568078D01*
X469095D01*
X471414Y569039D01*
X473189Y570814D01*
X474150Y573133D01*
Y575643D01*
X473189Y577962D01*
X471414Y579738D01*
X469095Y580698D01*
D02*
G37*
G36*
X439640Y568450D02*
X437130D01*
X434811Y567490D01*
X434270Y566949D01*
X433730Y567490D01*
X431410Y568450D01*
X428900D01*
X426581Y567490D01*
X424806Y565715D01*
X423845Y563396D01*
Y560885D01*
X424806Y558566D01*
X425347Y558025D01*
X424806Y557485D01*
X423845Y555165D01*
Y552655D01*
X424806Y550336D01*
X426581Y548561D01*
X428900Y547600D01*
X431410D01*
X433730Y548561D01*
X434270Y549102D01*
X434811Y548561D01*
X437130Y547600D01*
X439640D01*
X441960Y548561D01*
X443735Y550336D01*
X444695Y552655D01*
Y555165D01*
X443735Y557485D01*
X443194Y558025D01*
X443735Y558566D01*
X444695Y560885D01*
Y563396D01*
X443735Y565715D01*
X441960Y567490D01*
X439640Y568450D01*
D02*
G37*
G36*
X446226Y514640D02*
X443716D01*
X441397Y513679D01*
X439622Y511904D01*
X438661Y509585D01*
Y507074D01*
X439622Y504755D01*
X441397Y502980D01*
X443716Y502020D01*
X446226D01*
X448545Y502980D01*
X450320Y504755D01*
X451281Y507074D01*
Y509585D01*
X450320Y511904D01*
X448545Y513679D01*
X446226Y514640D01*
D02*
G37*
G36*
X468800Y509593D02*
X466290D01*
X463971Y508633D01*
X462196Y506858D01*
X461235Y504539D01*
Y502028D01*
X462196Y499709D01*
X463971Y497934D01*
X466290Y496973D01*
X468800D01*
X471120Y497934D01*
X472895Y499709D01*
X473855Y502028D01*
Y504539D01*
X472895Y506858D01*
X471120Y508633D01*
X468800Y509593D01*
D02*
G37*
G36*
X434706Y500020D02*
X432196D01*
X429877Y499059D01*
X428102Y497284D01*
X427141Y494965D01*
Y492455D01*
X428102Y490136D01*
X429877Y488361D01*
X432196Y487400D01*
X434706D01*
X437025Y488361D01*
X438800Y490136D01*
X439761Y492455D01*
Y494965D01*
X438800Y497284D01*
X437025Y499059D01*
X434706Y500020D01*
D02*
G37*
G36*
X434827Y471020D02*
X432316D01*
X429997Y470059D01*
X428222Y468284D01*
X427262Y465965D01*
Y463455D01*
X428222Y461136D01*
X429997Y459361D01*
X432316Y458400D01*
X434827D01*
X437146Y459361D01*
X438921Y461136D01*
X439882Y463455D01*
Y465965D01*
X438921Y468284D01*
X437146Y470059D01*
X434827Y471020D01*
D02*
G37*
G36*
X472618Y423994D02*
X470108D01*
X467789Y423033D01*
X466014Y421258D01*
X465053Y418939D01*
Y416429D01*
X466014Y414109D01*
X467789Y412335D01*
X470108Y411374D01*
X472618D01*
X474937Y412335D01*
X476712Y414109D01*
X477673Y416429D01*
Y418939D01*
X476712Y421258D01*
X474937Y423033D01*
X472618Y423994D01*
D02*
G37*
G36*
X422920Y379699D02*
X420409D01*
X418090Y378738D01*
X416315Y376963D01*
X415354Y374644D01*
Y372134D01*
X416315Y369814D01*
X418090Y368039D01*
X420409Y367079D01*
X422920D01*
X425239Y368039D01*
X427014Y369814D01*
X427974Y372134D01*
Y374644D01*
X427014Y376963D01*
X425239Y378738D01*
X422920Y379699D01*
D02*
G37*
G36*
X449972Y342860D02*
X447462D01*
X445143Y341899D01*
X443368Y340124D01*
X442407Y337805D01*
Y335295D01*
X443368Y332976D01*
X445143Y331201D01*
X447462Y330240D01*
X449972D01*
X452291Y331201D01*
X454067Y332976D01*
X455027Y335295D01*
Y337805D01*
X454067Y340124D01*
X452291Y341899D01*
X449972Y342860D01*
D02*
G37*
%LPD*%
D15*
X459740Y438431D02*
G03*
X466498Y431673I6758J0D01*
G01*
X487453D01*
X459740Y438431D02*
Y453710D01*
X487453Y431510D02*
Y431673D01*
D179*
X226632Y496123D02*
D03*
D182*
X466560Y660400D02*
D03*
D183*
X395255Y516406D02*
D03*
X118898Y214527D02*
D03*
X89706Y202784D02*
D03*
Y193284D02*
D03*
X203200Y96520D02*
D03*
Y104748D02*
D03*
Y112975D02*
D03*
Y121203D02*
D03*
X266700Y584200D02*
D03*
X499658Y535515D02*
D03*
X424757Y274320D02*
D03*
X406400D02*
D03*
X425201Y533400D02*
D03*
X381000Y46289D02*
D03*
Y54516D02*
D03*
Y62744D02*
D03*
Y70971D02*
D03*
X487453Y431510D02*
D03*
X459740Y453710D02*
D03*
X540247Y50912D02*
D03*
X547207D02*
D03*
Y60412D02*
D03*
X540247D02*
D03*
Y69912D02*
D03*
X547207D02*
D03*
X440740Y70463D02*
D03*
Y62235D02*
D03*
Y54008D02*
D03*
Y45780D02*
D03*
X478740Y29325D02*
D03*
Y36917D02*
D03*
Y44510D02*
D03*
M02*
