G04*
G04 #@! TF.GenerationSoftware,Altium Limited,Altium Designer,24.5.2 (23)*
G04*
G04 Layer_Color=128*
%FSLAX44Y44*%
%MOMM*%
G71*
G04*
G04 #@! TF.SameCoordinates,E71CDDC7-94F0-4B5D-9B63-04EB80979921*
G04*
G04*
G04 #@! TF.FilePolarity,Positive*
G04*
G01*
G75*
%ADD187C,0.0508*%
D187*
X221633Y496124D02*
X231633D01*
X226633Y491124D02*
Y501124D01*
X196633Y496124D02*
X206633D01*
X201633Y491124D02*
Y501124D01*
X171633Y496124D02*
X181633D01*
X176633Y491124D02*
Y501124D01*
X146633Y496124D02*
X156633D01*
X151633Y491124D02*
Y501124D01*
X96633Y496124D02*
X106633D01*
X101633Y491124D02*
Y501124D01*
X121633Y496124D02*
X131633D01*
X126633Y491124D02*
Y501124D01*
X655900Y154740D02*
X664900D01*
X660400Y150240D02*
Y159240D01*
X655900Y129740D02*
X664900D01*
X660400Y125240D02*
Y134240D01*
X654130Y552120D02*
X664130D01*
X659130Y547120D02*
Y557120D01*
X654130Y477120D02*
X664130D01*
X659130Y472120D02*
Y482120D01*
X654130Y502120D02*
X664130D01*
X659130Y497120D02*
Y507120D01*
X654130Y527120D02*
X664130D01*
X659130Y522120D02*
Y532120D01*
X654130Y452120D02*
X664130D01*
X659130Y447120D02*
Y457120D01*
X654130Y427120D02*
X664130D01*
X659130Y422120D02*
Y432120D01*
X654130Y402120D02*
X664130D01*
X659130Y397120D02*
Y407120D01*
X654130Y377120D02*
X664130D01*
X659130Y372120D02*
Y382120D01*
X386260Y660400D02*
X396860D01*
X391560Y655100D02*
Y665700D01*
X411260Y660400D02*
X421860D01*
X416560Y655100D02*
Y665700D01*
X436260Y660400D02*
X446860D01*
X441560Y655100D02*
Y665700D01*
X461260Y660400D02*
X471860D01*
X466560Y655100D02*
Y665700D01*
X262400Y660400D02*
X271400D01*
X266900Y655900D02*
Y664900D01*
X287400Y660400D02*
X296400D01*
X291900Y655900D02*
Y664900D01*
X140480Y660400D02*
X149480D01*
X144980Y655900D02*
Y664900D01*
X165480Y660400D02*
X174480D01*
X169980Y655900D02*
Y664900D01*
X22500Y660000D02*
X57500D01*
X40000Y642500D02*
Y677500D01*
X642500Y660000D02*
X677500D01*
X660000Y642500D02*
Y677500D01*
X22500Y40000D02*
X57500D01*
X40000Y22500D02*
Y57500D01*
X642500Y40000D02*
X677500D01*
X660000Y22500D02*
Y57500D01*
X436885Y553910D02*
X439885D01*
X438385Y552410D02*
Y555410D01*
X436885Y562140D02*
X439885D01*
X438385Y560640D02*
Y563640D01*
X428655Y562140D02*
X431655D01*
X430155Y560640D02*
Y563640D01*
X428655Y553910D02*
X431655D01*
X430155Y552410D02*
Y555410D01*
X443927Y589890D02*
X446927D01*
X445427Y588390D02*
Y591390D01*
X411109Y589887D02*
X414109D01*
X412608Y588387D02*
Y591387D01*
X469863Y417684D02*
X472863D01*
X471363Y416184D02*
Y419184D01*
X474201Y468437D02*
X477201D01*
X475700Y466937D02*
Y469937D01*
X474201Y477937D02*
X477201D01*
X475700Y476437D02*
Y479437D01*
X483700Y477937D02*
X486701D01*
X485201Y476437D02*
Y479437D01*
X483700Y468437D02*
X486701D01*
X485201Y466937D02*
Y469937D01*
X431951Y493710D02*
X434951D01*
X433451Y492210D02*
Y495210D01*
X432071Y464710D02*
X435071D01*
X433572Y463210D02*
Y466210D01*
X443471Y508330D02*
X446471D01*
X444971Y506829D02*
Y509829D01*
X466340Y574388D02*
X469340D01*
X467840Y572888D02*
Y575888D01*
X498158Y547434D02*
X501158D01*
X499658Y545934D02*
Y548934D01*
X518565Y523317D02*
X521565D01*
X520065Y521817D02*
Y524817D01*
X539666Y474520D02*
X542666D01*
X541166Y473021D02*
Y476021D01*
X554325Y426720D02*
X557325D01*
X555825Y425220D02*
Y428220D01*
X554325Y452120D02*
X557325D01*
X555825Y450620D02*
Y453620D01*
X420164Y373389D02*
X423164D01*
X421664Y371889D02*
Y374889D01*
X683106Y246019D02*
X686106D01*
X684606Y244519D02*
Y247519D01*
X673606Y246019D02*
X676606D01*
X675106Y244519D02*
Y247519D01*
X664106Y246019D02*
X667106D01*
X665606Y244519D02*
Y247519D01*
X682733Y287381D02*
X685733D01*
X684233Y285881D02*
Y288881D01*
X673233Y287381D02*
X676233D01*
X674733Y285881D02*
Y288881D01*
X663733Y287381D02*
X666733D01*
X665233Y285881D02*
Y288881D01*
X628420Y341630D02*
X631420D01*
X629920Y340130D02*
Y343130D01*
X514663Y321296D02*
X517663D01*
X516162Y319796D02*
Y322796D01*
X505163Y321296D02*
X508162D01*
X506662Y319796D02*
Y322796D01*
X495662Y321296D02*
X498662D01*
X497163Y319796D02*
Y322796D01*
X514289Y362658D02*
X517289D01*
X515789Y361158D02*
Y364158D01*
X504789Y362658D02*
X507789D01*
X506289Y361158D02*
Y364158D01*
X495289Y362658D02*
X498289D01*
X496789Y361158D02*
Y364158D01*
X502149Y287381D02*
X505149D01*
X503649Y285881D02*
Y288881D01*
X511649Y287381D02*
X514649D01*
X513149Y285881D02*
Y288881D01*
X521149Y287381D02*
X524149D01*
X522649Y285881D02*
Y288881D01*
X502523Y246019D02*
X505522D01*
X504022Y244519D02*
Y247519D01*
X512023Y246019D02*
X515023D01*
X513522Y244519D02*
Y247519D01*
X521522Y246019D02*
X524523D01*
X523022Y244519D02*
Y247519D01*
X546455Y236911D02*
X549455D01*
X547955Y235411D02*
Y238411D01*
X415762Y84968D02*
X418762D01*
X417262Y83468D02*
Y86468D01*
X577620Y85090D02*
X580620D01*
X579120Y83590D02*
Y86590D01*
X577620Y110490D02*
X580620D01*
X579120Y108990D02*
Y111990D01*
X565524Y129792D02*
X568524D01*
X567024Y128292D02*
Y131292D01*
X489941Y187960D02*
X492941D01*
X491441Y186460D02*
Y189460D01*
X473985Y187960D02*
X476986D01*
X475485Y186460D02*
Y189460D01*
X423257Y238760D02*
X426257D01*
X424757Y237260D02*
Y240260D01*
X405088Y238760D02*
X408088D01*
X406588Y237260D02*
Y240260D01*
X364260Y250264D02*
X367260D01*
X365760Y248764D02*
Y251764D01*
X364260Y231685D02*
X367260D01*
X365760Y230185D02*
Y233185D01*
X334912Y241130D02*
X337912D01*
X336412Y239630D02*
Y242630D01*
X334805Y231685D02*
X337805D01*
X336305Y230185D02*
Y233185D01*
X303300Y162560D02*
X306300D01*
X304800Y161060D02*
Y164060D01*
X363805Y177800D02*
X366805D01*
X365305Y176300D02*
Y179300D01*
X334805Y162373D02*
X337805D01*
X336305Y160873D02*
Y163873D01*
X231013Y137160D02*
X234013D01*
X232513Y135660D02*
Y138660D01*
X247420Y92770D02*
X250420D01*
X248920Y91270D02*
Y94270D01*
X242340Y57280D02*
X245340D01*
X243840Y55780D02*
Y58780D01*
X251295Y57280D02*
X254295D01*
X252795Y55780D02*
Y58780D01*
X393755Y516406D02*
X396755D01*
X395255Y514906D02*
Y517906D01*
X359697Y509510D02*
X362697D01*
X361197Y508010D02*
Y511010D01*
X308250Y509510D02*
X311250D01*
X309750Y508010D02*
Y511010D01*
X66581Y579120D02*
X69580D01*
X68081Y577620D02*
Y580620D01*
X83910Y579120D02*
X86910D01*
X85410Y577620D02*
Y580620D01*
X74800Y427990D02*
X77800D01*
X76300Y426490D02*
Y429490D01*
X129101Y246097D02*
X132101D01*
X130601Y244597D02*
Y247597D01*
X75506Y193284D02*
X78506D01*
X77006Y191784D02*
Y194784D01*
X75506Y202784D02*
X78506D01*
X77006Y201284D02*
Y204284D01*
X74800Y283210D02*
X77800D01*
X76300Y281710D02*
Y284710D01*
X141665Y330933D02*
X144665D01*
X143165Y329432D02*
Y332433D01*
X151165Y330933D02*
X154165D01*
X152665Y329432D02*
Y332433D01*
X160665Y330933D02*
X163665D01*
X162165Y329432D02*
Y332433D01*
X160665Y340433D02*
X163665D01*
X162165Y338932D02*
Y341932D01*
X151165Y340433D02*
X154165D01*
X152665Y338932D02*
Y341932D01*
X151165Y349933D02*
X154165D01*
X152665Y348433D02*
Y351432D01*
X160665Y349933D02*
X163665D01*
X162165Y348433D02*
Y351432D01*
X141665Y349933D02*
X144665D01*
X143165Y348433D02*
Y351432D01*
X141665Y340433D02*
X144665D01*
X143165Y338932D02*
Y341932D01*
X117398Y214527D02*
X120398D01*
X118898Y213027D02*
Y216026D01*
X88206Y202784D02*
X91206D01*
X89706Y201284D02*
Y204284D01*
X88206Y193284D02*
X91206D01*
X89706Y191784D02*
Y194784D01*
X201700Y96520D02*
X204700D01*
X203200Y95020D02*
Y98020D01*
X201700Y104748D02*
X204700D01*
X203200Y103248D02*
Y106248D01*
X201700Y112975D02*
X204700D01*
X203200Y111475D02*
Y114475D01*
X201700Y121203D02*
X204700D01*
X203200Y119703D02*
Y122703D01*
X265200Y584200D02*
X268200D01*
X266700Y582700D02*
Y585700D01*
X498158Y535515D02*
X501158D01*
X499658Y534015D02*
Y537015D01*
X423257Y274320D02*
X426257D01*
X424757Y272820D02*
Y275820D01*
X404900Y274320D02*
X407900D01*
X406400Y272820D02*
Y275820D01*
X423701Y533400D02*
X426701D01*
X425201Y531900D02*
Y534900D01*
X379500Y46289D02*
X382500D01*
X381000Y44789D02*
Y47789D01*
X379500Y54516D02*
X382500D01*
X381000Y53016D02*
Y56016D01*
X379500Y62744D02*
X382500D01*
X381000Y61244D02*
Y64244D01*
X379500Y70971D02*
X382500D01*
X381000Y69472D02*
Y72471D01*
X515136Y390144D02*
X518136D01*
X516636Y388644D02*
Y391644D01*
X481051Y441689D02*
X484051D01*
X482551Y440189D02*
Y443189D01*
X569260Y436009D02*
X572260D01*
X570760Y434509D02*
Y437509D01*
X485953Y431510D02*
X488953D01*
X487453Y430010D02*
Y433010D01*
X458240Y453710D02*
X461240D01*
X459740Y452210D02*
Y455210D01*
X448987Y461195D02*
X451987D01*
X450487Y459695D02*
Y462695D01*
X486045Y503283D02*
X489045D01*
X487545Y501783D02*
Y504783D01*
X466045Y503283D02*
X469045D01*
X467545Y501783D02*
Y504783D01*
X514120Y462450D02*
X517120D01*
X515620Y460950D02*
Y463950D01*
X514120Y474696D02*
X517120D01*
X515620Y473196D02*
Y476196D01*
X447217Y336550D02*
X450217D01*
X448717Y335050D02*
Y338050D01*
X538747Y50912D02*
X541747D01*
X540247Y49412D02*
Y52412D01*
X545707Y50912D02*
X548707D01*
X547207Y49412D02*
Y52412D01*
X545707Y60412D02*
X548707D01*
X547207Y58912D02*
Y61912D01*
X538747Y60412D02*
X541747D01*
X540247Y58912D02*
Y61912D01*
X538747Y69912D02*
X541747D01*
X540247Y68412D02*
Y71412D01*
X545707Y69912D02*
X548707D01*
X547207Y68412D02*
Y71412D01*
X450329Y29325D02*
X453329D01*
X451829Y27825D02*
Y30825D01*
X466151Y29325D02*
X469151D01*
X467651Y27825D02*
Y30825D01*
X439240Y70463D02*
X442240D01*
X440740Y68963D02*
Y71963D01*
X439240Y62235D02*
X442240D01*
X440740Y60735D02*
Y63735D01*
X439240Y54008D02*
X442240D01*
X440740Y52508D02*
Y55508D01*
X439240Y45780D02*
X442240D01*
X440740Y44280D02*
Y47280D01*
X477240Y29325D02*
X480240D01*
X478740Y27825D02*
Y30825D01*
X477240Y36917D02*
X480240D01*
X478740Y35417D02*
Y38417D01*
X477240Y44510D02*
X480240D01*
X478740Y43010D02*
Y46010D01*
X458240Y84968D02*
X461240D01*
X459740Y83468D02*
Y86468D01*
X458240Y94468D02*
X461240D01*
X459740Y92968D02*
Y95968D01*
X486740Y94468D02*
X489740D01*
X488240Y92968D02*
Y95968D01*
X477240Y94468D02*
X480240D01*
X478740Y92968D02*
Y95968D01*
X467740Y94468D02*
X470740D01*
X469240Y92968D02*
Y95968D01*
X467740Y84968D02*
X470740D01*
X469240Y83468D02*
Y86468D01*
X477240Y84968D02*
X480240D01*
X478740Y83468D02*
Y86468D01*
X486740Y84968D02*
X489740D01*
X488240Y83468D02*
Y86468D01*
X486740Y75468D02*
X489740D01*
X488240Y73968D02*
Y76968D01*
X477240Y75468D02*
X480240D01*
X478740Y73968D02*
Y76968D01*
X467740Y75468D02*
X470740D01*
X469240Y73968D02*
Y76968D01*
X458240Y75468D02*
X461240D01*
X459740Y73968D02*
Y76968D01*
X577620Y149860D02*
X580620D01*
X579120Y148360D02*
Y151360D01*
X517050Y149650D02*
X520050D01*
X518550Y148150D02*
Y151150D01*
X488550Y121920D02*
X491550D01*
X490050Y120420D02*
Y123420D01*
X498050Y121920D02*
X501050D01*
X499550Y120420D02*
Y123420D01*
X507550Y121920D02*
X510550D01*
X509050Y120420D02*
Y123420D01*
X517050Y121920D02*
X520050D01*
X518550Y120420D02*
Y123420D01*
X252754Y601726D02*
X255754D01*
X254254Y600226D02*
Y603226D01*
X235400Y412750D02*
X238400D01*
X236900Y411250D02*
Y414250D01*
X569260Y442571D02*
X572260D01*
X570760Y441071D02*
Y444071D01*
X400304Y540137D02*
X403304D01*
X401804Y538637D02*
Y541637D01*
X393764Y540137D02*
X396764D01*
X395264Y538637D02*
Y541637D01*
X360196Y566367D02*
X363196D01*
X361696Y564867D02*
Y567867D01*
X360196Y559827D02*
X363196D01*
X361696Y558327D02*
Y561327D01*
X236955Y248920D02*
X239955D01*
X238455Y247420D02*
Y250420D01*
X230415Y248920D02*
X233415D01*
X231915Y247420D02*
Y250420D01*
X125500Y459740D02*
X128500D01*
X127000Y458240D02*
Y461240D01*
X100200Y283210D02*
X103200D01*
X101700Y281710D02*
Y284710D01*
M02*
