M48
;Layer_Color=9474304
;FILE_FORMAT=4:4
METRIC,LZ
;TYPE=PLATED
T01F00S00C0.3000
T02F00S00C0.9000
T03F00S00C1.0000
T04F00S00C1.0600
;TYPE=NON_PLATED
T05F00S00C3.5000
%
T01
X00077006Y00193284
Y00202784
X00089706
Y00193284
X00118898Y00214527
X00130601Y00246097
X001017Y0028321
X000763
X00143165Y00330933
X00152665
X00162165
Y00340433
X00152665
Y00349933
X00162165
X00143165
Y00340433
X002032Y00121203
Y00112975
Y00104748
Y0009652
X0024892Y0009277
X00252795Y0005728
X0024384
X00232513Y0013716
X003048Y0016256
X00336305Y00162373
X00365305Y001778
X0036576Y00231685
Y00250264
X00336412Y0024113
X00336305Y00231685
X00406588Y0023876
X00424757
Y0027432
X004064
X00448717Y0033655
X00497163Y00321296
X00506662
X00516162
X00513149Y00287381
X00503649
X00522649
X00523022Y00246019
X00513522
X00504022
X00547955Y00236911
X00491441Y0018796
X00475485
X0049005Y0012192
X0049955
X0050905
X0051855
Y0014965
X0057912Y0014986
X00567024Y00129792
X0057912Y0011049
Y0008509
X00547207Y00069912
X00540247
Y00060412
X00547207
Y00050912
X00540247
X0047874Y0004451
Y00036917
Y00029325
X00467651
X00451829
X0044074Y0004578
Y00054008
Y00062235
Y00070463
X0045974Y00075468
Y00084968
Y00094468
X0046924
X0047874
X0048824
Y00084968
X0047874
X0046924
Y00075468
X0047874
X0048824
X00417262Y00084968
X00381Y00070971
Y00062744
Y00054516
Y00046289
X00238455Y0024892
X00231915
X00496789Y00362658
X00506289
X00515789
X0062992Y0034163
X00665233Y00287381
X00674733
X00684233
X00684606Y00246019
X00675106
X00665606
X0057076Y00436009
Y00442571
X00555825Y0045212
Y0042672
X00541166Y0047452
X0051562Y00474696
Y0046245
X00485201Y00468437
X004757
Y00477937
X00485201
X00487545Y00503283
X00467545
X00444971Y0050833
X00433451Y0049371
X00433572Y0046471
X00450487Y00461195
X0045974Y0045371
X00482551Y00441689
X00487453Y0043151
X00471363Y00417684
X00516636Y00390144
X00421664Y00373389
X00425201Y005334
X00430155Y0055391
X00438385
Y0056214
X00430155
X00445427Y0058989
X00412608Y00589887
X00401804Y00540137
X00395264
X00395255Y00516406
X00361197Y0050951
X00361696Y00559827
Y00566367
X0030975Y0050951
X002667Y005842
X00254254Y00601726
X002369Y0041275
X00499658Y00535515
Y00547434
X00520065Y00523317
X0046784Y00574388
X0008541Y0057912
X00068081
X000763Y0042799
X00127Y0045974
T02
X006604Y0012974
Y0015474
X002919Y006604
X002669
X0016998
X0014498
T03
X0065913Y0037712
Y0040212
Y0042712
Y0045212
Y0047712
Y0050212
Y0052712
Y0055212
X00226633Y00496124
X00201633
X00176633
X00151633
X00126633
X00101633
T04
X0039156Y006604
X0041656
X0044156
X0046656
T05
X0004Y0004
X0066Y0004
Y0066
X0004Y0066
M30
