G04*
G04 #@! TF.GenerationSoftware,Altium Limited,Altium Designer,24.5.2 (23)*
G04*
G04 Layer_Physical_Order=2*
G04 Layer_Color=36540*
%FSLAX44Y44*%
%MOMM*%
G71*
G04*
G04 #@! TF.SameCoordinates,E71CDDC7-94F0-4B5D-9B63-04EB80979921*
G04*
G04*
G04 #@! TF.FilePolarity,Positive*
G04*
G01*
G75*
%ADD129R,1.7000X1.7000*%
%ADD179R,1.7000X1.7000*%
%ADD180C,1.7000*%
%ADD181C,1.5900*%
%ADD183C,0.5000*%
G36*
X694821Y5179D02*
X5179D01*
Y159413D01*
X62660D01*
X64642Y159807D01*
X66322Y160930D01*
X67445Y162610D01*
X67839Y164592D01*
Y546510D01*
X67445Y548492D01*
X66322Y550172D01*
X64642Y551295D01*
X62660Y551689D01*
X5179D01*
Y694821D01*
X694821D01*
Y5179D01*
D02*
G37*
%LPC*%
G36*
X182290Y672710D02*
X157670D01*
Y664528D01*
X156654Y664394D01*
X156451Y665152D01*
X154831Y667959D01*
X152538Y670250D01*
X149732Y671871D01*
X146601Y672710D01*
X143359D01*
X140229Y671871D01*
X137422Y670250D01*
X135130Y667959D01*
X133509Y665152D01*
X132670Y662021D01*
Y658779D01*
X133509Y655648D01*
X135130Y652841D01*
X137422Y650549D01*
X140229Y648929D01*
X143359Y648090D01*
X146601D01*
X149732Y648929D01*
X152538Y650549D01*
X154831Y652841D01*
X156451Y655648D01*
X156654Y656406D01*
X157670Y656272D01*
Y648090D01*
X182290D01*
Y672710D01*
D02*
G37*
G36*
X478320Y672160D02*
X454800D01*
Y648640D01*
X478320D01*
Y672160D01*
D02*
G37*
G36*
X443108D02*
X440012D01*
X437021Y671359D01*
X434339Y669810D01*
X432150Y667621D01*
X430601Y664939D01*
X429800Y661948D01*
Y658852D01*
X430601Y655861D01*
X432150Y653179D01*
X434339Y650990D01*
X437021Y649441D01*
X440012Y648640D01*
X443108D01*
X446099Y649441D01*
X448781Y650990D01*
X450970Y653179D01*
X452519Y655861D01*
X453320Y658852D01*
Y661948D01*
X452519Y664939D01*
X450970Y667621D01*
X448781Y669810D01*
X446099Y671359D01*
X443108Y672160D01*
D02*
G37*
G36*
X418108D02*
X415012D01*
X412021Y671359D01*
X409339Y669810D01*
X407150Y667621D01*
X405601Y664939D01*
X404800Y661948D01*
Y658852D01*
X405601Y655861D01*
X407150Y653179D01*
X409339Y650990D01*
X412021Y649441D01*
X415012Y648640D01*
X418108D01*
X421099Y649441D01*
X423781Y650990D01*
X425970Y653179D01*
X427519Y655861D01*
X428320Y658852D01*
Y661948D01*
X427519Y664939D01*
X425970Y667621D01*
X423781Y669810D01*
X421099Y671359D01*
X418108Y672160D01*
D02*
G37*
G36*
X268521Y672710D02*
X265279D01*
X262148Y671871D01*
X259342Y670250D01*
X257050Y667959D01*
X255429Y665152D01*
X254590Y662021D01*
Y658779D01*
X255429Y655648D01*
X257050Y652841D01*
X259342Y650549D01*
X262148Y648929D01*
X265279Y648090D01*
X268521D01*
X271651Y648929D01*
X274459Y650549D01*
X276751Y652841D01*
X278371Y655648D01*
X279210Y658779D01*
Y662021D01*
X278371Y665152D01*
X276751Y667959D01*
X274459Y670250D01*
X271651Y671871D01*
X268521Y672710D01*
D02*
G37*
G36*
X42516Y685540D02*
X37485D01*
X32550Y684558D01*
X27902Y682633D01*
X23719Y679838D01*
X20162Y676281D01*
X17367Y672098D01*
X15442Y667450D01*
X14460Y662516D01*
Y657485D01*
X15442Y652550D01*
X17367Y647902D01*
X20162Y643719D01*
X23719Y640162D01*
X27902Y637367D01*
X32550Y635442D01*
X37485Y634460D01*
X42516D01*
X47450Y635442D01*
X52098Y637367D01*
X56281Y640162D01*
X59838Y643719D01*
X62633Y647902D01*
X64559Y652550D01*
X65540Y657485D01*
Y662516D01*
X64559Y667450D01*
X62633Y672098D01*
X59838Y676281D01*
X56281Y679838D01*
X52098Y682633D01*
X47450Y684558D01*
X42516Y685540D01*
D02*
G37*
G36*
X662516Y685540D02*
X657485D01*
X652551Y684558D01*
X647903Y682633D01*
X643719Y679838D01*
X640162Y676281D01*
X637367Y672098D01*
X635442Y667450D01*
X634460Y662515D01*
Y657485D01*
X635442Y652550D01*
X637367Y647902D01*
X640162Y643719D01*
X643719Y640162D01*
X647903Y637367D01*
X652551Y635442D01*
X657485Y634460D01*
X662516D01*
X667450Y635442D01*
X672098Y637367D01*
X676281Y640162D01*
X679838Y643719D01*
X682633Y647902D01*
X684559Y652550D01*
X685540Y657485D01*
Y662515D01*
X684559Y667450D01*
X682633Y672098D01*
X679838Y676281D01*
X676281Y679838D01*
X672098Y682633D01*
X667450Y684558D01*
X662516Y685540D01*
D02*
G37*
G36*
X255509Y608036D02*
X252999D01*
X250680Y607075D01*
X248905Y605300D01*
X247944Y602981D01*
Y600471D01*
X248905Y598152D01*
X250680Y596377D01*
X252999Y595416D01*
X255509D01*
X257828Y596377D01*
X259603Y598152D01*
X260564Y600471D01*
Y602981D01*
X259603Y605300D01*
X257828Y607075D01*
X255509Y608036D01*
D02*
G37*
G36*
X267955Y590510D02*
X265445D01*
X263126Y589549D01*
X261351Y587774D01*
X260390Y585455D01*
Y582945D01*
X261351Y580626D01*
X263126Y578851D01*
X265445Y577890D01*
X267955D01*
X270274Y578851D01*
X272049Y580626D01*
X273010Y582945D01*
Y585455D01*
X272049Y587774D01*
X270274Y589549D01*
X267955Y590510D01*
D02*
G37*
G36*
X362951Y572677D02*
X360441D01*
X358122Y571717D01*
X356347Y569942D01*
X355386Y567622D01*
Y565112D01*
X356221Y563097D01*
X355386Y561082D01*
Y558572D01*
X356347Y556253D01*
X358122Y554478D01*
X360441Y553517D01*
X362951D01*
X365270Y554478D01*
X367045Y556253D01*
X368006Y558572D01*
Y561082D01*
X367171Y563097D01*
X368006Y565112D01*
Y567622D01*
X367045Y569942D01*
X365270Y571717D01*
X362951Y572677D01*
D02*
G37*
G36*
X403059Y546447D02*
X400549D01*
X398534Y545612D01*
X396519Y546447D01*
X394009D01*
X391690Y545486D01*
X389915Y543711D01*
X388954Y541392D01*
Y538881D01*
X389915Y536562D01*
X391690Y534787D01*
X394009Y533827D01*
X396519D01*
X398534Y534661D01*
X400549Y533827D01*
X403059D01*
X405378Y534787D01*
X407153Y536562D01*
X408114Y538881D01*
Y541392D01*
X407153Y543711D01*
X405378Y545486D01*
X403059Y546447D01*
D02*
G37*
G36*
X500913Y541825D02*
X498403D01*
X496084Y540864D01*
X494309Y539089D01*
X493348Y536770D01*
Y534259D01*
X494309Y531940D01*
X496084Y530165D01*
X498403Y529205D01*
X500913D01*
X503232Y530165D01*
X505008Y531940D01*
X505968Y534259D01*
Y536770D01*
X505008Y539089D01*
X503232Y540864D01*
X500913Y541825D01*
D02*
G37*
G36*
X426456Y539710D02*
X423946D01*
X421627Y538749D01*
X419852Y536974D01*
X418891Y534655D01*
Y532145D01*
X419852Y529826D01*
X421627Y528051D01*
X423946Y527090D01*
X426456D01*
X428775Y528051D01*
X430550Y529826D01*
X431511Y532145D01*
Y534655D01*
X430550Y536974D01*
X428775Y538749D01*
X426456Y539710D01*
D02*
G37*
G36*
X396511Y522716D02*
X394000D01*
X391681Y521755D01*
X389906Y519980D01*
X388945Y517661D01*
Y515151D01*
X389906Y512832D01*
X391681Y511057D01*
X394000Y510096D01*
X396511D01*
X398830Y511057D01*
X400605Y512832D01*
X401565Y515151D01*
Y517661D01*
X400605Y519980D01*
X398830Y521755D01*
X396511Y522716D01*
D02*
G37*
G36*
X178253Y508433D02*
X175012D01*
X171881Y507594D01*
X169074Y505974D01*
X166782Y503682D01*
X165161Y500875D01*
X164659Y499000D01*
X163607D01*
X163105Y500875D01*
X161484Y503682D01*
X159192Y505974D01*
X156385Y507594D01*
X153254Y508433D01*
X150013D01*
X146882Y507594D01*
X144075Y505974D01*
X141783Y503682D01*
X140163Y500875D01*
X139659Y498995D01*
X138607D01*
X138104Y500875D01*
X136483Y503682D01*
X134191Y505974D01*
X131384Y507594D01*
X128253Y508433D01*
X125012D01*
X121881Y507594D01*
X119074Y505974D01*
X116782Y503682D01*
X115162Y500875D01*
X114659Y499000D01*
X113607D01*
X113105Y500875D01*
X111484Y503682D01*
X109192Y505974D01*
X106385Y507594D01*
X103255Y508433D01*
X100013D01*
X96882Y507594D01*
X94075Y505974D01*
X91784Y503682D01*
X90163Y500875D01*
X89324Y497744D01*
Y494503D01*
X90163Y491372D01*
X91784Y488565D01*
X94075Y486273D01*
X96882Y484652D01*
X100013Y483813D01*
X103255D01*
X106385Y484652D01*
X109192Y486273D01*
X111484Y488565D01*
X113105Y491372D01*
X113607Y493247D01*
X114659D01*
X115162Y491372D01*
X116782Y488565D01*
X119074Y486273D01*
X121881Y484652D01*
X125012Y483813D01*
X128253D01*
X131384Y484652D01*
X134191Y486273D01*
X136483Y488565D01*
X138104Y491372D01*
X138607Y493251D01*
X139659D01*
X140163Y491372D01*
X141783Y488565D01*
X144075Y486273D01*
X146882Y484652D01*
X150013Y483813D01*
X153254D01*
X156385Y484652D01*
X159192Y486273D01*
X161484Y488565D01*
X163105Y491372D01*
X163607Y493247D01*
X164659D01*
X165161Y491372D01*
X166782Y488565D01*
X169074Y486273D01*
X171881Y484652D01*
X175012Y483813D01*
X178253D01*
X181384Y484652D01*
X184191Y486273D01*
X186483Y488565D01*
X188104Y491372D01*
X188943Y494503D01*
Y497744D01*
X188104Y500875D01*
X186483Y503682D01*
X184191Y505974D01*
X181384Y507594D01*
X178253Y508433D01*
D02*
G37*
G36*
X238942D02*
X214322D01*
Y483813D01*
X238942D01*
Y508433D01*
D02*
G37*
G36*
X516875Y481006D02*
X514365D01*
X512046Y480045D01*
X510271Y478270D01*
X509310Y475951D01*
Y473441D01*
X510271Y471122D01*
X512046Y469347D01*
X512687Y469081D01*
Y468065D01*
X512046Y467799D01*
X510271Y466024D01*
X509310Y463705D01*
Y461195D01*
X510271Y458876D01*
X512046Y457101D01*
X514365Y456140D01*
X516875D01*
X519194Y457101D01*
X520969Y458876D01*
X521930Y461195D01*
Y463705D01*
X520969Y466024D01*
X519194Y467799D01*
X518553Y468065D01*
Y469081D01*
X519194Y469347D01*
X520969Y471122D01*
X521930Y473441D01*
Y475951D01*
X520969Y478270D01*
X519194Y480045D01*
X516875Y481006D01*
D02*
G37*
G36*
X128255Y466050D02*
X125745D01*
X123426Y465089D01*
X121651Y463314D01*
X120690Y460995D01*
Y458485D01*
X121651Y456166D01*
X123426Y454391D01*
X125745Y453430D01*
X128255D01*
X130574Y454391D01*
X132349Y456166D01*
X133310Y458485D01*
Y460995D01*
X132349Y463314D01*
X130574Y465089D01*
X128255Y466050D01*
D02*
G37*
G36*
X460995Y460020D02*
X458485D01*
X456166Y459059D01*
X454391Y457284D01*
X453430Y454965D01*
Y452455D01*
X454391Y450136D01*
X456166Y448361D01*
X458485Y447400D01*
X460995D01*
X463314Y448361D01*
X465089Y450136D01*
X466050Y452455D01*
Y454965D01*
X465089Y457284D01*
X463314Y459059D01*
X460995Y460020D01*
D02*
G37*
G36*
X572015Y448881D02*
X569505D01*
X567186Y447920D01*
X565411Y446145D01*
X564450Y443826D01*
Y441316D01*
X565289Y439290D01*
X564450Y437264D01*
Y434754D01*
X565411Y432435D01*
X567186Y430660D01*
X569505Y429699D01*
X572015D01*
X574334Y430660D01*
X576109Y432435D01*
X577070Y434754D01*
Y437264D01*
X576231Y439290D01*
X577070Y441316D01*
Y443826D01*
X576109Y446145D01*
X574334Y447920D01*
X572015Y448881D01*
D02*
G37*
G36*
X483806Y447999D02*
X481296D01*
X478977Y447038D01*
X477202Y445263D01*
X476241Y442944D01*
Y440434D01*
X477202Y438114D01*
X478977Y436339D01*
X481296Y435379D01*
X481804Y434363D01*
X481143Y432766D01*
Y430255D01*
X482103Y427936D01*
X483879Y426161D01*
X486198Y425200D01*
X488708D01*
X491027Y426161D01*
X492802Y427936D01*
X493763Y430255D01*
Y432766D01*
X492802Y435085D01*
X491027Y436860D01*
X488708Y437820D01*
X488200Y438836D01*
X488861Y440434D01*
Y442944D01*
X487901Y445263D01*
X486125Y447038D01*
X483806Y447999D01*
D02*
G37*
G36*
X238155Y419060D02*
X235645D01*
X233326Y418099D01*
X231551Y416324D01*
X230590Y414005D01*
Y411495D01*
X231551Y409176D01*
X233326Y407401D01*
X235645Y406440D01*
X238155D01*
X240474Y407401D01*
X242249Y409176D01*
X243210Y411495D01*
Y414005D01*
X242249Y416324D01*
X240474Y418099D01*
X238155Y419060D01*
D02*
G37*
G36*
X660750Y564429D02*
X657508D01*
X654378Y563590D01*
X651571Y561969D01*
X649278Y559678D01*
X647658Y556870D01*
X646819Y553740D01*
Y550498D01*
X647658Y547368D01*
X649278Y544561D01*
X651571Y542269D01*
X654378Y540648D01*
X656252Y540146D01*
Y539094D01*
X654378Y538591D01*
X651571Y536971D01*
X649278Y534679D01*
X647658Y531872D01*
X646819Y528741D01*
Y525500D01*
X647658Y522369D01*
X649278Y519562D01*
X651571Y517270D01*
X654378Y515649D01*
X656257Y515146D01*
Y514094D01*
X654378Y513590D01*
X651571Y511970D01*
X649278Y509678D01*
X647658Y506871D01*
X646819Y503740D01*
Y500499D01*
X647658Y497368D01*
X649278Y494561D01*
X651571Y492269D01*
X654378Y490648D01*
X656252Y490146D01*
Y489094D01*
X654378Y488591D01*
X651571Y486971D01*
X649278Y484679D01*
X647658Y481872D01*
X646819Y478741D01*
Y475500D01*
X647658Y472369D01*
X649278Y469562D01*
X651571Y467270D01*
X654378Y465649D01*
X656257Y465146D01*
Y464094D01*
X654378Y463590D01*
X651571Y461970D01*
X649278Y459678D01*
X647658Y456871D01*
X646819Y453740D01*
Y450499D01*
X647658Y447368D01*
X649278Y444561D01*
X651571Y442269D01*
X654378Y440648D01*
X656252Y440146D01*
Y439094D01*
X654378Y438592D01*
X651571Y436971D01*
X649278Y434679D01*
X647658Y431872D01*
X646819Y428741D01*
Y425500D01*
X647658Y422369D01*
X649278Y419562D01*
X651571Y417270D01*
X654378Y415649D01*
X656257Y415146D01*
Y414094D01*
X654378Y413590D01*
X651571Y411970D01*
X649278Y409678D01*
X647658Y406871D01*
X646819Y403740D01*
Y400499D01*
X647658Y397368D01*
X649278Y394561D01*
X651571Y392269D01*
X654378Y390648D01*
X657508Y389809D01*
X660750D01*
X663880Y390648D01*
X666687Y392269D01*
X668979Y394561D01*
X670600Y397368D01*
X671439Y400499D01*
Y403740D01*
X670600Y406871D01*
X668979Y409678D01*
X666687Y411970D01*
X663880Y413590D01*
X662001Y414094D01*
Y415146D01*
X663880Y415649D01*
X666687Y417270D01*
X668979Y419562D01*
X670600Y422369D01*
X671439Y425500D01*
Y428741D01*
X670600Y431872D01*
X668979Y434679D01*
X666687Y436971D01*
X663880Y438592D01*
X662006Y439094D01*
Y440146D01*
X663880Y440648D01*
X666687Y442269D01*
X668979Y444561D01*
X670600Y447368D01*
X671439Y450499D01*
Y453740D01*
X670600Y456871D01*
X668979Y459678D01*
X666687Y461970D01*
X663880Y463590D01*
X662001Y464094D01*
Y465146D01*
X663880Y465649D01*
X666687Y467270D01*
X668979Y469562D01*
X670600Y472369D01*
X671439Y475500D01*
Y478741D01*
X670600Y481872D01*
X668979Y484679D01*
X666687Y486971D01*
X663880Y488591D01*
X662006Y489094D01*
Y490146D01*
X663880Y490648D01*
X666687Y492269D01*
X668979Y494561D01*
X670600Y497368D01*
X671439Y500499D01*
Y503740D01*
X670600Y506871D01*
X668979Y509678D01*
X666687Y511970D01*
X663880Y513590D01*
X662001Y514094D01*
Y515146D01*
X663880Y515649D01*
X666687Y517270D01*
X668979Y519562D01*
X670600Y522369D01*
X671439Y525500D01*
Y528741D01*
X670600Y531872D01*
X668979Y534679D01*
X666687Y536971D01*
X663880Y538591D01*
X662006Y539094D01*
Y540146D01*
X663880Y540648D01*
X666687Y542269D01*
X668979Y544561D01*
X670600Y547368D01*
X671439Y550498D01*
Y553740D01*
X670600Y556870D01*
X668979Y559678D01*
X666687Y561969D01*
X663880Y563590D01*
X660750Y564429D01*
D02*
G37*
G36*
X517891Y396454D02*
X515381D01*
X513062Y395493D01*
X511287Y393718D01*
X510326Y391399D01*
Y388889D01*
X511287Y386570D01*
X513062Y384795D01*
X515381Y383834D01*
X517891D01*
X520210Y384795D01*
X521985Y386570D01*
X522946Y388889D01*
Y391399D01*
X521985Y393718D01*
X520210Y395493D01*
X517891Y396454D01*
D02*
G37*
G36*
X449972Y342860D02*
X447462D01*
X445143Y341899D01*
X443368Y340124D01*
X442407Y337805D01*
Y335295D01*
X443368Y332976D01*
X445143Y331201D01*
X447462Y330240D01*
X449972D01*
X452291Y331201D01*
X454067Y332976D01*
X455027Y335295D01*
Y337805D01*
X454067Y340124D01*
X452291Y341899D01*
X449972Y342860D01*
D02*
G37*
G36*
X102955Y289520D02*
X100445D01*
X98126Y288559D01*
X96351Y286784D01*
X95390Y284465D01*
Y281955D01*
X96351Y279636D01*
X98126Y277861D01*
X100445Y276900D01*
X102955D01*
X105274Y277861D01*
X107049Y279636D01*
X108010Y281955D01*
Y284465D01*
X107049Y286784D01*
X105274Y288559D01*
X102955Y289520D01*
D02*
G37*
G36*
X426012Y280630D02*
X423502D01*
X421182Y279669D01*
X419407Y277894D01*
X418447Y275575D01*
Y273065D01*
X419407Y270746D01*
X421182Y268971D01*
X423502Y268010D01*
X426012D01*
X428331Y268971D01*
X430106Y270746D01*
X431067Y273065D01*
Y275575D01*
X430106Y277894D01*
X428331Y279669D01*
X426012Y280630D01*
D02*
G37*
G36*
X407655D02*
X405145D01*
X402826Y279669D01*
X401051Y277894D01*
X400090Y275575D01*
Y273065D01*
X401051Y270746D01*
X402826Y268971D01*
X405145Y268010D01*
X407655D01*
X409974Y268971D01*
X411749Y270746D01*
X412710Y273065D01*
Y275575D01*
X411749Y277894D01*
X409974Y279669D01*
X407655Y280630D01*
D02*
G37*
G36*
X239710Y255230D02*
X237200D01*
X235185Y254396D01*
X233170Y255230D01*
X230660D01*
X228341Y254269D01*
X226566Y252494D01*
X225605Y250175D01*
Y247665D01*
X226566Y245346D01*
X228341Y243571D01*
X230660Y242610D01*
X233170D01*
X235185Y243445D01*
X237200Y242610D01*
X239710D01*
X242029Y243571D01*
X243804Y245346D01*
X244765Y247665D01*
Y250175D01*
X243804Y252494D01*
X242029Y254269D01*
X239710Y255230D01*
D02*
G37*
G36*
X120153Y220837D02*
X117642D01*
X115323Y219876D01*
X113548Y218101D01*
X112588Y215782D01*
Y213271D01*
X113548Y210952D01*
X115323Y209177D01*
X117642Y208216D01*
X120153D01*
X122472Y209177D01*
X124247Y210952D01*
X125208Y213271D01*
Y215782D01*
X124247Y218101D01*
X122472Y219876D01*
X120153Y220837D01*
D02*
G37*
G36*
X90961Y209094D02*
X88451D01*
X86131Y208133D01*
X84356Y206358D01*
X83396Y204039D01*
Y201529D01*
X84356Y199210D01*
X85532Y198034D01*
X84356Y196858D01*
X83396Y194539D01*
Y192029D01*
X84356Y189710D01*
X86131Y187935D01*
X88451Y186974D01*
X90961D01*
X93280Y187935D01*
X95055Y189710D01*
X96016Y192029D01*
Y194539D01*
X95055Y196858D01*
X93879Y198034D01*
X95055Y199210D01*
X96016Y201529D01*
Y204039D01*
X95055Y206358D01*
X93280Y208133D01*
X90961Y209094D01*
D02*
G37*
G36*
X580375Y156170D02*
X577865D01*
X575546Y155209D01*
X573771Y153434D01*
X572810Y151115D01*
Y148605D01*
X573771Y146286D01*
X575546Y144511D01*
X577865Y143550D01*
X580375D01*
X582694Y144511D01*
X584469Y146286D01*
X585430Y148605D01*
Y151115D01*
X584469Y153434D01*
X582694Y155209D01*
X580375Y156170D01*
D02*
G37*
G36*
X519806Y155960D02*
X517295D01*
X514976Y154999D01*
X513201Y153224D01*
X512240Y150905D01*
Y148395D01*
X513201Y146076D01*
X514976Y144301D01*
X517295Y143340D01*
X519806D01*
X522125Y144301D01*
X523900Y146076D01*
X524860Y148395D01*
Y150905D01*
X523900Y153224D01*
X522125Y154999D01*
X519806Y155960D01*
D02*
G37*
G36*
X662021Y167050D02*
X658779D01*
X655648Y166211D01*
X652841Y164590D01*
X650549Y162299D01*
X648929Y159492D01*
X648090Y156361D01*
Y153119D01*
X648929Y149988D01*
X650549Y147182D01*
X652841Y144889D01*
X655648Y143269D01*
X658779Y142430D01*
X662021D01*
X665152Y143269D01*
X667959Y144889D01*
X670250Y147182D01*
X671871Y149988D01*
X672710Y153119D01*
Y156361D01*
X671871Y159492D01*
X670250Y162299D01*
X667959Y164590D01*
X665152Y166211D01*
X662021Y167050D01*
D02*
G37*
G36*
X204455Y127513D02*
X201945D01*
X199626Y126552D01*
X197851Y124777D01*
X196890Y122458D01*
Y119948D01*
X197851Y117628D01*
X198390Y117089D01*
X197851Y116550D01*
X196890Y114230D01*
Y111720D01*
X197851Y109401D01*
X198390Y108861D01*
X197851Y108322D01*
X196890Y106003D01*
Y103492D01*
X197851Y101173D01*
X198390Y100634D01*
X197851Y100094D01*
X196890Y97775D01*
Y95265D01*
X197851Y92946D01*
X199626Y91171D01*
X201945Y90210D01*
X204455D01*
X206774Y91171D01*
X208549Y92946D01*
X209510Y95265D01*
Y97775D01*
X208549Y100094D01*
X208010Y100634D01*
X208549Y101173D01*
X209510Y103492D01*
Y106003D01*
X208549Y108322D01*
X208010Y108861D01*
X208549Y109401D01*
X209510Y111720D01*
Y114230D01*
X208549Y116550D01*
X208010Y117089D01*
X208549Y117628D01*
X209510Y119948D01*
Y122458D01*
X208549Y124777D01*
X206774Y126552D01*
X204455Y127513D01*
D02*
G37*
G36*
X548462Y76222D02*
X545952D01*
X543727Y75300D01*
X541502Y76222D01*
X538992D01*
X536673Y75261D01*
X534898Y73486D01*
X533937Y71167D01*
Y68657D01*
X534898Y66338D01*
X536074Y65162D01*
X534898Y63986D01*
X533937Y61667D01*
Y59157D01*
X534898Y56838D01*
X536074Y55662D01*
X534898Y54486D01*
X533937Y52167D01*
Y49657D01*
X534898Y47338D01*
X536673Y45563D01*
X538992Y44602D01*
X541502D01*
X543727Y45524D01*
X545952Y44602D01*
X548462D01*
X550782Y45563D01*
X552557Y47338D01*
X553517Y49657D01*
Y52167D01*
X552557Y54486D01*
X551381Y55662D01*
X552557Y56838D01*
X553517Y59157D01*
Y61667D01*
X552557Y63986D01*
X551381Y65162D01*
X552557Y66338D01*
X553517Y68657D01*
Y71167D01*
X552557Y73486D01*
X550782Y75261D01*
X548462Y76222D01*
D02*
G37*
G36*
X382255Y77281D02*
X379745D01*
X377426Y76321D01*
X375651Y74546D01*
X374690Y72227D01*
Y69716D01*
X375651Y67397D01*
X376190Y66858D01*
X375651Y66318D01*
X374690Y63999D01*
Y61489D01*
X375651Y59170D01*
X376190Y58630D01*
X375651Y58091D01*
X374690Y55771D01*
Y53261D01*
X375651Y50942D01*
X376190Y50402D01*
X375651Y49863D01*
X374690Y47544D01*
Y45033D01*
X375651Y42714D01*
X377426Y40939D01*
X379745Y39979D01*
X382255D01*
X384574Y40939D01*
X386349Y42714D01*
X387310Y45033D01*
Y47544D01*
X386349Y49863D01*
X385810Y50402D01*
X386349Y50942D01*
X387310Y53261D01*
Y55771D01*
X386349Y58091D01*
X385810Y58630D01*
X386349Y59170D01*
X387310Y61489D01*
Y63999D01*
X386349Y66318D01*
X385810Y66858D01*
X386349Y67397D01*
X387310Y69716D01*
Y72227D01*
X386349Y74546D01*
X384574Y76321D01*
X382255Y77281D01*
D02*
G37*
G36*
X441995Y76773D02*
X439485D01*
X437166Y75812D01*
X435391Y74037D01*
X434430Y71718D01*
Y69208D01*
X435391Y66888D01*
X435930Y66349D01*
X435391Y65809D01*
X434430Y63490D01*
Y60980D01*
X435391Y58661D01*
X435930Y58121D01*
X435391Y57582D01*
X434430Y55263D01*
Y52752D01*
X435391Y50433D01*
X435930Y49894D01*
X435391Y49354D01*
X434430Y47035D01*
Y44525D01*
X435391Y42206D01*
X437166Y40431D01*
X439485Y39470D01*
X441995D01*
X444314Y40431D01*
X446089Y42206D01*
X447050Y44525D01*
Y47035D01*
X446089Y49354D01*
X445550Y49894D01*
X446089Y50433D01*
X447050Y52752D01*
Y55263D01*
X446089Y57582D01*
X445550Y58121D01*
X446089Y58661D01*
X447050Y60980D01*
Y63490D01*
X446089Y65809D01*
X445550Y66349D01*
X446089Y66888D01*
X447050Y69208D01*
Y71718D01*
X446089Y74037D01*
X444314Y75812D01*
X441995Y76773D01*
D02*
G37*
G36*
X479995Y50820D02*
X477485D01*
X475166Y49859D01*
X473391Y48084D01*
X472430Y45765D01*
Y43255D01*
X473391Y40936D01*
X473613Y40714D01*
X473391Y40492D01*
X472430Y38173D01*
Y35662D01*
X473391Y33343D01*
X473613Y33121D01*
X473391Y32899D01*
X472430Y30580D01*
Y28070D01*
X473391Y25750D01*
X475166Y23975D01*
X477485Y23015D01*
X479995D01*
X482314Y23975D01*
X484089Y25750D01*
X485050Y28070D01*
Y30580D01*
X484089Y32899D01*
X483867Y33121D01*
X484089Y33343D01*
X485050Y35662D01*
Y38173D01*
X484089Y40492D01*
X483867Y40714D01*
X484089Y40936D01*
X485050Y43255D01*
Y45765D01*
X484089Y48084D01*
X482314Y49859D01*
X479995Y50820D01*
D02*
G37*
G36*
X42516Y65540D02*
X37485D01*
X32550Y64559D01*
X27902Y62633D01*
X23719Y59838D01*
X20162Y56281D01*
X17367Y52098D01*
X15442Y47450D01*
X14460Y42516D01*
Y37485D01*
X15442Y32550D01*
X17367Y27902D01*
X20162Y23719D01*
X23719Y20162D01*
X27902Y17367D01*
X32550Y15442D01*
X37485Y14460D01*
X42516D01*
X47450Y15442D01*
X52098Y17367D01*
X56281Y20162D01*
X59838Y23719D01*
X62633Y27902D01*
X64559Y32550D01*
X65540Y37485D01*
Y42516D01*
X64559Y47450D01*
X62633Y52098D01*
X59838Y56281D01*
X56281Y59838D01*
X52098Y62633D01*
X47450Y64559D01*
X42516Y65540D01*
D02*
G37*
G36*
X662516Y65540D02*
X657485D01*
X652551Y64558D01*
X647903Y62633D01*
X643719Y59838D01*
X640162Y56281D01*
X637367Y52098D01*
X635442Y47450D01*
X634460Y42515D01*
Y37485D01*
X635442Y32550D01*
X637367Y27902D01*
X640162Y23719D01*
X643719Y20162D01*
X647903Y17367D01*
X652551Y15442D01*
X657485Y14460D01*
X662516D01*
X667450Y15442D01*
X672098Y17367D01*
X676281Y20162D01*
X679838Y23719D01*
X682633Y27902D01*
X684559Y32550D01*
X685540Y37485D01*
Y42515D01*
X684559Y47450D01*
X682633Y52098D01*
X679838Y56281D01*
X676281Y59838D01*
X672098Y62633D01*
X667450Y64558D01*
X662516Y65540D01*
D02*
G37*
%LPD*%
D129*
X660400Y129740D02*
D03*
X659129Y377121D02*
D03*
D179*
X291900Y660400D02*
D03*
D180*
X201634Y496123D02*
D03*
D181*
X391560Y660400D02*
D03*
D183*
X438385Y553910D02*
D03*
Y562140D02*
D03*
X430155D02*
D03*
Y553910D02*
D03*
X445427Y589890D02*
D03*
X412608Y589887D02*
D03*
X471363Y417684D02*
D03*
X475700Y468437D02*
D03*
Y477937D02*
D03*
X485201D02*
D03*
Y468437D02*
D03*
X433451Y493710D02*
D03*
X433572Y464710D02*
D03*
X444971Y508330D02*
D03*
X467840Y574388D02*
D03*
X499658Y547434D02*
D03*
X520065Y523317D02*
D03*
X541166Y474520D02*
D03*
X555825Y426720D02*
D03*
Y452120D02*
D03*
X421664Y373389D02*
D03*
X684606Y246019D02*
D03*
X675106D02*
D03*
X665606D02*
D03*
X684233Y287381D02*
D03*
X674733D02*
D03*
X665233D02*
D03*
X629920Y341630D02*
D03*
X516162Y321296D02*
D03*
X506662D02*
D03*
X497163D02*
D03*
X515789Y362658D02*
D03*
X506289D02*
D03*
X496789D02*
D03*
X503649Y287381D02*
D03*
X513149D02*
D03*
X522649D02*
D03*
X504022Y246019D02*
D03*
X513522D02*
D03*
X523022D02*
D03*
X547955Y236911D02*
D03*
X417262Y84968D02*
D03*
X579120Y85090D02*
D03*
Y110490D02*
D03*
X567024Y129792D02*
D03*
X491441Y187960D02*
D03*
X475485D02*
D03*
X424757Y238760D02*
D03*
X406588D02*
D03*
X365760Y250264D02*
D03*
Y231685D02*
D03*
X336412Y241130D02*
D03*
X336305Y231685D02*
D03*
X304800Y162560D02*
D03*
X365305Y177800D02*
D03*
X336305Y162373D02*
D03*
X232513Y137160D02*
D03*
X248920Y92770D02*
D03*
X243840Y57280D02*
D03*
X252795D02*
D03*
X361197Y509510D02*
D03*
X309750D02*
D03*
X68081Y579120D02*
D03*
X85410D02*
D03*
X76300Y427990D02*
D03*
X130601Y246097D02*
D03*
X77006Y193284D02*
D03*
Y202784D02*
D03*
X76300Y283210D02*
D03*
X143165Y330933D02*
D03*
X152665D02*
D03*
X162165D02*
D03*
Y340433D02*
D03*
X152665D02*
D03*
Y349933D02*
D03*
X162165D02*
D03*
X143165D02*
D03*
Y340433D02*
D03*
X450487Y461195D02*
D03*
X487545Y503283D02*
D03*
X467545D02*
D03*
X451829Y29325D02*
D03*
X467651D02*
D03*
X459740Y84968D02*
D03*
Y94468D02*
D03*
X488240D02*
D03*
X478740D02*
D03*
X469240D02*
D03*
Y84968D02*
D03*
X478740D02*
D03*
X488240D02*
D03*
Y75468D02*
D03*
X478740D02*
D03*
X469240D02*
D03*
X459740D02*
D03*
X490050Y121920D02*
D03*
X499550D02*
D03*
X509050D02*
D03*
X518550D02*
D03*
M02*
