G04*
G04 #@! TF.GenerationSoftware,Altium Limited,Altium Designer,24.5.2 (23)*
G04*
G04 Layer_Color=8388736*
%FSLAX44Y44*%
%MOMM*%
G71*
G04*
G04 #@! TF.SameCoordinates,E71CDDC7-94F0-4B5D-9B63-04EB80979921*
G04*
G04*
G04 #@! TF.FilePolarity,Negative*
G04*
G01*
G75*
%ADD73R,0.5772X0.7550*%
%ADD74R,3.9032X3.9032*%
%ADD75R,1.1032X1.7032*%
%ADD76R,1.7032X1.1032*%
%ADD77R,3.4032X2.7032*%
%ADD78R,1.0032X0.5032*%
%ADD79R,0.5032X1.0032*%
%ADD80R,3.0032X3.0032*%
%ADD81R,0.7450X0.5672*%
%ADD82R,1.1532X1.1032*%
%ADD83R,1.1232X1.0232*%
%ADD84R,0.5672X0.7450*%
%ADD85R,2.9932X2.7732*%
%ADD86R,1.1560X1.6640*%
%ADD87R,1.9832X3.4032*%
%ADD88R,0.8820X1.0090*%
%ADD89R,0.7032X1.2032*%
%ADD90R,1.0090X0.8820*%
%ADD91R,0.7550X0.5772*%
%ADD92R,0.8232X1.4232*%
%ADD93R,1.0922X0.9652*%
%ADD94C,0.4473*%
G04:AMPARAMS|DCode=95|XSize=0.5532mm|YSize=0.8532mm|CornerRadius=0.1524mm|HoleSize=0mm|Usage=FLASHONLY|Rotation=180.000|XOffset=0mm|YOffset=0mm|HoleType=Round|Shape=RoundedRectangle|*
%AMROUNDEDRECTD95*
21,1,0.5532,0.5485,0,0,180.0*
21,1,0.2485,0.8532,0,0,180.0*
1,1,0.3047,-0.1243,0.2742*
1,1,0.3047,0.1243,0.2742*
1,1,0.3047,0.1243,-0.2742*
1,1,0.3047,-0.1243,-0.2742*
%
%ADD95ROUNDEDRECTD95*%
G04:AMPARAMS|DCode=96|XSize=0.8532mm|YSize=0.4532mm|CornerRadius=0.1516mm|HoleSize=0mm|Usage=FLASHONLY|Rotation=180.000|XOffset=0mm|YOffset=0mm|HoleType=Round|Shape=RoundedRectangle|*
%AMROUNDEDRECTD96*
21,1,0.8532,0.1500,0,0,180.0*
21,1,0.5500,0.4532,0,0,180.0*
1,1,0.3032,-0.2750,0.0750*
1,1,0.3032,0.2750,0.0750*
1,1,0.3032,0.2750,-0.0750*
1,1,0.3032,-0.2750,-0.0750*
%
%ADD96ROUNDEDRECTD96*%
G04:AMPARAMS|DCode=97|XSize=0.6532mm|YSize=1.6532mm|CornerRadius=0.1511mm|HoleSize=0mm|Usage=FLASHONLY|Rotation=180.000|XOffset=0mm|YOffset=0mm|HoleType=Round|Shape=RoundedRectangle|*
%AMROUNDEDRECTD97*
21,1,0.6532,1.3510,0,0,180.0*
21,1,0.3510,1.6532,0,0,180.0*
1,1,0.3022,-0.1755,0.6755*
1,1,0.3022,0.1755,0.6755*
1,1,0.3022,0.1755,-0.6755*
1,1,0.3022,-0.1755,-0.6755*
%
%ADD97ROUNDEDRECTD97*%
%ADD98R,0.8032X1.2032*%
%ADD99R,1.6640X1.1560*%
%ADD100R,1.9812X1.7272*%
%ADD101R,1.2032X0.8032*%
%ADD102R,1.1616X1.0316*%
%ADD103R,1.0232X1.1232*%
%ADD104R,1.8032X3.6032*%
%ADD105R,3.0032X2.6032*%
%ADD106R,0.5632X0.4732*%
%ADD107R,1.2032X1.1032*%
%ADD108R,0.4732X0.5632*%
%ADD109R,0.7666X0.3816*%
%ADD110R,0.3816X0.7666*%
%ADD111R,1.8016X1.8016*%
%ADD112R,2.0032X1.2532*%
%ADD113R,2.6032X2.6032*%
%ADD114R,3.9032X1.3032*%
%ADD115R,1.5016X4.6016*%
%ADD116R,1.9032X1.9032*%
%ADD117C,1.9032*%
%ADD118C,1.8016*%
%ADD119R,1.9032X1.9032*%
%ADD120C,1.7932*%
%ADD121R,1.7932X1.7932*%
%ADD122R,1.8016X1.8016*%
%ADD123C,0.2032*%
G36*
X454185Y42832D02*
X454222Y42829D01*
X454222D01*
X454222Y42829D01*
X454300Y42814D01*
X454353Y42803D01*
X454353Y42803D01*
X454353Y42803D01*
X454392Y42790D01*
X454479Y42761D01*
X454479Y42760D01*
X454663Y42684D01*
X454663Y42684D01*
X454782Y42625D01*
X454893Y42551D01*
X454993Y42463D01*
X455134Y42323D01*
X455134Y42323D01*
X455222Y42223D01*
X455296Y42112D01*
X455355Y41993D01*
X455355Y41992D01*
X455431Y41809D01*
X455431Y41809D01*
X455460Y41722D01*
X455474Y41683D01*
X455474Y41683D01*
X455474Y41682D01*
X455484Y41629D01*
X455499Y41552D01*
X455499Y41552D01*
Y41552D01*
X455502Y41515D01*
X455508Y41419D01*
Y41419D01*
Y41419D01*
X455508Y41319D01*
D01*
X455508Y35570D01*
X455508Y35471D01*
X455508Y35470D01*
X455508Y35470D01*
X455505Y35424D01*
X455500Y35338D01*
X455499Y35338D01*
Y35337D01*
X455495Y35314D01*
X455474Y35207D01*
X455474Y35207D01*
X455474Y35207D01*
X455453Y35147D01*
X455431Y35081D01*
X455431Y35081D01*
X455431Y35081D01*
X455355Y34897D01*
X455326Y34840D01*
X455296Y34778D01*
X455296Y34778D01*
D01*
X455222Y34667D01*
X455159Y34595D01*
X455134Y34567D01*
X454994Y34426D01*
X454993Y34426D01*
X454914Y34356D01*
X454893Y34338D01*
X454893Y34338D01*
X454893Y34338D01*
X454850Y34309D01*
X454783Y34264D01*
X454782Y34264D01*
D01*
X454778Y34262D01*
X454663Y34205D01*
X454663Y34205D01*
X454479Y34129D01*
X454479Y34129D01*
X454393Y34100D01*
X454353Y34086D01*
X454353Y34086D01*
X454353Y34086D01*
X454300Y34076D01*
X454222Y34060D01*
X454222Y34060D01*
X454222D01*
X454185Y34058D01*
X454090Y34051D01*
X454089D01*
X454089D01*
X453991Y34051D01*
X453990Y34051D01*
X452490D01*
X452391Y34051D01*
X452391D01*
X452391D01*
X452295Y34058D01*
X452258Y34060D01*
X452258D01*
X452258Y34060D01*
X452180Y34076D01*
X452127Y34086D01*
X452127Y34086D01*
X452127Y34086D01*
X452088Y34100D01*
X452001Y34129D01*
X452001Y34129D01*
X451817Y34205D01*
X451817Y34205D01*
X451698Y34264D01*
X451587Y34338D01*
X451487Y34426D01*
X451346Y34567D01*
X451346Y34567D01*
X451346Y34567D01*
X451258Y34667D01*
X451184Y34778D01*
X451154Y34839D01*
X451125Y34897D01*
X451125Y34897D01*
X451049Y35080D01*
X451049Y35081D01*
X451007Y35207D01*
X451007Y35207D01*
Y35207D01*
X450980Y35337D01*
X450974Y35436D01*
X450972Y35470D01*
Y35570D01*
Y35570D01*
X450972Y38301D01*
X448240D01*
X448141Y38301D01*
X448141D01*
X448140D01*
X448045Y38308D01*
X448008Y38310D01*
X448008D01*
X448008Y38310D01*
X447930Y38326D01*
X447877Y38336D01*
X447877Y38336D01*
X447877Y38336D01*
X447838Y38349D01*
X447751Y38379D01*
X447751Y38379D01*
X447567Y38455D01*
X447567Y38455D01*
X447448Y38514D01*
X447337Y38588D01*
X447237Y38676D01*
X447096Y38816D01*
X447096Y38816D01*
X447096Y38817D01*
X447008Y38917D01*
X446934Y39028D01*
X446904Y39089D01*
X446875Y39147D01*
X446875Y39147D01*
X446799Y39330D01*
X446799Y39331D01*
X446757Y39457D01*
X446757Y39457D01*
Y39457D01*
X446730Y39587D01*
X446724Y39685D01*
X446722Y39720D01*
Y39820D01*
Y39820D01*
Y39820D01*
D01*
X446722Y41320D01*
Y41419D01*
X446731Y41552D01*
X446751Y41656D01*
X446757Y41683D01*
Y41683D01*
X446757Y41683D01*
X446799Y41809D01*
X446799Y41809D01*
X446875Y41992D01*
X446875Y41993D01*
X446914Y42070D01*
X446934Y42112D01*
X446934Y42112D01*
D01*
X446935Y42112D01*
X447008Y42223D01*
X447096Y42323D01*
X447096Y42323D01*
X447096Y42323D01*
X447237Y42463D01*
X447237Y42463D01*
X447237Y42464D01*
X447337Y42551D01*
X447448Y42625D01*
X447509Y42656D01*
X447567Y42684D01*
X447567Y42684D01*
X447751Y42760D01*
X447751Y42760D01*
X447877Y42803D01*
X447877Y42803D01*
X447877D01*
X448008Y42829D01*
X448106Y42836D01*
X448141Y42838D01*
X448240D01*
X448240Y42838D01*
X453990D01*
X454089Y42838D01*
X454089D01*
X454090D01*
X454185Y42832D01*
D02*
G37*
G36*
X471391Y42835D02*
X471472Y42830D01*
X471472Y42830D01*
X471472D01*
X471522Y42820D01*
X471603Y42804D01*
X471603Y42804D01*
X471603Y42804D01*
X471660Y42785D01*
X471729Y42761D01*
X471729Y42761D01*
X471729Y42761D01*
X471913Y42685D01*
X471913Y42685D01*
X471913Y42685D01*
X471969Y42658D01*
X472032Y42626D01*
X472033Y42626D01*
X472033Y42626D01*
X472070Y42601D01*
X472143Y42552D01*
X472143Y42552D01*
X472143Y42552D01*
X472243Y42464D01*
X472384Y42324D01*
X472384Y42324D01*
X472442Y42257D01*
X472472Y42224D01*
X472546Y42113D01*
D01*
X472546Y42113D01*
X472577Y42051D01*
X472605Y41993D01*
X472605Y41993D01*
X472681Y41810D01*
X472681Y41809D01*
X472710Y41723D01*
X472724Y41684D01*
X472724Y41683D01*
X472724Y41683D01*
X472734Y41630D01*
X472750Y41553D01*
X472750Y41553D01*
Y41553D01*
X472752Y41516D01*
X472758Y41420D01*
Y41420D01*
Y41420D01*
X472758Y41321D01*
X472758Y41321D01*
Y41321D01*
D01*
X472758Y39821D01*
X472758Y39721D01*
Y39721D01*
Y39721D01*
X472752Y39625D01*
X472750Y39588D01*
Y39588D01*
X472750Y39588D01*
X472734Y39511D01*
X472724Y39458D01*
X472724Y39458D01*
X472724Y39457D01*
X472710Y39418D01*
X472681Y39332D01*
X472681Y39331D01*
X472605Y39148D01*
X472605Y39148D01*
X472546Y39028D01*
X472472Y38917D01*
X472384Y38817D01*
X472243Y38677D01*
X472243Y38677D01*
X472243Y38677D01*
X472143Y38589D01*
X472033Y38515D01*
X471971Y38484D01*
X471913Y38456D01*
X471913Y38456D01*
X471730Y38380D01*
X471729Y38380D01*
X471603Y38337D01*
X471603Y38337D01*
X471603D01*
X471473Y38311D01*
X471375Y38305D01*
X471340Y38302D01*
X471240D01*
X468508Y38302D01*
X468508Y35571D01*
X468508Y35471D01*
Y35471D01*
Y35471D01*
X468502Y35375D01*
X468500Y35338D01*
Y35338D01*
X468500Y35338D01*
X468484Y35261D01*
X468474Y35208D01*
X468474Y35208D01*
X468474Y35207D01*
X468460Y35168D01*
X468431Y35082D01*
X468431Y35081D01*
X468355Y34898D01*
X468355Y34897D01*
X468296Y34778D01*
X468222Y34667D01*
X468134Y34567D01*
X467994Y34427D01*
X467993Y34427D01*
X467993Y34427D01*
X467893Y34339D01*
X467783Y34265D01*
X467721Y34234D01*
X467663Y34206D01*
X467663Y34206D01*
X467480Y34130D01*
X467479Y34130D01*
X467353Y34087D01*
X467353Y34087D01*
X467353D01*
X467223Y34061D01*
X467124Y34055D01*
X467090Y34052D01*
X466990D01*
X465490Y34052D01*
X465391D01*
X465258Y34061D01*
X465154Y34082D01*
X465127Y34087D01*
X465127D01*
X465127Y34087D01*
X465001Y34130D01*
X465001Y34130D01*
X464818Y34206D01*
X464817Y34206D01*
X464740Y34244D01*
X464698Y34265D01*
X464698Y34265D01*
D01*
X464698Y34265D01*
X464587Y34339D01*
X464487Y34427D01*
X464487Y34427D01*
X464487Y34427D01*
X464347Y34567D01*
X464346Y34567D01*
X464346Y34567D01*
X464259Y34667D01*
X464185Y34778D01*
X464154Y34839D01*
X464126Y34898D01*
X464126Y34898D01*
X464050Y35081D01*
X464050Y35081D01*
X464007Y35208D01*
X464007Y35208D01*
Y35208D01*
X463981Y35338D01*
X463974Y35436D01*
X463972Y35471D01*
Y35570D01*
X463972Y35570D01*
Y41320D01*
X463972Y41420D01*
Y41420D01*
Y41420D01*
X463978Y41515D01*
X463981Y41553D01*
Y41553D01*
X463981Y41553D01*
X463996Y41630D01*
X464007Y41683D01*
X464007Y41683D01*
X464007Y41684D01*
X464020Y41723D01*
X464049Y41809D01*
X464050Y41810D01*
X464126Y41993D01*
X464126Y41993D01*
X464185Y42113D01*
X464259Y42224D01*
X464346Y42324D01*
X464487Y42464D01*
X464487Y42464D01*
X464587Y42552D01*
X464698Y42626D01*
X464817Y42685D01*
X464818Y42685D01*
X465001Y42761D01*
X465001Y42761D01*
X465088Y42791D01*
X465127Y42804D01*
X465127Y42804D01*
X465128Y42804D01*
X465181Y42815D01*
X465258Y42830D01*
X465258Y42830D01*
X465258D01*
X465295Y42832D01*
X465391Y42839D01*
X465391D01*
X465391D01*
X465491Y42839D01*
X471240D01*
X471339Y42839D01*
X471339D01*
X471339D01*
X471391Y42835D01*
D02*
G37*
G36*
X453990Y70089D02*
X454089D01*
X454222Y70080D01*
X454326Y70059D01*
X454353Y70054D01*
X454353D01*
X454353Y70054D01*
X454479Y70011D01*
X454479Y70011D01*
X454663Y69935D01*
X454663Y69935D01*
X454741Y69896D01*
X454782Y69876D01*
X454782Y69876D01*
D01*
X454783Y69876D01*
X454893Y69802D01*
X454993Y69714D01*
X454993Y69714D01*
X454993Y69714D01*
X455134Y69573D01*
X455134Y69573D01*
X455134Y69573D01*
X455222Y69473D01*
X455296Y69363D01*
X455326Y69301D01*
X455355Y69243D01*
X455355Y69243D01*
X455431Y69060D01*
X455431Y69059D01*
X455474Y68933D01*
X455474Y68933D01*
Y68933D01*
X455499Y68803D01*
X455506Y68705D01*
X455508Y68670D01*
Y68571D01*
X455508Y68570D01*
Y62821D01*
X455508Y62721D01*
Y62721D01*
Y62721D01*
X455502Y62625D01*
X455499Y62588D01*
Y62588D01*
X455499Y62588D01*
X455484Y62511D01*
X455474Y62458D01*
X455474Y62457D01*
X455474Y62457D01*
X455460Y62418D01*
X455431Y62332D01*
X455431Y62331D01*
X455355Y62148D01*
X455355Y62147D01*
X455296Y62028D01*
X455222Y61917D01*
X455134Y61817D01*
X454993Y61677D01*
X454993Y61677D01*
X454893Y61589D01*
X454782Y61515D01*
X454663Y61456D01*
X454663Y61456D01*
X454479Y61380D01*
X454479Y61379D01*
X454392Y61350D01*
X454353Y61337D01*
X454353Y61337D01*
X454353Y61337D01*
X454300Y61326D01*
X454222Y61311D01*
X454222Y61311D01*
X454222D01*
X454185Y61308D01*
X454090Y61302D01*
X454089D01*
X454089D01*
X453990Y61302D01*
X448241D01*
X448141Y61302D01*
X448141Y61302D01*
X448141Y61302D01*
X448095Y61305D01*
X448008Y61311D01*
X448008Y61311D01*
X448008D01*
X447985Y61315D01*
X447878Y61337D01*
X447877Y61337D01*
X447877Y61337D01*
X447817Y61357D01*
X447751Y61379D01*
X447751Y61379D01*
X447751Y61380D01*
X447567Y61456D01*
X447510Y61484D01*
X447448Y61515D01*
X447448Y61515D01*
D01*
X447337Y61589D01*
X447265Y61652D01*
X447237Y61676D01*
X447096Y61817D01*
X447096Y61817D01*
X447026Y61897D01*
X447009Y61917D01*
X447008Y61917D01*
X447008Y61917D01*
X446979Y61961D01*
X446934Y62028D01*
X446934Y62028D01*
D01*
X446932Y62033D01*
X446875Y62147D01*
X446875Y62147D01*
X446799Y62331D01*
X446799Y62331D01*
X446770Y62418D01*
X446757Y62457D01*
X446757Y62457D01*
X446756Y62457D01*
X446746Y62510D01*
X446730Y62588D01*
X446730Y62588D01*
Y62588D01*
X446728Y62625D01*
X446722Y62721D01*
Y62721D01*
Y62721D01*
X446722Y62820D01*
X446722Y62820D01*
Y62820D01*
Y64320D01*
X446722Y64419D01*
Y64420D01*
Y64420D01*
X446728Y64515D01*
X446730Y64552D01*
Y64552D01*
X446730Y64553D01*
X446746Y64630D01*
X446756Y64683D01*
X446757Y64683D01*
X446757Y64683D01*
X446770Y64723D01*
X446799Y64809D01*
X446799Y64809D01*
X446875Y64993D01*
X446875Y64993D01*
X446934Y65113D01*
X447008Y65223D01*
X447096Y65324D01*
X447237Y65464D01*
X447237Y65464D01*
X447237Y65464D01*
X447337Y65552D01*
X447448Y65626D01*
X447509Y65656D01*
X447567Y65685D01*
X447567Y65685D01*
X447751Y65761D01*
X447751Y65761D01*
X447877Y65804D01*
X447877Y65804D01*
X447877D01*
X448008Y65830D01*
X448106Y65836D01*
X448140Y65838D01*
X448240D01*
X448240Y65838D01*
X450972D01*
Y68570D01*
X450972Y68670D01*
Y68670D01*
Y68670D01*
X450978Y68765D01*
X450980Y68802D01*
Y68802D01*
X450980Y68803D01*
X450996Y68880D01*
X451006Y68933D01*
X451007Y68933D01*
X451007Y68933D01*
X451020Y68973D01*
X451049Y69059D01*
X451049Y69060D01*
X451125Y69243D01*
X451125Y69243D01*
X451184Y69363D01*
X451258Y69473D01*
X451346Y69573D01*
X451487Y69714D01*
X451487Y69714D01*
X451487Y69714D01*
X451587Y69802D01*
X451698Y69876D01*
X451759Y69906D01*
X451817Y69935D01*
X451817Y69935D01*
X452001Y70011D01*
X452001Y70011D01*
X452127Y70054D01*
X452127Y70054D01*
X452127D01*
X452258Y70080D01*
X452356Y70086D01*
X452391Y70089D01*
X452490D01*
X452490Y70089D01*
X452490D01*
D01*
X453990Y70089D01*
D02*
G37*
G36*
X467185Y70082D02*
X467222Y70080D01*
X467222D01*
X467222Y70080D01*
X467300Y70064D01*
X467353Y70054D01*
X467353Y70054D01*
X467353Y70054D01*
X467392Y70040D01*
X467479Y70011D01*
X467479Y70011D01*
X467663Y69935D01*
X467663Y69935D01*
X467782Y69876D01*
X467893Y69802D01*
X467993Y69714D01*
X468134Y69573D01*
X468134Y69573D01*
X468134Y69573D01*
X468222Y69473D01*
X468296Y69363D01*
X468326Y69301D01*
X468354Y69243D01*
X468355Y69243D01*
X468430Y69060D01*
X468431Y69059D01*
X468473Y68933D01*
X468474Y68933D01*
Y68933D01*
X468499Y68803D01*
X468506Y68705D01*
X468508Y68670D01*
Y68571D01*
X468508Y68570D01*
Y65838D01*
X471240Y65838D01*
X471339Y65838D01*
X471339D01*
X471339D01*
X471435Y65832D01*
X471472Y65830D01*
X471472D01*
X471472Y65830D01*
X471550Y65814D01*
X471603Y65804D01*
X471603Y65804D01*
X471603Y65804D01*
X471642Y65790D01*
X471729Y65761D01*
X471729Y65761D01*
X471912Y65685D01*
X471913Y65685D01*
X472032Y65626D01*
X472143Y65552D01*
X472243Y65464D01*
X472384Y65324D01*
X472384Y65323D01*
X472384Y65323D01*
X472472Y65223D01*
X472546Y65113D01*
X472576Y65051D01*
X472604Y64993D01*
X472605Y64993D01*
X472681Y64810D01*
X472681Y64809D01*
X472723Y64683D01*
X472724Y64683D01*
Y64683D01*
X472749Y64553D01*
X472756Y64454D01*
X472758Y64420D01*
Y64321D01*
X472758Y64320D01*
Y64320D01*
D01*
X472758Y62820D01*
Y62721D01*
X472749Y62588D01*
X472729Y62484D01*
X472723Y62457D01*
Y62457D01*
X472723Y62457D01*
X472681Y62331D01*
X472681Y62331D01*
X472605Y62148D01*
X472604Y62147D01*
X472566Y62070D01*
X472546Y62028D01*
X472546Y62028D01*
D01*
X472545Y62028D01*
X472472Y61917D01*
X472384Y61817D01*
X472384Y61817D01*
X472384Y61817D01*
X472243Y61677D01*
X472243Y61676D01*
X472243Y61676D01*
X472143Y61589D01*
X472032Y61515D01*
X471971Y61484D01*
X471913Y61456D01*
X471913Y61456D01*
X471729Y61380D01*
X471729Y61380D01*
X471603Y61337D01*
X471603Y61337D01*
X471603D01*
X471472Y61311D01*
X471374Y61304D01*
X471339Y61302D01*
X471240D01*
X465490Y61302D01*
D01*
X465391Y61302D01*
X465391D01*
X465391D01*
X465295Y61308D01*
X465258Y61311D01*
X465258D01*
X465258Y61311D01*
X465180Y61326D01*
X465127Y61337D01*
X465127Y61337D01*
X465127Y61337D01*
X465088Y61350D01*
X465001Y61379D01*
X465001Y61380D01*
X464817Y61456D01*
X464817Y61456D01*
X464698Y61515D01*
X464587Y61589D01*
X464487Y61676D01*
X464346Y61817D01*
X464346Y61817D01*
X464258Y61917D01*
X464184Y62028D01*
X464125Y62147D01*
X464125Y62148D01*
X464049Y62331D01*
X464049Y62331D01*
X464020Y62418D01*
X464007Y62457D01*
X464006Y62457D01*
X464006Y62458D01*
X463996Y62511D01*
X463980Y62588D01*
X463980Y62588D01*
Y62588D01*
X463978Y62625D01*
X463972Y62721D01*
Y62721D01*
Y62721D01*
X463972Y62821D01*
Y68570D01*
X463972Y68669D01*
X463972Y68669D01*
X463972Y68670D01*
X463975Y68716D01*
X463980Y68802D01*
X463980Y68802D01*
Y68802D01*
X463985Y68826D01*
X464006Y68933D01*
X464006Y68933D01*
X464006Y68933D01*
X464027Y68993D01*
X464049Y69059D01*
X464049Y69059D01*
X464049Y69059D01*
X464125Y69243D01*
X464154Y69300D01*
X464184Y69362D01*
X464184Y69363D01*
D01*
X464258Y69473D01*
X464321Y69545D01*
X464346Y69573D01*
X464487Y69714D01*
X464487Y69714D01*
X464566Y69784D01*
X464587Y69802D01*
X464587Y69802D01*
X464587Y69802D01*
X464630Y69831D01*
X464697Y69876D01*
X464697Y69876D01*
D01*
X464702Y69878D01*
X464817Y69935D01*
X464817Y69935D01*
X465001Y70011D01*
X465001Y70011D01*
X465088Y70040D01*
X465127Y70054D01*
X465127Y70054D01*
X465127Y70054D01*
X465180Y70064D01*
X465257Y70080D01*
X465258Y70080D01*
X465258D01*
X465295Y70082D01*
X465390Y70089D01*
X465391D01*
X465391D01*
X465489Y70089D01*
X465490Y70089D01*
X465490D01*
X465490D01*
D01*
X466990Y70089D01*
X467089Y70089D01*
X467089D01*
X467089D01*
X467185Y70082D01*
D02*
G37*
D73*
X417262Y72293D02*
D03*
X426660D02*
D03*
X78240Y246100D02*
D03*
X87638D02*
D03*
X109502Y246098D02*
D03*
X118900D02*
D03*
X556433Y129792D02*
D03*
X547035Y129792D02*
D03*
X493676Y64860D02*
D03*
X503074D02*
D03*
Y49026D02*
D03*
X493676D02*
D03*
X426660Y57746D02*
D03*
X417262D02*
D03*
X280543Y41170D02*
D03*
X271145D02*
D03*
X522351Y474696D02*
D03*
X531749D02*
D03*
X522349Y462450D02*
D03*
X531747D02*
D03*
X531749Y447040D02*
D03*
X522351D02*
D03*
X433451Y486210D02*
D03*
X442849D02*
D03*
X442847Y473710D02*
D03*
X433449D02*
D03*
D74*
X152500Y340600D02*
D03*
D75*
X241400Y443100D02*
D03*
X76300Y268100D02*
D03*
X89000D02*
D03*
X101700D02*
D03*
X114400D02*
D03*
X127100D02*
D03*
X139800D02*
D03*
X152500D02*
D03*
X165200D02*
D03*
X177900D02*
D03*
X190600D02*
D03*
X203300D02*
D03*
X216000D02*
D03*
X228700D02*
D03*
X241400D02*
D03*
X228700Y443100D02*
D03*
X216000D02*
D03*
X203300D02*
D03*
X190600D02*
D03*
X177900D02*
D03*
X165200D02*
D03*
X152500D02*
D03*
X139800D02*
D03*
X127100D02*
D03*
X114400D02*
D03*
X101700D02*
D03*
X89000D02*
D03*
X76300D02*
D03*
D76*
X253900Y285800D02*
D03*
Y298500D02*
D03*
X253900Y311200D02*
D03*
X253900Y323900D02*
D03*
Y336600D02*
D03*
Y349300D02*
D03*
Y362000D02*
D03*
X253900Y374700D02*
D03*
X253900Y387400D02*
D03*
Y400100D02*
D03*
Y412800D02*
D03*
Y425500D02*
D03*
D77*
X351790Y24270D02*
D03*
Y105270D02*
D03*
D78*
X500060Y461210D02*
D03*
Y466210D02*
D03*
Y471210D02*
D03*
Y476210D02*
D03*
Y481210D02*
D03*
Y486210D02*
D03*
X460060D02*
D03*
Y481210D02*
D03*
Y476210D02*
D03*
Y471210D02*
D03*
Y466210D02*
D03*
Y461210D02*
D03*
D79*
X492560Y493710D02*
D03*
X487560D02*
D03*
X482560D02*
D03*
X477560D02*
D03*
X472560D02*
D03*
X467560D02*
D03*
Y453710D02*
D03*
X472560D02*
D03*
X477560D02*
D03*
X482560D02*
D03*
X487560D02*
D03*
X492560D02*
D03*
D80*
X480060Y473710D02*
D03*
D81*
X266700Y601599D02*
D03*
Y592201D02*
D03*
X68081Y587717D02*
D03*
X68081Y597115D02*
D03*
X434340Y353440D02*
D03*
Y362838D02*
D03*
X496060Y435229D02*
D03*
Y425831D02*
D03*
X414102Y525804D02*
D03*
Y516406D02*
D03*
D82*
X137920Y599440D02*
D03*
X169420D02*
D03*
D83*
X85410Y589940D02*
D03*
Y608940D02*
D03*
X105410Y599440D02*
D03*
X566814Y168650D02*
D03*
Y149650D02*
D03*
X546814Y159150D02*
D03*
D84*
X59572Y608914D02*
D03*
X68969D02*
D03*
X109500Y232252D02*
D03*
X118898D02*
D03*
X139999Y232254D02*
D03*
X130601Y232254D02*
D03*
D85*
X513336Y266700D02*
D03*
X577736D02*
D03*
D86*
X547929Y220700D02*
D03*
X568249D02*
D03*
X566974Y110490D02*
D03*
X546654D02*
D03*
X566974Y85090D02*
D03*
X546654D02*
D03*
X615950Y341630D02*
D03*
X595630D02*
D03*
D87*
X627044Y220700D02*
D03*
X676844D02*
D03*
D88*
X90559Y231266D02*
D03*
X75319D02*
D03*
X75319Y214527D02*
D03*
X90559D02*
D03*
X430342Y40816D02*
D03*
X415102D02*
D03*
X248985Y103556D02*
D03*
X264225D02*
D03*
X217273Y121727D02*
D03*
X232513D02*
D03*
X217271Y103557D02*
D03*
X232511D02*
D03*
X484710Y523317D02*
D03*
X469470D02*
D03*
D89*
X171315Y232254D02*
D03*
X156315Y232254D02*
D03*
D90*
X475485Y163794D02*
D03*
Y179034D02*
D03*
X382580Y231685D02*
D03*
X382580Y216445D02*
D03*
X424757Y265503D02*
D03*
Y250263D02*
D03*
X406588Y265504D02*
D03*
X406588Y250264D02*
D03*
D91*
X491441Y176113D02*
D03*
Y166715D02*
D03*
X491443Y140804D02*
D03*
Y131406D02*
D03*
X320195Y202667D02*
D03*
X320195Y212065D02*
D03*
X421664Y353440D02*
D03*
Y362838D02*
D03*
X471290Y435229D02*
D03*
Y425831D02*
D03*
X444971Y516409D02*
D03*
Y525807D02*
D03*
X433572Y525804D02*
D03*
Y516406D02*
D03*
X368905Y497589D02*
D03*
Y488191D02*
D03*
D92*
X509050Y161690D02*
D03*
X518550Y161690D02*
D03*
X528050Y161690D02*
D03*
Y135490D02*
D03*
X518550D02*
D03*
X509050D02*
D03*
D93*
X433612Y100305D02*
D03*
Y85065D02*
D03*
X449038D02*
D03*
Y100305D02*
D03*
X448717Y361441D02*
D03*
Y346201D02*
D03*
D94*
X452803Y40132D02*
D03*
X466678Y40133D02*
D03*
X452803Y64008D02*
D03*
X466678Y64008D02*
D03*
D95*
X459740Y38320D02*
D03*
Y65820D02*
D03*
D96*
X450990Y57070D02*
D03*
Y52070D02*
D03*
Y47070D02*
D03*
X468490D02*
D03*
Y52070D02*
D03*
Y57070D02*
D03*
D97*
X459740Y52070D02*
D03*
D98*
X280620Y57280D02*
D03*
X271120Y57280D02*
D03*
X261620Y57280D02*
D03*
Y81280D02*
D03*
X271120D02*
D03*
X280620D02*
D03*
D99*
X381000Y160020D02*
D03*
Y139700D02*
D03*
D100*
X351790Y136973D02*
D03*
Y162373D02*
D03*
X321310Y136974D02*
D03*
Y162374D02*
D03*
D101*
X336305Y202589D02*
D03*
X336305Y212089D02*
D03*
X336305Y221589D02*
D03*
X360305D02*
D03*
X360305Y212089D02*
D03*
X360305Y202589D02*
D03*
D102*
X382580Y249849D02*
D03*
X382580Y283550D02*
D03*
D103*
X467601Y380200D02*
D03*
X448601D02*
D03*
X458101Y400200D02*
D03*
D104*
X501601Y390389D02*
D03*
X566601D02*
D03*
D105*
X552476Y341977D02*
D03*
X506476D02*
D03*
D106*
X562360Y426720D02*
D03*
X570760D02*
D03*
X562360Y452120D02*
D03*
X570760D02*
D03*
D107*
X486340Y563188D02*
D03*
X467840D02*
D03*
Y547688D02*
D03*
X486340D02*
D03*
D108*
X439018Y589992D02*
D03*
Y598393D02*
D03*
X419018Y589990D02*
D03*
Y598390D02*
D03*
D109*
X448603Y550462D02*
D03*
Y555463D02*
D03*
Y560462D02*
D03*
Y565463D02*
D03*
X419601D02*
D03*
Y560462D02*
D03*
Y555463D02*
D03*
Y550462D02*
D03*
D110*
X441603Y572463D02*
D03*
X436601D02*
D03*
X431603D02*
D03*
X426601D02*
D03*
Y543461D02*
D03*
X431603D02*
D03*
X436601D02*
D03*
X441603D02*
D03*
D111*
X434102Y557962D02*
D03*
X660400Y129740D02*
D03*
D112*
X345440Y509510D02*
D03*
Y476010D02*
D03*
X294640Y509510D02*
D03*
Y476010D02*
D03*
D113*
X628919Y266700D02*
D03*
X674919D02*
D03*
D114*
X216510Y69976D02*
D03*
Y39976D02*
D03*
D115*
X350001Y266699D02*
D03*
X318001Y266700D02*
D03*
D116*
X226632Y496123D02*
D03*
D117*
X201634D02*
D03*
X176632D02*
D03*
X151634D02*
D03*
X101634D02*
D03*
X126633D02*
D03*
X659129Y552119D02*
D03*
Y477121D02*
D03*
Y502119D02*
D03*
Y527120D02*
D03*
Y452119D02*
D03*
Y427121D02*
D03*
Y402119D02*
D03*
D118*
X660400Y154740D02*
D03*
X266900Y660400D02*
D03*
X144980D02*
D03*
D119*
X659129Y377121D02*
D03*
D120*
X391560Y660400D02*
D03*
X416560D02*
D03*
X441560D02*
D03*
D121*
X466560D02*
D03*
D122*
X291900D02*
D03*
X169980D02*
D03*
D123*
X40000Y660000D02*
D03*
X660000Y660000D02*
D03*
X40000Y40000D02*
D03*
X660000Y40000D02*
D03*
M02*
