G04*
G04 #@! TF.GenerationSoftware,Altium Limited,Altium Designer,24.5.2 (23)*
G04*
G04 Layer_Color=255*
%FSLAX44Y44*%
%MOMM*%
G71*
G04*
G04 #@! TF.SameCoordinates,E71CDDC7-94F0-4B5D-9B63-04EB80979921*
G04*
G04*
G04 #@! TF.FilePolarity,Positive*
G04*
G01*
G75*
%ADD36R,0.4572X0.6350*%
%ADD37R,3.7000X3.7000*%
%ADD38R,0.9000X1.5000*%
%ADD39R,1.5000X0.9000*%
%ADD40R,3.2000X2.5000*%
%ADD41R,0.8000X0.3000*%
%ADD42R,0.3000X0.8000*%
%ADD43R,2.8000X2.8000*%
%ADD44R,0.6350X0.4572*%
%ADD45R,0.9500X0.9000*%
%ADD46R,0.9200X0.8200*%
%ADD47R,2.7900X2.5700*%
%ADD48R,1.0160X1.5240*%
%ADD49R,1.7800X3.2000*%
%ADD50R,0.7620X0.8890*%
%ADD51R,0.5000X1.0000*%
%ADD52R,0.8890X0.7620*%
%ADD53R,0.6200X1.2200*%
%ADD54C,0.2441*%
G04:AMPARAMS|DCode=55|XSize=0.35mm|YSize=0.65mm|CornerRadius=0.0508mm|HoleSize=0mm|Usage=FLASHONLY|Rotation=180.000|XOffset=0mm|YOffset=0mm|HoleType=Round|Shape=RoundedRectangle|*
%AMROUNDEDRECTD55*
21,1,0.3500,0.5485,0,0,180.0*
21,1,0.2485,0.6500,0,0,180.0*
1,1,0.1015,-0.1243,0.2742*
1,1,0.1015,0.1243,0.2742*
1,1,0.1015,0.1243,-0.2742*
1,1,0.1015,-0.1243,-0.2742*
%
%ADD55ROUNDEDRECTD55*%
G04:AMPARAMS|DCode=56|XSize=0.65mm|YSize=0.25mm|CornerRadius=0.05mm|HoleSize=0mm|Usage=FLASHONLY|Rotation=180.000|XOffset=0mm|YOffset=0mm|HoleType=Round|Shape=RoundedRectangle|*
%AMROUNDEDRECTD56*
21,1,0.6500,0.1500,0,0,180.0*
21,1,0.5500,0.2500,0,0,180.0*
1,1,0.1000,-0.2750,0.0750*
1,1,0.1000,0.2750,0.0750*
1,1,0.1000,0.2750,-0.0750*
1,1,0.1000,-0.2750,-0.0750*
%
%ADD56ROUNDEDRECTD56*%
G04:AMPARAMS|DCode=57|XSize=0.45mm|YSize=1.45mm|CornerRadius=0.0495mm|HoleSize=0mm|Usage=FLASHONLY|Rotation=180.000|XOffset=0mm|YOffset=0mm|HoleType=Round|Shape=RoundedRectangle|*
%AMROUNDEDRECTD57*
21,1,0.4500,1.3510,0,0,180.0*
21,1,0.3510,1.4500,0,0,180.0*
1,1,0.0990,-0.1755,0.6755*
1,1,0.0990,0.1755,0.6755*
1,1,0.0990,0.1755,-0.6755*
1,1,0.0990,-0.1755,-0.6755*
%
%ADD57ROUNDEDRECTD57*%
%ADD58R,0.6000X1.0000*%
%ADD59R,1.5240X1.0160*%
%ADD60R,1.7780X1.5240*%
%ADD61R,1.0000X0.6000*%
%ADD62R,1.0600X0.9300*%
%ADD63R,0.8200X0.9200*%
%ADD64R,1.6000X3.4000*%
%ADD65R,2.8000X2.4000*%
%ADD66R,0.3600X0.2700*%
%ADD67R,1.0000X0.9000*%
%ADD68R,0.2700X0.3600*%
%ADD69R,1.8000X1.0500*%
%ADD70R,2.4000X2.4000*%
%ADD71R,3.7000X1.1000*%
%ADD72R,1.4000X4.5000*%
%ADD127R,0.6650X0.2800*%
%ADD128R,0.2800X0.6650*%
%ADD129R,1.7000X1.7000*%
%ADD179R,1.7000X1.7000*%
%ADD180C,1.7000*%
%ADD181C,1.5900*%
%ADD182R,1.5900X1.5900*%
D36*
X417262Y72293D02*
D03*
X426660D02*
D03*
X59572Y608914D02*
D03*
X68969D02*
D03*
X78240Y246100D02*
D03*
X87638D02*
D03*
X109502Y246098D02*
D03*
X118900D02*
D03*
X109500Y232252D02*
D03*
X118898D02*
D03*
X139999Y232254D02*
D03*
X130601Y232254D02*
D03*
X556433Y129792D02*
D03*
X547035Y129792D02*
D03*
X493676Y64860D02*
D03*
X503074D02*
D03*
Y49026D02*
D03*
X493676D02*
D03*
X426660Y57746D02*
D03*
X417262D02*
D03*
X280543Y41170D02*
D03*
X271145D02*
D03*
X522351Y474696D02*
D03*
X531749D02*
D03*
X522349Y462450D02*
D03*
X531747D02*
D03*
X531749Y447040D02*
D03*
X522351D02*
D03*
X433451Y486210D02*
D03*
X442849D02*
D03*
X442847Y473710D02*
D03*
X433449D02*
D03*
D37*
X152500Y340600D02*
D03*
D38*
X241400Y443100D02*
D03*
X76300Y268100D02*
D03*
X89000D02*
D03*
X101700D02*
D03*
X114400D02*
D03*
X127100D02*
D03*
X139800D02*
D03*
X152500D02*
D03*
X165200D02*
D03*
X177900D02*
D03*
X190600D02*
D03*
X203300D02*
D03*
X216000D02*
D03*
X228700D02*
D03*
X241400D02*
D03*
X228700Y443100D02*
D03*
X216000D02*
D03*
X203300D02*
D03*
X190600D02*
D03*
X177900D02*
D03*
X165200D02*
D03*
X152500D02*
D03*
X139800D02*
D03*
X127100D02*
D03*
X114400D02*
D03*
X101700D02*
D03*
X89000D02*
D03*
X76300D02*
D03*
D39*
X253900Y285800D02*
D03*
Y298500D02*
D03*
X253900Y311200D02*
D03*
X253900Y323900D02*
D03*
Y336600D02*
D03*
Y349300D02*
D03*
Y362000D02*
D03*
X253900Y374700D02*
D03*
X253900Y387400D02*
D03*
Y400100D02*
D03*
Y412800D02*
D03*
Y425500D02*
D03*
D40*
X351790Y24270D02*
D03*
Y105270D02*
D03*
D41*
X500060Y461210D02*
D03*
Y466210D02*
D03*
Y471210D02*
D03*
Y476210D02*
D03*
Y481210D02*
D03*
Y486210D02*
D03*
X460060D02*
D03*
Y481210D02*
D03*
Y476210D02*
D03*
Y471210D02*
D03*
Y466210D02*
D03*
Y461210D02*
D03*
D42*
X492560Y493710D02*
D03*
X487560D02*
D03*
X482560D02*
D03*
X477560D02*
D03*
X472560D02*
D03*
X467560D02*
D03*
Y453710D02*
D03*
X472560D02*
D03*
X477560D02*
D03*
X482560D02*
D03*
X487560D02*
D03*
X492560D02*
D03*
D43*
X480060Y473710D02*
D03*
D44*
X266700Y601599D02*
D03*
Y592201D02*
D03*
X68081Y587717D02*
D03*
X68081Y597115D02*
D03*
X491441Y176113D02*
D03*
Y166715D02*
D03*
X491443Y140804D02*
D03*
Y131406D02*
D03*
X320195Y202667D02*
D03*
X320195Y212065D02*
D03*
X434340Y353440D02*
D03*
Y362838D02*
D03*
X421664Y353440D02*
D03*
Y362838D02*
D03*
X471290Y435229D02*
D03*
Y425831D02*
D03*
X496060Y435229D02*
D03*
Y425831D02*
D03*
X444971Y516409D02*
D03*
Y525807D02*
D03*
X433572Y525804D02*
D03*
Y516406D02*
D03*
X414102Y525804D02*
D03*
Y516406D02*
D03*
X368905Y497589D02*
D03*
Y488191D02*
D03*
D45*
X137920Y599440D02*
D03*
X169420D02*
D03*
D46*
X85410Y589940D02*
D03*
Y608940D02*
D03*
X105410Y599440D02*
D03*
X566814Y168650D02*
D03*
Y149650D02*
D03*
X546814Y159150D02*
D03*
D47*
X513336Y266700D02*
D03*
X577736D02*
D03*
D48*
X547929Y220700D02*
D03*
X568249D02*
D03*
X566974Y110490D02*
D03*
X546654D02*
D03*
X566974Y85090D02*
D03*
X546654D02*
D03*
X615950Y341630D02*
D03*
X595630D02*
D03*
D49*
X627044Y220700D02*
D03*
X676844D02*
D03*
D50*
X90559Y231266D02*
D03*
X75319D02*
D03*
X75319Y214527D02*
D03*
X90559D02*
D03*
X430342Y40816D02*
D03*
X415102D02*
D03*
X248985Y103556D02*
D03*
X264225D02*
D03*
X217273Y121727D02*
D03*
X232513D02*
D03*
X217271Y103557D02*
D03*
X232511D02*
D03*
X484710Y523317D02*
D03*
X469470D02*
D03*
D51*
X171315Y232254D02*
D03*
X156315Y232254D02*
D03*
D52*
X475485Y163794D02*
D03*
Y179034D02*
D03*
X433612Y100305D02*
D03*
Y85065D02*
D03*
X449038D02*
D03*
Y100305D02*
D03*
X382580Y231685D02*
D03*
X382580Y216445D02*
D03*
X424757Y265503D02*
D03*
Y250263D02*
D03*
X406588Y265504D02*
D03*
X406588Y250264D02*
D03*
X448717Y361441D02*
D03*
Y346201D02*
D03*
D53*
X509050Y161690D02*
D03*
X518550Y161690D02*
D03*
X528050Y161690D02*
D03*
Y135490D02*
D03*
X518550D02*
D03*
X509050D02*
D03*
D54*
X452803Y40132D02*
D03*
X466678Y40133D02*
D03*
X452803Y64008D02*
D03*
X466678Y64008D02*
D03*
D55*
X459740Y38320D02*
D03*
Y65820D02*
D03*
D56*
X450990Y57070D02*
D03*
Y52070D02*
D03*
Y47070D02*
D03*
X468490D02*
D03*
Y52070D02*
D03*
Y57070D02*
D03*
D57*
X459740Y52070D02*
D03*
D58*
X280620Y57280D02*
D03*
X271120Y57280D02*
D03*
X261620Y57280D02*
D03*
Y81280D02*
D03*
X271120D02*
D03*
X280620D02*
D03*
D59*
X381000Y160020D02*
D03*
Y139700D02*
D03*
D60*
X351790Y136973D02*
D03*
Y162373D02*
D03*
X321310Y136974D02*
D03*
Y162374D02*
D03*
D61*
X336305Y202589D02*
D03*
X336305Y212089D02*
D03*
X336305Y221589D02*
D03*
X360305D02*
D03*
X360305Y212089D02*
D03*
X360305Y202589D02*
D03*
D62*
X382580Y249849D02*
D03*
X382580Y283550D02*
D03*
D63*
X467601Y380200D02*
D03*
X448601D02*
D03*
X458101Y400200D02*
D03*
D64*
X501601Y390389D02*
D03*
X566601D02*
D03*
D65*
X552476Y341977D02*
D03*
X506476D02*
D03*
D66*
X562360Y426720D02*
D03*
X570760D02*
D03*
X562360Y452120D02*
D03*
X570760D02*
D03*
D67*
X486340Y563188D02*
D03*
X467840D02*
D03*
Y547688D02*
D03*
X486340D02*
D03*
D68*
X439018Y589992D02*
D03*
Y598393D02*
D03*
X419018Y589990D02*
D03*
Y598390D02*
D03*
D69*
X345440Y509510D02*
D03*
Y476010D02*
D03*
X294640Y509510D02*
D03*
Y476010D02*
D03*
D70*
X628919Y266700D02*
D03*
X674919D02*
D03*
D71*
X216510Y69976D02*
D03*
Y39976D02*
D03*
D72*
X350001Y266699D02*
D03*
X318001Y266700D02*
D03*
D127*
X448603Y550462D02*
D03*
Y555463D02*
D03*
Y560462D02*
D03*
Y565463D02*
D03*
X419601D02*
D03*
Y560462D02*
D03*
Y555463D02*
D03*
Y550462D02*
D03*
D128*
X441603Y572463D02*
D03*
X436601D02*
D03*
X431603D02*
D03*
X426601D02*
D03*
Y543461D02*
D03*
X431603D02*
D03*
X436601D02*
D03*
X441603D02*
D03*
D129*
X434102Y557962D02*
D03*
X660400Y129740D02*
D03*
X659129Y377121D02*
D03*
D179*
X226632Y496123D02*
D03*
X291900Y660400D02*
D03*
X169980D02*
D03*
D180*
X201634Y496123D02*
D03*
X176632D02*
D03*
X151634D02*
D03*
X101634D02*
D03*
X126633D02*
D03*
X660400Y154740D02*
D03*
X659129Y552119D02*
D03*
Y477121D02*
D03*
Y502119D02*
D03*
Y527120D02*
D03*
Y452119D02*
D03*
Y427121D02*
D03*
Y402119D02*
D03*
X266900Y660400D02*
D03*
X144980D02*
D03*
D181*
X391560D02*
D03*
X416560D02*
D03*
X441560D02*
D03*
D182*
X466560D02*
D03*
M02*
