G04*
G04 #@! TF.GenerationSoftware,Altium Limited,Altium Designer,24.5.2 (23)*
G04*
G04 Layer_Physical_Order=1*
G04 Layer_Color=255*
%FSLAX44Y44*%
%MOMM*%
G71*
G04*
G04 #@! TF.SameCoordinates,E71CDDC7-94F0-4B5D-9B63-04EB80979921*
G04*
G04*
G04 #@! TF.FilePolarity,Positive*
G04*
G01*
G75*
%ADD13C,0.1778*%
%ADD15C,0.2540*%
%ADD36R,0.4572X0.6350*%
%ADD37R,3.7000X3.7000*%
%ADD38R,0.9000X1.5000*%
%ADD39R,1.5000X0.9000*%
%ADD40R,3.2000X2.5000*%
%ADD41R,0.8000X0.3000*%
%ADD42R,0.3000X0.8000*%
%ADD43R,2.8000X2.8000*%
%ADD44R,0.6350X0.4572*%
%ADD45R,0.9500X0.9000*%
%ADD46R,0.9200X0.8200*%
%ADD47R,2.7900X2.5700*%
%ADD48R,1.0160X1.5240*%
%ADD49R,1.7800X3.2000*%
%ADD50R,0.7620X0.8890*%
%ADD51R,0.5000X1.0000*%
%ADD52R,0.8890X0.7620*%
%ADD53R,0.6200X1.2200*%
%ADD54C,0.2441*%
G04:AMPARAMS|DCode=55|XSize=0.35mm|YSize=0.65mm|CornerRadius=0.0508mm|HoleSize=0mm|Usage=FLASHONLY|Rotation=180.000|XOffset=0mm|YOffset=0mm|HoleType=Round|Shape=RoundedRectangle|*
%AMROUNDEDRECTD55*
21,1,0.3500,0.5485,0,0,180.0*
21,1,0.2485,0.6500,0,0,180.0*
1,1,0.1015,-0.1243,0.2742*
1,1,0.1015,0.1243,0.2742*
1,1,0.1015,0.1243,-0.2742*
1,1,0.1015,-0.1243,-0.2742*
%
%ADD55ROUNDEDRECTD55*%
G04:AMPARAMS|DCode=56|XSize=0.65mm|YSize=0.25mm|CornerRadius=0.05mm|HoleSize=0mm|Usage=FLASHONLY|Rotation=180.000|XOffset=0mm|YOffset=0mm|HoleType=Round|Shape=RoundedRectangle|*
%AMROUNDEDRECTD56*
21,1,0.6500,0.1500,0,0,180.0*
21,1,0.5500,0.2500,0,0,180.0*
1,1,0.1000,-0.2750,0.0750*
1,1,0.1000,0.2750,0.0750*
1,1,0.1000,0.2750,-0.0750*
1,1,0.1000,-0.2750,-0.0750*
%
%ADD56ROUNDEDRECTD56*%
G04:AMPARAMS|DCode=57|XSize=0.45mm|YSize=1.45mm|CornerRadius=0.0495mm|HoleSize=0mm|Usage=FLASHONLY|Rotation=180.000|XOffset=0mm|YOffset=0mm|HoleType=Round|Shape=RoundedRectangle|*
%AMROUNDEDRECTD57*
21,1,0.4500,1.3510,0,0,180.0*
21,1,0.3510,1.4500,0,0,180.0*
1,1,0.0990,-0.1755,0.6755*
1,1,0.0990,0.1755,0.6755*
1,1,0.0990,0.1755,-0.6755*
1,1,0.0990,-0.1755,-0.6755*
%
%ADD57ROUNDEDRECTD57*%
%ADD58R,0.6000X1.0000*%
%ADD59R,1.5240X1.0160*%
%ADD60R,1.7780X1.5240*%
%ADD61R,1.0000X0.6000*%
%ADD62R,1.0600X0.9300*%
%ADD63R,0.8200X0.9200*%
%ADD64R,1.6000X3.4000*%
%ADD65R,2.8000X2.4000*%
%ADD66R,0.3600X0.2700*%
%ADD67R,1.0000X0.9000*%
%ADD68R,0.2700X0.3600*%
%ADD69R,1.8000X1.0500*%
%ADD70R,2.4000X2.4000*%
%ADD71R,3.7000X1.1000*%
%ADD72R,1.4000X4.5000*%
%ADD124C,0.5080*%
%ADD125C,0.3810*%
%ADD126C,0.2032*%
%ADD127R,0.6650X0.2800*%
%ADD128R,0.2800X0.6650*%
%ADD129R,1.7000X1.7000*%
%ADD130C,0.7620*%
%ADD131R,5.4855X0.6784*%
%ADD132R,0.8536X3.7318*%
%ADD133R,0.3500X2.2318*%
%ADD134R,3.0799X1.7072*%
%ADD135R,7.6644X4.1915*%
%ADD136R,1.0160X8.6331*%
%ADD137R,0.9869X8.6331*%
%ADD138R,3.1484X0.4572*%
%ADD139R,5.2347X9.5469*%
%ADD140R,5.5492X0.4572*%
%ADD141R,0.3000X1.6021*%
%ADD142R,6.2234X4.3180*%
%ADD143R,1.5000X0.3000*%
%ADD144R,0.3000X1.5000*%
%ADD145R,0.8000X0.8000*%
%ADD146R,4.6100X1.3557*%
%ADD147R,4.2109X8.6770*%
%ADD148R,8.0209X3.6821*%
%ADD149R,10.0529X1.7000*%
%ADD150R,2.1108X1.0699*%
%ADD151R,0.7262X2.2920*%
%ADD152R,1.2840X0.2500*%
%ADD153R,0.3500X1.6730*%
%ADD154R,2.1143X2.8398*%
%ADD155R,2.6669X0.7500*%
%ADD156R,1.0668X3.9097*%
%ADD157R,2.7472X0.2500*%
%ADD158R,0.4500X4.2398*%
%ADD159R,0.4686X2.4867*%
%ADD160R,1.7703X0.7620*%
%ADD161R,1.6076X12.1939*%
%ADD162R,2.3883X0.6370*%
%ADD163R,0.3100X2.4160*%
%ADD164R,2.6464X1.2740*%
%ADD165R,4.1110X1.3411*%
%ADD166R,8.6201X2.7505*%
%ADD167R,3.0666X8.0111*%
%ADD168R,3.9277X12.5554*%
%ADD169R,6.9451X1.5500*%
%ADD170R,2.4285X0.6000*%
%ADD171R,7.8706X11.7860*%
%ADD172R,4.2790X9.0460*%
%ADD173R,3.7000X2.6964*%
%ADD174R,2.5613X6.1696*%
%ADD175R,7.6110X1.1000*%
%ADD176R,0.6000X2.4285*%
%ADD177R,1.8603X0.6350*%
%ADD178R,0.6350X1.7261*%
%ADD179R,1.7000X1.7000*%
%ADD180C,1.7000*%
%ADD181C,1.5900*%
%ADD182R,1.5900X1.5900*%
%ADD183C,0.5000*%
G36*
X694821Y240692D02*
X694690Y240584D01*
X651900D01*
X650413Y240289D01*
X649153Y239447D01*
X648311Y238186D01*
X648015Y236700D01*
Y146240D01*
X648311Y144753D01*
X649153Y143493D01*
X650413Y142651D01*
X651900Y142355D01*
X694690D01*
X694821Y142248D01*
Y5179D01*
X501142D01*
Y42041D01*
X509170D01*
Y56011D01*
X507998D01*
X507984Y56116D01*
X507161Y58102D01*
X505852Y59808D01*
X504146Y61117D01*
X502160Y61940D01*
X500460Y62164D01*
X500028Y62249D01*
X499772D01*
Y71845D01*
X487580D01*
Y68780D01*
X469281D01*
X469243Y68972D01*
X469165Y69363D01*
X469089Y69547D01*
X469089Y69547D01*
X469089Y69547D01*
X468842Y69917D01*
X468696Y70135D01*
X468696Y70135D01*
X468696Y70135D01*
X468555Y70276D01*
X467967Y70669D01*
X467783Y70745D01*
X467783Y70745D01*
X467783Y70745D01*
X467472Y70807D01*
X467090Y70883D01*
X467089Y70883D01*
X467089Y70883D01*
X466990Y70883D01*
X465490Y70883D01*
X465490Y70883D01*
X465391Y70883D01*
X465391Y70883D01*
X465390Y70883D01*
X465008Y70807D01*
X464933Y70792D01*
X464917Y70790D01*
X464913Y70788D01*
X464697Y70745D01*
X464697Y70745D01*
X464697Y70745D01*
X464513Y70669D01*
X464513Y70669D01*
X464513Y70669D01*
X464243Y70489D01*
X463925Y70276D01*
X463925Y70276D01*
X463924Y70276D01*
X463784Y70135D01*
X463588Y69842D01*
X463391Y69547D01*
X463315Y69363D01*
X463315Y69363D01*
X463315Y69363D01*
X463248Y69026D01*
X463177Y68670D01*
X463177Y68669D01*
X463177Y68669D01*
X463177Y68569D01*
Y67779D01*
X463015Y67670D01*
X462591Y67035D01*
X462413Y66857D01*
X462317Y66625D01*
X461892Y65990D01*
X461743Y65241D01*
X461647Y65009D01*
Y64757D01*
X461498Y64008D01*
X461647Y63259D01*
Y63007D01*
X461743Y62775D01*
X461892Y62026D01*
X462317Y61391D01*
X462413Y61158D01*
X462591Y60980D01*
X462629Y60922D01*
X461680Y59502D01*
X461346Y57820D01*
Y56320D01*
X461680Y54638D01*
X461726Y54570D01*
X461680Y54502D01*
X461346Y52820D01*
Y51320D01*
X461680Y49638D01*
X461726Y49570D01*
X461680Y49502D01*
X461346Y47820D01*
Y46428D01*
X461281Y46256D01*
X460480Y45465D01*
X459000D01*
X458199Y46256D01*
X458134Y46428D01*
Y47820D01*
X457800Y49502D01*
X457754Y49570D01*
X457800Y49638D01*
X458134Y51320D01*
Y52820D01*
X457800Y54502D01*
X457754Y54570D01*
X457800Y54638D01*
X458134Y56320D01*
Y57820D01*
X457800Y59502D01*
X456847Y60927D01*
X456846Y60937D01*
X457067Y61158D01*
X457833Y63007D01*
Y65009D01*
X457364Y66142D01*
Y78698D01*
X458079Y79769D01*
X458375Y81255D01*
Y88875D01*
X458079Y90362D01*
X457293Y91538D01*
Y92685D01*
X454865D01*
X454490Y92760D01*
X443245D01*
X443237Y92770D01*
Y106580D01*
X464945D01*
X465445Y106680D01*
X465955D01*
X466381Y106765D01*
X466381D01*
X466852Y106960D01*
X466927Y106975D01*
X466990Y107017D01*
X468248Y107538D01*
X468963Y108252D01*
X469677Y108967D01*
X470198Y110225D01*
X470240Y110288D01*
X470255Y110363D01*
X470450Y110834D01*
Y110834D01*
X470535Y111260D01*
Y111770D01*
X470634Y112270D01*
Y134300D01*
X471040Y134634D01*
X474104D01*
Y118682D01*
X474112Y118639D01*
X474541Y115383D01*
X475814Y112309D01*
X477840Y109669D01*
X480480Y107644D01*
X483554Y106370D01*
X486809Y105942D01*
X486853Y105933D01*
X521650D01*
X521761Y105955D01*
X524813Y106357D01*
X527760Y107578D01*
X530291Y109520D01*
X530811Y110197D01*
X531773Y109871D01*
Y45851D01*
X532069Y44364D01*
X532911Y43104D01*
X534171Y42262D01*
X535658Y41966D01*
X551734D01*
X553221Y42262D01*
X554481Y43104D01*
X555323Y44364D01*
X555619Y45851D01*
Y167790D01*
X555323Y169277D01*
X554481Y170537D01*
X553221Y171379D01*
X551734Y171675D01*
X524950D01*
X524575Y171600D01*
X517330D01*
Y177701D01*
X558329D01*
Y161690D01*
X558404Y161315D01*
Y160740D01*
X558518D01*
X558625Y160203D01*
X559467Y158943D01*
X560017Y158576D01*
X559708Y157560D01*
X558404D01*
Y141740D01*
X575224D01*
Y144033D01*
X576699D01*
X577865Y143550D01*
X580375D01*
X582694Y144511D01*
X584469Y146286D01*
X585430Y148605D01*
Y151115D01*
X584469Y153434D01*
X582694Y155209D01*
X580375Y156170D01*
X577865D01*
X576699Y155687D01*
X575942D01*
X575224Y156405D01*
X575224Y157560D01*
X576138Y157805D01*
X640919D01*
X642406Y158101D01*
X643666Y158943D01*
X644508Y160203D01*
X644804Y161690D01*
Y279550D01*
X644729Y279925D01*
Y282510D01*
X643347D01*
X642406Y283139D01*
X640919Y283435D01*
X562214D01*
X561838Y283360D01*
X559976D01*
Y282637D01*
X559467Y282297D01*
X558625Y281037D01*
X558329Y279550D01*
Y208379D01*
X500890D01*
X500390Y208280D01*
X499880D01*
X499454Y208195D01*
X499454D01*
X498983Y208000D01*
X498908Y207985D01*
X498845Y207943D01*
X497587Y207422D01*
X496872Y206707D01*
X496158Y205993D01*
X495637Y204735D01*
X495595Y204672D01*
X495580Y204597D01*
X495385Y204126D01*
Y204126D01*
X495300Y203700D01*
Y203190D01*
X495201Y202690D01*
Y174180D01*
X471040D01*
X470634Y174513D01*
Y344331D01*
X470535Y344832D01*
Y345342D01*
X470450Y345767D01*
Y345767D01*
X470255Y346239D01*
X470240Y346314D01*
X470198Y346377D01*
X469677Y347635D01*
X468963Y348349D01*
X468248Y349063D01*
X466990Y349584D01*
X466927Y349627D01*
X466852Y349642D01*
X466381Y349837D01*
X466381D01*
X465955Y349921D01*
X465445D01*
X464945Y350021D01*
X456972D01*
Y353821D01*
Y369061D01*
X454544D01*
Y371790D01*
X456511D01*
Y388610D01*
X440691D01*
Y371790D01*
X442890D01*
Y369061D01*
X440462D01*
Y368934D01*
X427355D01*
Y359536D01*
X416152D01*
Y390421D01*
X460155D01*
X460561Y389407D01*
X460026Y388610D01*
X459691D01*
Y387321D01*
X459616Y386945D01*
Y373389D01*
X459691Y373013D01*
Y371790D01*
X459987D01*
X460754Y370642D01*
X462014Y369800D01*
X463501Y369504D01*
X509601D01*
X509976Y369579D01*
X513411D01*
Y373013D01*
X513485Y373389D01*
Y383705D01*
X514330Y384269D01*
X515381Y383834D01*
X517891D01*
X520210Y384795D01*
X521985Y386570D01*
X522946Y388889D01*
Y391399D01*
X521985Y393718D01*
X520210Y395493D01*
X517891Y396454D01*
X515381D01*
X514255Y395988D01*
X513411Y396552D01*
Y411199D01*
X489791D01*
Y390830D01*
X466145D01*
X466011Y391790D01*
X466337Y392671D01*
X466387Y392722D01*
X466413Y392761D01*
X466413Y392761D01*
X466414Y392761D01*
X466609Y393233D01*
X466866Y393618D01*
X466957Y394072D01*
X466970Y394104D01*
X466986Y394128D01*
X466992Y394157D01*
X467187Y394628D01*
Y394628D01*
X467187Y394629D01*
X467281Y395100D01*
Y395610D01*
X467380Y396110D01*
Y429058D01*
X472544D01*
X472715Y427756D01*
X473636Y425533D01*
X475100Y423625D01*
X477008Y422161D01*
X479231Y421240D01*
X481382Y420957D01*
X481615Y420910D01*
X489075D01*
Y419735D01*
X503045D01*
Y420652D01*
X530479D01*
Y420645D01*
X530673Y420564D01*
X530754Y420370D01*
X530760D01*
Y396240D01*
X530763Y396227D01*
X531154Y393256D01*
X532306Y390476D01*
X534138Y388088D01*
X536526Y386256D01*
X539306Y385104D01*
X542277Y384713D01*
X542290Y384711D01*
X554716D01*
Y370915D01*
X538476D01*
X536989Y370619D01*
X535729Y369777D01*
X534887Y368517D01*
X534591Y367030D01*
Y323850D01*
X534887Y322363D01*
X535729Y321103D01*
X536989Y320261D01*
X538476Y319965D01*
X600710D01*
X602197Y320261D01*
X603457Y321103D01*
X604299Y322363D01*
X604595Y323850D01*
Y369504D01*
X638810D01*
X640297Y369800D01*
X641557Y370642D01*
X642399Y371902D01*
X642695Y373389D01*
Y389735D01*
X659130D01*
X659501Y389809D01*
X660750D01*
X663880Y390648D01*
X666687Y392269D01*
X668979Y394561D01*
X670600Y397368D01*
X671439Y400499D01*
Y403740D01*
X670600Y406871D01*
X668979Y409678D01*
X666687Y411970D01*
X663880Y413590D01*
X662001Y414094D01*
Y415146D01*
X663880Y415649D01*
X666687Y417270D01*
X668979Y419562D01*
X670600Y422369D01*
X671439Y425500D01*
Y428741D01*
X670600Y431872D01*
X668979Y434679D01*
X666687Y436971D01*
X663880Y438592D01*
X662006Y439094D01*
Y440146D01*
X663880Y440648D01*
X666687Y442269D01*
X668979Y444561D01*
X670600Y447368D01*
X671439Y450499D01*
Y453740D01*
X670600Y456871D01*
X668979Y459678D01*
X666687Y461970D01*
X663880Y463590D01*
X662001Y464094D01*
Y465146D01*
X663880Y465649D01*
X666687Y467270D01*
X668979Y469562D01*
X670600Y472369D01*
X671439Y475500D01*
Y478741D01*
X670600Y481872D01*
X668979Y484679D01*
X666687Y486971D01*
X663880Y488591D01*
X662006Y489094D01*
Y490146D01*
X663880Y490648D01*
X666687Y492269D01*
X668979Y494561D01*
X670600Y497368D01*
X671439Y500499D01*
Y503740D01*
X670600Y506871D01*
X668979Y509678D01*
X666687Y511970D01*
X663880Y513590D01*
X662001Y514094D01*
Y515146D01*
X663880Y515649D01*
X666687Y517270D01*
X668979Y519562D01*
X670600Y522369D01*
X671439Y525500D01*
Y528741D01*
X670600Y531872D01*
X668979Y534679D01*
X666687Y536971D01*
X663880Y538591D01*
X662006Y539094D01*
Y540146D01*
X663880Y540648D01*
X666687Y542269D01*
X668979Y544561D01*
X670600Y547368D01*
X671439Y550498D01*
Y553740D01*
X670600Y556870D01*
X668979Y559678D01*
X666687Y561969D01*
X663880Y563590D01*
X660750Y564429D01*
X657508D01*
X654378Y563590D01*
X651571Y561969D01*
X649278Y559678D01*
X647658Y556870D01*
X646819Y553740D01*
Y550498D01*
X647658Y547368D01*
X649278Y544561D01*
X651571Y542269D01*
X654378Y540648D01*
X656252Y540146D01*
Y539094D01*
X654378Y538591D01*
X651571Y536971D01*
X649278Y534679D01*
X647658Y531872D01*
X646819Y528741D01*
Y525500D01*
X647658Y522369D01*
X649278Y519562D01*
X651571Y517270D01*
X654378Y515649D01*
X656257Y515146D01*
Y514094D01*
X654378Y513590D01*
X651571Y511970D01*
X649278Y509678D01*
X647658Y506871D01*
X646819Y503740D01*
Y500499D01*
X647658Y497368D01*
X649278Y494561D01*
X651571Y492269D01*
X654378Y490648D01*
X656252Y490146D01*
Y489094D01*
X654378Y488591D01*
X651571Y486971D01*
X649278Y484679D01*
X647658Y481872D01*
X646819Y478741D01*
Y475500D01*
X647658Y472369D01*
X649278Y469562D01*
X651571Y467270D01*
X654378Y465649D01*
X656257Y465146D01*
Y464094D01*
X654378Y463590D01*
X651571Y461970D01*
X649278Y459678D01*
X647658Y456871D01*
X646819Y453740D01*
Y450499D01*
X647658Y447368D01*
X647767Y447180D01*
X647180Y446163D01*
X576900D01*
X576370Y446960D01*
Y457280D01*
X570858D01*
X570760Y457299D01*
X570662Y457280D01*
X565150D01*
Y446960D01*
X565150Y446960D01*
X565327Y445944D01*
X564450Y443826D01*
Y441316D01*
X565289Y439290D01*
X564450Y437264D01*
Y434754D01*
X565220Y432896D01*
X565150Y431880D01*
X565150Y431880D01*
X565150Y431880D01*
Y421560D01*
X570662D01*
X570760Y421540D01*
X570858Y421560D01*
X576370D01*
Y431487D01*
X646720D01*
X647339Y430680D01*
X646819Y428741D01*
Y425500D01*
X647658Y422369D01*
X649278Y419562D01*
X651571Y417270D01*
X654378Y415649D01*
X654858Y415521D01*
X654724Y414505D01*
X558601D01*
X557114Y414209D01*
X555854Y413367D01*
X555012Y412107D01*
X554831Y411199D01*
X554791D01*
Y410995D01*
X554716Y410620D01*
Y395070D01*
X542290D01*
X542181Y395048D01*
X541415Y395365D01*
X541098Y396131D01*
X541119Y396240D01*
Y420370D01*
X541094Y420497D01*
X540749Y423122D01*
X539687Y425686D01*
X537997Y427888D01*
X535795Y429578D01*
X533231Y430640D01*
X530606Y430985D01*
X530479Y431011D01*
X503045D01*
Y441325D01*
X501197D01*
Y442702D01*
X502213Y443096D01*
X504369Y442203D01*
X506566Y441914D01*
X506834Y441861D01*
X516255D01*
Y440055D01*
X528447D01*
Y454025D01*
X516255D01*
Y452220D01*
X507650D01*
Y455900D01*
X507870D01*
Y460144D01*
X508726Y460579D01*
X509724Y460196D01*
X510271Y458876D01*
X512046Y457101D01*
X514365Y456140D01*
X516253D01*
Y455465D01*
X528445D01*
Y467711D01*
X528447D01*
Y481681D01*
X516944D01*
X516265Y482697D01*
X516631Y483579D01*
X516952Y486023D01*
X516990Y486210D01*
Y506257D01*
X516962Y506394D01*
X516621Y508988D01*
X515566Y511533D01*
X513890Y513718D01*
X511704Y515395D01*
X509159Y516449D01*
X506566Y516791D01*
X506428Y516818D01*
X477090D01*
Y523145D01*
X477165Y523521D01*
Y528092D01*
X477836Y529040D01*
X499658D01*
X500485Y529205D01*
X500913D01*
X501309Y529369D01*
X502136Y529533D01*
X502836Y530001D01*
X503232Y530165D01*
X503536Y530468D01*
X504236Y530937D01*
X504705Y531637D01*
X505008Y531940D01*
X505172Y532336D01*
X505640Y533037D01*
X505804Y533863D01*
X505968Y534259D01*
Y534688D01*
X506133Y535515D01*
X505968Y536341D01*
Y536770D01*
X505804Y537166D01*
X505640Y537992D01*
X505172Y538693D01*
X505008Y539089D01*
X504705Y539392D01*
X504236Y540093D01*
X503536Y540561D01*
X503232Y540864D01*
X502836Y541028D01*
X502136Y541496D01*
X501309Y541661D01*
X500913Y541825D01*
X500485D01*
X499658Y541989D01*
X476650D01*
Y550672D01*
X478369D01*
X480202Y551037D01*
X481757Y552075D01*
X484560Y554878D01*
X495150D01*
Y571498D01*
X477530D01*
Y561400D01*
X476384Y560254D01*
X455738D01*
Y570673D01*
X446813D01*
Y579598D01*
X436440D01*
Y592783D01*
X444178D01*
Y598294D01*
X444197Y598393D01*
X444178Y598491D01*
Y604003D01*
X436440D01*
Y616040D01*
X436440Y616040D01*
X436399Y616251D01*
Y648736D01*
X437415Y649336D01*
X440012Y648640D01*
X443108D01*
X446099Y649441D01*
X448781Y650990D01*
X450970Y653179D01*
X452519Y655861D01*
X453320Y658852D01*
Y661948D01*
X452519Y664939D01*
X450970Y667621D01*
X448781Y669810D01*
X446099Y671359D01*
X443108Y672160D01*
X440012D01*
X437021Y671359D01*
X434339Y669810D01*
X432150Y667621D01*
X430601Y664939D01*
X429800Y661948D01*
Y660614D01*
X428848Y660226D01*
X428737Y660248D01*
X428320Y660675D01*
Y661948D01*
X427519Y664939D01*
X425970Y667621D01*
X423781Y669810D01*
X421099Y671359D01*
X418108Y672160D01*
X415012D01*
X412021Y671359D01*
X409339Y669810D01*
X407150Y667621D01*
X405601Y664939D01*
X404800Y661948D01*
Y658852D01*
X405601Y655861D01*
X407150Y653179D01*
X409339Y650990D01*
X412021Y649441D01*
X415012Y648640D01*
X418108D01*
X420705Y649336D01*
X421721Y648736D01*
Y614294D01*
X421763Y614083D01*
Y604000D01*
X413858D01*
Y598488D01*
X413838Y598390D01*
X413858Y598292D01*
Y592780D01*
X421763D01*
Y579598D01*
X421391D01*
Y570673D01*
X412466D01*
Y570301D01*
X395272D01*
X366571Y570416D01*
X365270Y571717D01*
X362951Y572677D01*
X360441D01*
X358122Y571717D01*
X356347Y569942D01*
X355386Y567622D01*
Y565112D01*
X356221Y563097D01*
X355386Y561082D01*
Y558572D01*
X356347Y556253D01*
X358122Y554478D01*
X360441Y553517D01*
X362951D01*
X365270Y554478D01*
X366532Y555739D01*
X392794Y555634D01*
X393241Y554722D01*
X392794Y554139D01*
X391493Y550997D01*
X391049Y547624D01*
X391060D01*
Y544857D01*
X389915Y543711D01*
X388954Y541392D01*
Y538881D01*
X389915Y536562D01*
X391690Y534787D01*
X394009Y533827D01*
X396519D01*
X398534Y534661D01*
X400549Y533827D01*
X403059D01*
X405378Y534787D01*
X407153Y536562D01*
X407906Y538380D01*
X408922Y538178D01*
Y531900D01*
X407117D01*
Y531631D01*
X386358D01*
X386277Y531615D01*
X383136Y531201D01*
X380133Y529958D01*
X377555Y527979D01*
X375576Y525401D01*
X374333Y522398D01*
X373919Y519257D01*
X373903Y519176D01*
Y494287D01*
X361920D01*
Y482095D01*
X361011Y481837D01*
X358250D01*
Y485070D01*
X332630D01*
Y481837D01*
X330200D01*
X330136Y481824D01*
X329393Y481972D01*
X328709Y482429D01*
X328252Y483113D01*
X328104Y483856D01*
X328117Y483920D01*
Y521909D01*
X328027Y522364D01*
X328044Y522827D01*
X327861Y523979D01*
X327691Y524438D01*
X327624Y524948D01*
X327235Y525887D01*
X327220Y525925D01*
X327120Y526425D01*
X326854Y526823D01*
X326854Y526823D01*
X326653Y527125D01*
X325921Y528494D01*
X323843Y531026D01*
X321311Y533104D01*
X318422Y534648D01*
X315287Y535599D01*
X312341Y535889D01*
X312027Y535952D01*
X111135D01*
X110753Y535876D01*
X108152Y535620D01*
X105284Y534749D01*
X102640Y533337D01*
X100324Y531435D01*
X98422Y529118D01*
X97009Y526475D01*
X96139Y523606D01*
X95883Y521005D01*
X95807Y520624D01*
Y506973D01*
X94075Y505974D01*
X91784Y503682D01*
X90163Y500875D01*
X89324Y497744D01*
Y494503D01*
X90163Y491372D01*
X91784Y488565D01*
X94075Y486273D01*
X96882Y484652D01*
X100013Y483813D01*
X103255D01*
X106385Y484652D01*
X109192Y486273D01*
X111484Y488565D01*
X113105Y491372D01*
X113607Y493247D01*
X114659D01*
X115162Y491372D01*
X116782Y488565D01*
X119074Y486273D01*
X121881Y484652D01*
X125012Y483813D01*
X128253D01*
X131384Y484652D01*
X134191Y486273D01*
X136483Y488565D01*
X138104Y491372D01*
X138607Y493251D01*
X139659D01*
X140163Y491372D01*
X141783Y488565D01*
X144075Y486273D01*
X146882Y484652D01*
X150013Y483813D01*
X153254D01*
X156385Y484652D01*
X159192Y486273D01*
X161484Y488565D01*
X163105Y491372D01*
X163607Y493247D01*
X164659D01*
X165161Y491372D01*
X166782Y488565D01*
X169074Y486273D01*
X170806Y485273D01*
Y479140D01*
X170833Y479007D01*
X170516Y478241D01*
X169750Y477924D01*
X169617Y477951D01*
X122600D01*
Y477959D01*
X118968Y477481D01*
X115582Y476079D01*
X112676Y473848D01*
X110445Y470941D01*
X109043Y467556D01*
X108565Y463924D01*
X108573D01*
Y454410D01*
X107527D01*
Y463557D01*
X107083Y465787D01*
X105820Y467677D01*
X84479Y489019D01*
Y553944D01*
X84035Y556174D01*
X82772Y558064D01*
X65399Y575438D01*
Y590944D01*
X71255D01*
X71631Y591019D01*
X75065D01*
Y594454D01*
X75140Y594829D01*
Y602453D01*
X77000D01*
Y601030D01*
X93820D01*
Y616850D01*
X77000D01*
Y615402D01*
X75065D01*
Y615900D01*
X71631D01*
X71255Y615974D01*
X64906D01*
X64530Y615900D01*
X53476D01*
Y601930D01*
X53745D01*
Y573024D01*
X54188Y570794D01*
X55451Y568904D01*
X72825Y551530D01*
Y486605D01*
X73268Y484375D01*
X74531Y482485D01*
X95873Y461143D01*
Y454410D01*
X80690D01*
Y431790D01*
X242590D01*
Y418627D01*
X239200D01*
X238155Y419060D01*
X235645D01*
X233326Y418099D01*
X231551Y416324D01*
X230590Y414005D01*
Y411495D01*
X231551Y409176D01*
X233326Y407401D01*
X235645Y406440D01*
X238155D01*
X239442Y406973D01*
X242590D01*
Y391790D01*
Y383010D01*
X242590D01*
Y366390D01*
X242590D01*
Y353690D01*
Y340990D01*
Y328290D01*
Y319510D01*
X242590D01*
Y302890D01*
X242590D01*
Y290190D01*
Y279410D01*
X107527D01*
Y280789D01*
X108010Y281955D01*
Y284465D01*
X107049Y286784D01*
X105274Y288559D01*
X102955Y289520D01*
X100445D01*
X98126Y288559D01*
X96351Y286784D01*
X95390Y284465D01*
Y281955D01*
X95873Y280789D01*
Y279410D01*
X94745D01*
X94369Y279485D01*
X84500D01*
X84125Y279410D01*
X80690D01*
Y275975D01*
X80615Y275600D01*
Y189269D01*
X80911Y187782D01*
X81753Y186522D01*
X83013Y185680D01*
X84500Y185384D01*
X94369D01*
X95856Y185680D01*
X97116Y186522D01*
X97958Y187782D01*
X98254Y189269D01*
Y247778D01*
X99193Y248167D01*
X103406Y243954D01*
Y239237D01*
X103404D01*
Y225267D01*
X113071D01*
Y216948D01*
X112588Y215782D01*
Y213271D01*
X113548Y210952D01*
X115323Y209177D01*
X117642Y208216D01*
X120153D01*
X122472Y209177D01*
X124247Y210952D01*
X125208Y213271D01*
Y215782D01*
X124725Y216948D01*
Y225267D01*
X124994D01*
Y225269D01*
X136697D01*
X136697Y225269D01*
Y225269D01*
X137684Y225200D01*
X137713Y225194D01*
X150006D01*
Y223444D01*
X162626D01*
Y232880D01*
X163564Y233269D01*
X164906Y231927D01*
X165005Y231427D01*
Y223444D01*
X177626D01*
Y231427D01*
X177790Y232254D01*
Y234674D01*
X177626Y235500D01*
Y241064D01*
X174082D01*
X171674Y243471D01*
Y256790D01*
X226735D01*
Y252664D01*
X226566Y252494D01*
X225605Y250175D01*
Y247665D01*
X226566Y245346D01*
X228341Y243571D01*
X230660Y242610D01*
X233170D01*
X235185Y243445D01*
X237200Y242610D01*
X239710D01*
X242029Y243571D01*
X243804Y245346D01*
X244765Y247665D01*
Y250175D01*
X243804Y252494D01*
X243634Y252664D01*
Y256790D01*
X249710D01*
Y277490D01*
X265210D01*
Y290190D01*
Y306810D01*
X265210D01*
Y315590D01*
X265210D01*
Y328290D01*
Y340990D01*
Y353690D01*
Y370310D01*
X265210D01*
Y379090D01*
X265210D01*
Y391790D01*
Y404490D01*
Y419673D01*
X337821D01*
Y299849D01*
X337921Y299349D01*
Y298839D01*
X338005Y298413D01*
Y298413D01*
X338201Y297942D01*
X338215Y297867D01*
X338258Y297804D01*
X338779Y296546D01*
X339493Y295832D01*
X340208Y295117D01*
X341465Y294596D01*
X341529Y294554D01*
X341604Y294539D01*
X342075Y294344D01*
X342075D01*
X342500Y294259D01*
X343010D01*
X343511Y294160D01*
X432878D01*
Y292383D01*
X432283Y292103D01*
X431862Y292003D01*
X430688Y292788D01*
X429202Y293083D01*
X343001D01*
X342626Y293009D01*
X339191D01*
Y289574D01*
X339116Y289199D01*
Y261693D01*
X339191Y261318D01*
Y240389D01*
X343126D01*
Y218899D01*
X341681D01*
X341305Y218974D01*
X331730D01*
Y289200D01*
X331435Y290687D01*
X330592Y291947D01*
X329332Y292789D01*
X328811Y292893D01*
Y293010D01*
X328221D01*
X327846Y293085D01*
X297180D01*
X295693Y292789D01*
X294433Y291947D01*
X293591Y290687D01*
X293295Y289200D01*
Y209089D01*
X293591Y207603D01*
X294433Y206343D01*
X295693Y205501D01*
X297180Y205205D01*
X313136D01*
Y199589D01*
X313210Y199219D01*
Y196571D01*
X314680D01*
X315534Y196000D01*
X317020Y195705D01*
X341305D01*
X341680Y195779D01*
X345115D01*
Y199214D01*
X345190Y199589D01*
Y199952D01*
X346206Y200218D01*
X348111Y198756D01*
X350509Y197763D01*
X351495Y197633D01*
Y195779D01*
X369115D01*
Y205205D01*
X394895D01*
Y149774D01*
X258620D01*
X256638Y149380D01*
X254958Y148257D01*
X253835Y146576D01*
X253440Y144594D01*
Y76280D01*
X253646Y75245D01*
X253002Y74460D01*
X238895D01*
Y91440D01*
X238599Y92927D01*
X237757Y94187D01*
X236497Y95029D01*
X235010Y95325D01*
X227508D01*
Y126172D01*
X227212Y127658D01*
X226370Y128918D01*
X225110Y129761D01*
X224893Y129804D01*
Y129982D01*
X223998D01*
X223623Y130056D01*
X198010D01*
X196523Y129761D01*
X195263Y128918D01*
X194421Y127658D01*
X194125Y126172D01*
Y91440D01*
Y64476D01*
X194200Y64100D01*
Y60666D01*
X197635D01*
X198010Y60591D01*
X235010D01*
X235385Y60666D01*
X238820D01*
Y64100D01*
X238820Y64100D01*
X264310D01*
Y62655D01*
X264235Y62280D01*
Y49360D01*
X198010D01*
X197635Y49285D01*
X194200D01*
Y45851D01*
X194125Y45476D01*
Y34476D01*
X194200Y34100D01*
Y30666D01*
X197635D01*
X198010Y30591D01*
X274120D01*
X275607Y30887D01*
X276867Y31729D01*
X277709Y32989D01*
X277932Y34111D01*
X283620D01*
X283995Y34185D01*
X286639D01*
Y35656D01*
X287209Y36509D01*
X287505Y37995D01*
Y62280D01*
X287430Y62655D01*
Y66090D01*
X283995D01*
X283620Y66165D01*
X283257D01*
X282991Y67181D01*
X284453Y69086D01*
X285446Y71484D01*
X285576Y72470D01*
X287430D01*
Y87591D01*
X425357D01*
Y79353D01*
X423450D01*
X423075Y79278D01*
X420564D01*
Y78006D01*
X419861Y76955D01*
X419565Y75468D01*
Y47070D01*
X419600Y46896D01*
Y36725D01*
X372877D01*
X372870Y36760D01*
Y37270D01*
X372785Y37696D01*
Y37696D01*
X372590Y38167D01*
X372575Y38242D01*
X372533Y38305D01*
X372012Y39563D01*
X371600Y39975D01*
Y40580D01*
X370995D01*
X370583Y40992D01*
X369325Y41513D01*
X369262Y41555D01*
X369187Y41570D01*
X368716Y41765D01*
X368716D01*
X368290Y41850D01*
X367780D01*
X367280Y41950D01*
X336300D01*
X335800Y41850D01*
X335290D01*
X334864Y41765D01*
X334864D01*
X334393Y41570D01*
X334318Y41555D01*
X334255Y41513D01*
X332997Y40992D01*
X332585Y40580D01*
X331980D01*
Y39975D01*
X331568Y39563D01*
X331047Y38305D01*
X331005Y38242D01*
X330990Y38167D01*
X330795Y37696D01*
Y37696D01*
X330710Y37270D01*
Y36760D01*
X330611Y36260D01*
Y5179D01*
X5179D01*
Y159413D01*
X62660D01*
X64642Y159807D01*
X66322Y160930D01*
X67445Y162610D01*
X67839Y164592D01*
Y546510D01*
X67445Y548492D01*
X66322Y550172D01*
X64642Y551295D01*
X62660Y551689D01*
X5179D01*
Y694821D01*
X694821D01*
Y240692D01*
D02*
G37*
G36*
X441468Y560253D02*
Y555252D01*
Y550597D01*
X426736D01*
Y555252D01*
Y560253D01*
Y565328D01*
X441468D01*
Y560253D01*
D02*
G37*
G36*
X245460Y513307D02*
X245985Y512956D01*
X247061Y512237D01*
X247780Y511161D01*
X248131Y510636D01*
X248467Y508947D01*
X248427Y508746D01*
Y484118D01*
X248420D01*
X248895Y480509D01*
X250288Y477147D01*
X252503Y474259D01*
X255391Y472043D01*
X258753Y470651D01*
X262362Y470176D01*
Y470183D01*
X281830D01*
Y466950D01*
X288813D01*
Y451638D01*
X288832Y451543D01*
X288642Y450586D01*
X288046Y449694D01*
X287154Y449098D01*
X286197Y448908D01*
X286102Y448927D01*
X249710D01*
Y454410D01*
X132927D01*
Y457560D01*
X133310Y458485D01*
Y460995D01*
X132349Y463314D01*
X130574Y465089D01*
X130112Y465281D01*
X130314Y466297D01*
X169617D01*
X169648Y466303D01*
X172940Y466736D01*
X176037Y468019D01*
X178697Y470060D01*
X180737Y472719D01*
X182020Y475816D01*
X182454Y479109D01*
X182460Y479140D01*
Y485273D01*
X184191Y486273D01*
X186483Y488565D01*
X188104Y491372D01*
X188943Y494503D01*
Y497744D01*
X188104Y500875D01*
X186483Y503682D01*
X184191Y505974D01*
X181384Y507594D01*
X178253Y508433D01*
X175012D01*
X171881Y507594D01*
X169074Y505974D01*
X166782Y503682D01*
X165161Y500875D01*
X164659Y499000D01*
X163607D01*
X163105Y500875D01*
X161484Y503682D01*
X159192Y505974D01*
X156385Y507594D01*
X153254Y508433D01*
X150013D01*
X146882Y507594D01*
X144075Y505974D01*
X141783Y503682D01*
X140163Y500875D01*
X139659Y498995D01*
X138607D01*
X138104Y500875D01*
X136483Y503682D01*
X134191Y505974D01*
X132460Y506973D01*
Y510930D01*
X132441Y511023D01*
X132629Y511967D01*
X133216Y512846D01*
X134096Y513434D01*
X135040Y513622D01*
X135133Y513603D01*
X243570D01*
X243771Y513643D01*
X245460Y513307D01*
D02*
G37*
G36*
X423946Y527090D02*
X424072D01*
X426586Y524575D01*
Y519708D01*
X440556D01*
X440556Y519708D01*
Y519708D01*
X441562Y519682D01*
X441796Y519636D01*
X461850D01*
Y516385D01*
X459608Y515456D01*
X457523Y513856D01*
X455923Y511771D01*
X454917Y509342D01*
X454600Y506936D01*
X454561Y506737D01*
Y491520D01*
X452250D01*
Y491390D01*
X448945D01*
Y493195D01*
X436753D01*
Y480695D01*
X436751D01*
Y466725D01*
X448943D01*
Y468530D01*
X452250D01*
Y465900D01*
X455685D01*
X456060Y465825D01*
X464060D01*
X464435Y465900D01*
X467870D01*
Y469335D01*
X467945Y469710D01*
Y477710D01*
X467870Y478085D01*
Y485900D01*
X492250D01*
Y475900D01*
Y466520D01*
Y461520D01*
X484435D01*
X484060Y461595D01*
X481060D01*
X480685Y461520D01*
X462250D01*
Y460415D01*
X461405Y459850D01*
X460995Y460020D01*
X458485D01*
X456166Y459059D01*
X454391Y457284D01*
X453430Y454965D01*
Y452455D01*
X454391Y450136D01*
X456166Y448361D01*
X458485Y447400D01*
X460995D01*
X461405Y447570D01*
X462250Y447005D01*
Y445900D01*
X467380D01*
Y442695D01*
X385557D01*
Y519176D01*
X385541Y519257D01*
X385756Y519778D01*
X386277Y519993D01*
X386358Y519977D01*
X388990D01*
X389555Y519132D01*
X388945Y517661D01*
Y515151D01*
X389906Y512832D01*
X391681Y511057D01*
X394000Y510096D01*
X396511D01*
X397677Y510579D01*
X407117D01*
Y510310D01*
X421087D01*
Y519708D01*
Y527263D01*
X422103Y527854D01*
X423946Y527090D01*
D02*
G37*
G36*
X506428Y506446D02*
X506562Y506391D01*
X506617Y506257D01*
X506631D01*
Y491520D01*
X497870D01*
Y501520D01*
X467250D01*
Y491520D01*
X464920D01*
Y506459D01*
X506428D01*
Y506446D01*
D02*
G37*
G36*
X314006Y523988D02*
X315684Y522867D01*
X316410Y521781D01*
X316463Y521447D01*
Y483920D01*
X316458D01*
X316926Y480363D01*
X318299Y477049D01*
X320483Y474202D01*
X323329Y472019D01*
X326643Y470646D01*
X330200Y470177D01*
Y470183D01*
X332630D01*
Y466950D01*
X358250D01*
Y470183D01*
X363585D01*
X363834Y470233D01*
X366466Y470579D01*
X369150Y471691D01*
X371455Y473460D01*
X372887Y475326D01*
X373903Y474981D01*
Y435610D01*
X373937Y435437D01*
X373640Y433945D01*
X372697Y432533D01*
X371286Y431590D01*
X369793Y431293D01*
X369620Y431327D01*
X265210D01*
Y433810D01*
X249710D01*
Y437273D01*
X286102D01*
Y437262D01*
X289823Y437752D01*
X293290Y439188D01*
X296267Y441473D01*
X298552Y444450D01*
X299988Y447917D01*
X300478Y451638D01*
X300467D01*
Y466950D01*
X307450D01*
Y485070D01*
X281830D01*
Y481837D01*
X262362D01*
X262288Y481822D01*
X261478Y481983D01*
X260728Y482484D01*
X260227Y483234D01*
X260066Y484044D01*
X260081Y484118D01*
Y508746D01*
X260016Y509071D01*
X259732Y511961D01*
X258794Y515052D01*
X258274Y516025D01*
X258221Y516292D01*
X257773Y516963D01*
X257271Y517901D01*
X255222Y520398D01*
X252725Y522447D01*
X251787Y522948D01*
X251289Y523282D01*
X251375Y524080D01*
X251458Y524298D01*
X312027D01*
X312239Y524340D01*
X314006Y523988D01*
D02*
G37*
G36*
X158726Y241064D02*
X150006D01*
Y239313D01*
X137713D01*
X137338Y239239D01*
X133903D01*
Y239239D01*
X124505D01*
Y239237D01*
X115598D01*
Y253083D01*
X110758D01*
X108067Y255774D01*
X108488Y256790D01*
X158726D01*
Y241064D01*
D02*
G37*
G36*
X432878Y228474D02*
X355305D01*
X354930Y228399D01*
X353485D01*
Y240389D01*
X360811D01*
Y257809D01*
X429202D01*
X429577Y257883D01*
X432878D01*
Y228474D01*
D02*
G37*
G36*
X584200Y182880D02*
X512150D01*
Y177701D01*
Y171600D01*
X511640D01*
Y155590D01*
X501839D01*
Y148590D01*
X471040D01*
Y169001D01*
X500380D01*
Y202690D01*
X500465Y203115D01*
X500890Y203200D01*
X584200D01*
Y182880D01*
D02*
G37*
G36*
X517295Y143340D02*
X519806D01*
X520296Y143543D01*
X521140Y142978D01*
Y125580D01*
X522224D01*
Y118357D01*
X521895Y117915D01*
X521454Y117587D01*
X486853D01*
X486732Y117563D01*
X486026Y117855D01*
X485733Y118562D01*
X485757Y118682D01*
Y125310D01*
X487892D01*
X488268Y125236D01*
X512150D01*
X513637Y125531D01*
X513710Y125580D01*
X515960D01*
Y128745D01*
X516035Y129120D01*
Y135490D01*
X515960Y135865D01*
Y142978D01*
X516805Y143543D01*
X517295Y143340D01*
D02*
G37*
G36*
X462201Y396110D02*
X462107Y395639D01*
X462081Y395600D01*
X410972D01*
Y390421D01*
Y359536D01*
Y344841D01*
X440462D01*
Y338581D01*
X441889D01*
X442407Y337805D01*
Y335295D01*
X443368Y332976D01*
X445143Y331201D01*
X447462Y330240D01*
X449972D01*
X452291Y331201D01*
X454067Y332976D01*
X455027Y335295D01*
Y337805D01*
X455546Y338581D01*
X456972D01*
Y344841D01*
X464945D01*
X465370Y344757D01*
X465455Y344331D01*
Y112270D01*
X465370Y111845D01*
X464945Y111760D01*
X438057D01*
Y92770D01*
X274120D01*
Y90090D01*
X273810D01*
Y76280D01*
X258620D01*
Y144594D01*
X438057D01*
Y299339D01*
X343511D01*
X343085Y299424D01*
X343001Y299849D01*
Y419673D01*
X369620D01*
X369973Y419743D01*
X372723Y420014D01*
X375705Y420919D01*
X378455Y422388D01*
X380864Y424366D01*
X382842Y426775D01*
X384311Y429524D01*
X385216Y432507D01*
X385487Y435257D01*
X385557Y435610D01*
Y437515D01*
X462201D01*
Y396110D01*
D02*
G37*
G36*
X467273Y68994D02*
X467414Y68854D01*
X467490Y68670D01*
Y68570D01*
X467490D01*
Y65320D01*
X467500Y65223D01*
X467574Y65043D01*
X467712Y64905D01*
X467892Y64830D01*
X467990Y64820D01*
X471240Y64820D01*
X471339Y64820D01*
X471523Y64744D01*
X471664Y64604D01*
X471740Y64420D01*
Y64320D01*
X471740D01*
X471740Y62820D01*
Y62721D01*
X471664Y62537D01*
X471523Y62396D01*
X471339Y62320D01*
X471240D01*
X465490Y62320D01*
X465391Y62320D01*
X465207Y62396D01*
X465066Y62537D01*
X464990Y62721D01*
X464990Y62820D01*
Y62820D01*
Y68570D01*
X464990Y68670D01*
X465066Y68854D01*
X465207Y68994D01*
X465390Y69070D01*
X465490Y69070D01*
X465490Y69070D01*
X465490D01*
X466990Y69070D01*
X467089Y69070D01*
X467273Y68994D01*
D02*
G37*
G36*
X453990Y69070D02*
X454089D01*
X454273Y68994D01*
X454414Y68854D01*
X454490Y68670D01*
Y68570D01*
X454490Y68570D01*
Y62820D01*
X454490Y62721D01*
X454414Y62537D01*
X454273Y62396D01*
X454090Y62320D01*
X453990Y62320D01*
X448240D01*
X448141Y62320D01*
X447957Y62396D01*
X447816Y62537D01*
X447740Y62721D01*
X447740Y62820D01*
X447740Y62820D01*
Y62820D01*
Y64320D01*
X447740Y64420D01*
X447816Y64604D01*
X447957Y64744D01*
X448140Y64820D01*
X448240D01*
X448240Y64820D01*
X451490D01*
X451587Y64830D01*
X451768Y64905D01*
X451906Y65043D01*
X451980Y65223D01*
X451990Y65320D01*
X451990D01*
Y68570D01*
X451990Y68670D01*
X452066Y68854D01*
X452207Y68994D01*
X452391Y69070D01*
X452490D01*
X452490Y69070D01*
X453990Y69070D01*
D02*
G37*
G36*
X471524Y41744D02*
X471664Y41604D01*
X471740Y41420D01*
X471740Y41321D01*
X471740D01*
X471740Y39820D01*
X471740Y39721D01*
X471664Y39537D01*
X471524Y39397D01*
X471340Y39320D01*
X471240D01*
X467990Y39320D01*
X467893Y39311D01*
X467713Y39236D01*
X467575Y39098D01*
X467500Y38918D01*
X467490Y38820D01*
Y38820D01*
X467490Y35570D01*
X467490Y35471D01*
X467414Y35287D01*
X467273Y35147D01*
X467090Y35070D01*
X466990D01*
X465490Y35071D01*
X465391D01*
X465207Y35147D01*
X465066Y35287D01*
X464990Y35471D01*
Y35570D01*
X464990D01*
Y41320D01*
X464990Y41420D01*
X465066Y41604D01*
X465207Y41744D01*
X465391Y41821D01*
X465490Y41820D01*
X471240D01*
X471340Y41821D01*
X471524Y41744D01*
D02*
G37*
G36*
X454273Y41744D02*
X454414Y41603D01*
X454490Y41419D01*
X454490Y41320D01*
X454490Y35570D01*
X454490Y35470D01*
X454414Y35287D01*
X454273Y35146D01*
X454090Y35070D01*
X453990Y35070D01*
Y35070D01*
X452490D01*
X452391Y35070D01*
X452207Y35146D01*
X452066Y35286D01*
X451990Y35470D01*
Y35570D01*
Y35570D01*
X451990Y38820D01*
X451980Y38917D01*
X451906Y39097D01*
X451768Y39235D01*
X451587Y39310D01*
X451490Y39320D01*
X451490Y39320D01*
X448240D01*
X448140Y39320D01*
X447957Y39396D01*
X447816Y39536D01*
X447740Y39720D01*
Y39820D01*
Y39820D01*
X447740Y41320D01*
Y41419D01*
X447816Y41603D01*
X447957Y41744D01*
X448141Y41820D01*
X448240D01*
Y41820D01*
X453990D01*
X454090Y41820D01*
X454273Y41744D01*
D02*
G37*
G36*
X495962Y42041D02*
Y5179D01*
Y5080D01*
X335790D01*
Y36260D01*
X335875Y36685D01*
X336300Y36770D01*
X367280D01*
X367705Y36685D01*
X367790Y36260D01*
Y31546D01*
X444593D01*
Y22786D01*
X459000D01*
Y36770D01*
X460720D01*
Y22786D01*
X472145D01*
X472233Y22653D01*
X473493Y21811D01*
X474980Y21515D01*
X482242D01*
X483729Y21811D01*
X484989Y22653D01*
X485078Y22786D01*
X485140D01*
Y22879D01*
X485831Y23913D01*
X486127Y25400D01*
Y48320D01*
X485831Y49807D01*
X485140Y50841D01*
Y51891D01*
X495962D01*
Y42041D01*
D02*
G37*
%LPC*%
G36*
X194981Y674080D02*
X161480D01*
X159498Y673685D01*
X158038Y672710D01*
X157670D01*
Y672342D01*
X156695Y670882D01*
X156300Y668900D01*
Y667375D01*
X155319Y667112D01*
X154831Y667959D01*
X152538Y670250D01*
X149732Y671871D01*
X146601Y672710D01*
X143359D01*
X140229Y671871D01*
X137422Y670250D01*
X135130Y667959D01*
X133509Y665152D01*
X132670Y662021D01*
Y658779D01*
X133509Y655648D01*
X135130Y652841D01*
X137294Y650677D01*
Y609434D01*
X135611Y607750D01*
X129360D01*
Y607126D01*
X113820D01*
Y607350D01*
X97000D01*
Y591530D01*
X113820D01*
Y591754D01*
X129360D01*
Y591130D01*
X146480D01*
Y596881D01*
X150415Y600815D01*
X151636Y602407D01*
X152404Y604261D01*
X152535Y605255D01*
X152666Y606250D01*
X152666Y606250D01*
Y650677D01*
X154831Y652841D01*
X155319Y653688D01*
X156300Y653425D01*
Y594940D01*
X156695Y592958D01*
X157817Y591278D01*
X159498Y590155D01*
X161480Y589761D01*
X194981D01*
X196963Y590155D01*
X198643Y591278D01*
X199766Y592958D01*
X200160Y594940D01*
Y668900D01*
X199766Y670882D01*
X198643Y672562D01*
X196963Y673685D01*
X194981Y674080D01*
D02*
G37*
G36*
X478320Y672160D02*
X454800D01*
Y648640D01*
X478320D01*
Y672160D01*
D02*
G37*
G36*
X42516Y685540D02*
X37485D01*
X32550Y684558D01*
X27902Y682633D01*
X23719Y679838D01*
X20162Y676281D01*
X17367Y672098D01*
X15442Y667450D01*
X14460Y662516D01*
Y657485D01*
X15442Y652550D01*
X17367Y647902D01*
X20162Y643719D01*
X23719Y640162D01*
X27902Y637367D01*
X32550Y635442D01*
X37485Y634460D01*
X42516D01*
X47450Y635442D01*
X52098Y637367D01*
X56281Y640162D01*
X59838Y643719D01*
X62633Y647902D01*
X64559Y652550D01*
X65540Y657485D01*
Y662516D01*
X64559Y667450D01*
X62633Y672098D01*
X59838Y676281D01*
X56281Y679838D01*
X52098Y682633D01*
X47450Y684558D01*
X42516Y685540D01*
D02*
G37*
G36*
X662516Y685540D02*
X657485D01*
X652551Y684558D01*
X647903Y682633D01*
X643719Y679838D01*
X640162Y676281D01*
X637367Y672098D01*
X635442Y667450D01*
X634460Y662515D01*
Y657485D01*
X635442Y652550D01*
X637367Y647902D01*
X640162Y643719D01*
X643719Y640162D01*
X647903Y637367D01*
X652551Y635442D01*
X657485Y634460D01*
X662516D01*
X667450Y635442D01*
X672098Y637367D01*
X676281Y640162D01*
X679838Y643719D01*
X682633Y647902D01*
X684559Y652550D01*
X685540Y657485D01*
Y662515D01*
X684559Y667450D01*
X682633Y672098D01*
X679838Y676281D01*
X676281Y679838D01*
X672098Y682633D01*
X667450Y684558D01*
X662516Y685540D01*
D02*
G37*
G36*
X268521Y672710D02*
X265279D01*
X262148Y671871D01*
X259342Y670250D01*
X257050Y667959D01*
X255429Y665152D01*
X254590Y662021D01*
Y658779D01*
X255429Y655648D01*
X257050Y652841D01*
X259342Y650549D01*
X260326Y649981D01*
Y607695D01*
X259715D01*
Y607553D01*
X256675D01*
X255509Y608036D01*
X252999D01*
X250680Y607075D01*
X248905Y605300D01*
X247944Y602981D01*
Y600471D01*
X248905Y598152D01*
X250680Y596377D01*
X252999Y595416D01*
X255509D01*
X256675Y595899D01*
X259715D01*
Y586105D01*
X260226D01*
Y584200D01*
X260390Y583373D01*
Y582945D01*
X260554Y582549D01*
X260718Y581722D01*
X261187Y581022D01*
X261351Y580626D01*
X261654Y580323D01*
X262122Y579622D01*
X262823Y579154D01*
X263126Y578851D01*
X263522Y578687D01*
X264222Y578218D01*
X265049Y578054D01*
X265445Y577890D01*
X265873D01*
X266700Y577726D01*
X267527Y577890D01*
X267955D01*
X268351Y578054D01*
X269178Y578218D01*
X269878Y578687D01*
X270274Y578851D01*
X270577Y579154D01*
X271278Y579622D01*
X271746Y580323D01*
X272049Y580626D01*
X272213Y581022D01*
X272682Y581722D01*
X272846Y582549D01*
X273010Y582945D01*
Y583373D01*
X273174Y584200D01*
Y586105D01*
X273685D01*
Y595503D01*
Y607695D01*
X273274D01*
Y649866D01*
X274459Y650549D01*
X276751Y652841D01*
X278371Y655648D01*
X279210Y658779D01*
Y662021D01*
X278371Y665152D01*
X276751Y667959D01*
X274459Y670250D01*
X271651Y671871D01*
X268521Y672710D01*
D02*
G37*
G36*
X382255Y77281D02*
X379745D01*
X377426Y76321D01*
X375651Y74546D01*
X374690Y72227D01*
Y69716D01*
X375651Y67397D01*
X376190Y66858D01*
X375651Y66318D01*
X374690Y63999D01*
Y61489D01*
X375651Y59170D01*
X376190Y58630D01*
X375651Y58091D01*
X374690Y55771D01*
Y53261D01*
X375651Y50942D01*
X376190Y50402D01*
X375651Y49863D01*
X374690Y47544D01*
Y45033D01*
X375651Y42714D01*
X377426Y40939D01*
X379745Y39979D01*
X382255D01*
X384574Y40939D01*
X386349Y42714D01*
X387310Y45033D01*
Y47544D01*
X386349Y49863D01*
X385810Y50402D01*
X386349Y50942D01*
X387310Y53261D01*
Y55771D01*
X386349Y58091D01*
X385810Y58630D01*
X386349Y59170D01*
X387310Y61489D01*
Y63999D01*
X386349Y66318D01*
X385810Y66858D01*
X386349Y67397D01*
X387310Y69716D01*
Y72227D01*
X386349Y74546D01*
X384574Y76321D01*
X382255Y77281D01*
D02*
G37*
G36*
X42516Y65540D02*
X37485D01*
X32550Y64559D01*
X27902Y62633D01*
X23719Y59838D01*
X20162Y56281D01*
X17367Y52098D01*
X15442Y47450D01*
X14460Y42516D01*
Y37485D01*
X15442Y32550D01*
X17367Y27902D01*
X20162Y23719D01*
X23719Y20162D01*
X27902Y17367D01*
X32550Y15442D01*
X37485Y14460D01*
X42516D01*
X47450Y15442D01*
X52098Y17367D01*
X56281Y20162D01*
X59838Y23719D01*
X62633Y27902D01*
X64559Y32550D01*
X65540Y37485D01*
Y42516D01*
X64559Y47450D01*
X62633Y52098D01*
X59838Y56281D01*
X56281Y59838D01*
X52098Y62633D01*
X47450Y64559D01*
X42516Y65540D01*
D02*
G37*
G36*
X662516Y65540D02*
X657485D01*
X652551Y64558D01*
X647903Y62633D01*
X643719Y59838D01*
X640162Y56281D01*
X637367Y52098D01*
X635442Y47450D01*
X634460Y42515D01*
Y37485D01*
X635442Y32550D01*
X637367Y27902D01*
X640162Y23719D01*
X643719Y20162D01*
X647903Y17367D01*
X652551Y15442D01*
X657485Y14460D01*
X662516D01*
X667450Y15442D01*
X672098Y17367D01*
X676281Y20162D01*
X679838Y23719D01*
X682633Y27902D01*
X684559Y32550D01*
X685540Y37485D01*
Y42515D01*
X684559Y47450D01*
X682633Y52098D01*
X679838Y56281D01*
X676281Y59838D01*
X672098Y62633D01*
X667450Y64558D01*
X662516Y65540D01*
D02*
G37*
%LPD*%
G36*
X194981Y594940D02*
X161480D01*
Y668900D01*
X194981D01*
Y594940D01*
D02*
G37*
%LPC*%
G36*
X238942Y508433D02*
X214322D01*
Y483813D01*
X238942D01*
Y508433D01*
D02*
G37*
%LPD*%
D13*
X464813Y550462D02*
X467840Y547434D01*
X448603Y550462D02*
X464813D01*
X448603Y555463D02*
X478369D01*
X485840Y562934D01*
X486340D01*
D15*
X441603Y529175D02*
G03*
X444971Y525807I3368J0D01*
G01*
X275843Y69280D02*
G03*
X280620Y74057I-0J4777D01*
G01*
X216511Y70975D02*
G03*
X218206Y69280I1695J0D01*
G01*
X433572Y525804D02*
G03*
X436601Y528834I0J3030D01*
G01*
X350001Y266699D02*
G03*
X348305Y265003I0J-1695D01*
G01*
Y207366D02*
G03*
X353082Y202589I4777J0D01*
G01*
X361705Y565256D02*
G03*
X361696Y565256I-9J-2159D01*
G01*
X361812Y560938D02*
G03*
X361813Y560938I-42J4318D01*
G01*
X395255Y560803D02*
G03*
X395264Y560803I9J2159D01*
G01*
X361696Y560938D02*
G03*
X361715Y560938I74J4317D01*
G01*
D02*
G03*
X361812Y560938I55J4318D01*
G01*
X647994Y440984D02*
G03*
X659130Y452120I0J11136D01*
G01*
X570896Y442439D02*
G03*
X574591Y440984I3695J3963D01*
G01*
X403396Y550462D02*
G03*
X400558Y547624I0J-2838D01*
G01*
X572346Y436666D02*
G03*
X571451Y436480I0J-2242D01*
G01*
D02*
G03*
X570760Y436009I894J-2056D01*
G01*
X659130Y427120D02*
G03*
X649584Y436666I-9546J0D01*
G01*
X404079Y555463D02*
G03*
X396240Y547624I0J-7839D01*
G01*
X570760Y442571D02*
G03*
X570896Y442439I3831J3831D01*
G01*
X496017Y447041D02*
G03*
X494400Y449967I-3457J0D01*
G01*
X502470Y451404D02*
G03*
X506834Y447040I4364J0D01*
G01*
X535940Y396240D02*
G03*
X542290Y389890I6350J0D01*
G01*
X535940Y420370D02*
G03*
X530479Y425831I-5461J0D01*
G01*
X464642Y511639D02*
G03*
X459740Y506737I0J-4902D01*
G01*
X511810Y506257D02*
G03*
X506428Y511639I-5382J0D01*
G01*
X459740Y486530D02*
G03*
X460060Y486210I320J0D01*
G01*
X506810Y481210D02*
G03*
X511810Y486210I0J5000D01*
G01*
X515620Y462450D02*
G03*
X506543Y466210I-9077J-9077D01*
G01*
X507204Y471210D02*
G03*
X515620Y474696I0J11902D01*
G01*
X503114Y53984D02*
G03*
X500028Y57070I-3086J0D01*
G01*
X418347Y543461D02*
G03*
X414102Y539217I0J-4245D01*
G01*
X426901Y650059D02*
G03*
X416560Y660400I-10341J0D01*
G01*
X441560D02*
G03*
X431219Y650059I0J-10341D01*
G01*
X395264Y540137D02*
G03*
X396240Y541113I0J976D01*
G01*
X439018Y589992D02*
X445427D01*
X412608Y589990D02*
X419018D01*
X555825Y426720D02*
X562360D01*
X555825Y452120D02*
X562360D01*
X467084Y63601D02*
X491989D01*
X468490Y57070D02*
X500028D01*
X466678Y64008D02*
X467084Y63601D01*
X469218Y523569D02*
X469470Y523317D01*
X441603Y529175D02*
Y543461D01*
X275843Y69280D02*
X275843D01*
X218206D02*
X275843D01*
X218206D02*
X218206D01*
X130601Y246097D02*
Y246098D01*
X432682Y525804D02*
X433572D01*
X425201Y533285D02*
X432682Y525804D01*
X425201Y533285D02*
Y533400D01*
X280620Y74057D02*
Y81280D01*
X348305Y207366D02*
Y265003D01*
X353082Y202589D02*
X360305D01*
X487560Y493710D02*
Y503283D01*
X467560Y493710D02*
Y503283D01*
X361696Y565256D02*
Y566367D01*
X361705Y565256D02*
X361728Y565256D01*
X361813Y560938D02*
X395255Y560803D01*
X395264D02*
X417334D01*
X361696Y559827D02*
Y560938D01*
X361728Y565256D02*
X395264Y565121D01*
X417334D01*
X501845Y390144D02*
X516636D01*
X574591Y440984D02*
X647994D01*
X403396Y550462D02*
X419601D01*
X400558Y541113D02*
Y547624D01*
X572346Y436666D02*
X649584D01*
X570760Y426720D02*
Y436009D01*
X404079Y555463D02*
X419601D01*
X396240Y541113D02*
Y547624D01*
X570760Y443206D02*
Y452120D01*
X459740Y453710D02*
X467560D01*
X492790Y450980D02*
X494400Y449967D01*
X496017Y435272D02*
Y447041D01*
X492560Y453710D02*
X492790Y450980D01*
X502470Y451404D02*
Y461236D01*
X506834Y447040D02*
X522351D01*
X542290Y389890D02*
X566102D01*
X535940Y396240D02*
Y420370D01*
X496060Y425831D02*
X530479D01*
X472560Y435229D02*
Y453710D01*
X450487Y461210D02*
X460060D01*
X459740Y486210D02*
X460060D01*
X464642Y511639D02*
X506428D01*
X442849Y486210D02*
X459740D01*
Y486530D02*
Y506737D01*
X511810Y486210D02*
Y506257D01*
X467545Y503283D02*
X467560D01*
X500060Y481210D02*
X506810D01*
X460060Y471209D02*
Y473710D01*
X442847D02*
X460060D01*
Y476210D01*
X515620Y462450D02*
X522349D01*
X515620Y474696D02*
X522351D01*
X500060Y471210D02*
X507204D01*
X500060Y466210D02*
X506543D01*
X451936Y29431D02*
Y39730D01*
X467545Y29431D02*
Y39730D01*
X452803Y40132D02*
X458760Y46090D01*
X466274Y39730D02*
X466678Y40133D01*
Y40133D01*
X460720Y46090D02*
X466645Y40166D01*
X459740Y52070D02*
X460720Y46090D01*
X458760D02*
X459740Y52070D01*
X503114Y49026D02*
Y53984D01*
X503074Y49026D02*
X503114D01*
X236900Y412750D02*
Y412800D01*
X418347Y543461D02*
X426601D01*
X414102Y525804D02*
Y539217D01*
X436601Y528834D02*
Y543461D01*
X426901Y614294D02*
Y650059D01*
X431219Y616082D02*
Y650059D01*
X417676Y565463D02*
X419601D01*
X417334Y560803D02*
X417676Y560462D01*
X419601D01*
X417334Y565121D02*
X417676Y565463D01*
X238455Y248920D02*
Y265155D01*
X241400Y268100D01*
X228700D02*
X231915Y264885D01*
Y248920D02*
Y264885D01*
X431261Y598390D02*
Y616040D01*
Y574730D02*
Y598390D01*
X439015D01*
X439018Y598393D01*
X426943D02*
Y614252D01*
Y574730D02*
Y598393D01*
X419018Y598390D02*
X426940D01*
X426943Y598393D01*
X431219Y616082D02*
X431261Y616040D01*
X426601Y574388D02*
X426943Y574730D01*
X426901Y614294D02*
X426943Y614252D01*
X426601Y572463D02*
Y574388D01*
X431603Y572463D02*
Y574388D01*
X431261Y574730D02*
X431603Y574388D01*
D36*
X417262Y72293D02*
D03*
X426660D02*
D03*
X59572Y608914D02*
D03*
X68969D02*
D03*
X78240Y246100D02*
D03*
X87638D02*
D03*
X109502Y246098D02*
D03*
X118900D02*
D03*
X109500Y232252D02*
D03*
X118898D02*
D03*
X139999Y232254D02*
D03*
X130601Y232254D02*
D03*
X556433Y129792D02*
D03*
X547035Y129792D02*
D03*
X493676Y64860D02*
D03*
X503074D02*
D03*
Y49026D02*
D03*
X493676D02*
D03*
X426660Y57746D02*
D03*
X417262D02*
D03*
X280543Y41170D02*
D03*
X271145D02*
D03*
X522351Y474696D02*
D03*
X531749D02*
D03*
X522349Y462450D02*
D03*
X531747D02*
D03*
X531749Y447040D02*
D03*
X522351D02*
D03*
X433451Y486210D02*
D03*
X442849D02*
D03*
X442847Y473710D02*
D03*
X433449D02*
D03*
D37*
X152500Y340600D02*
D03*
D38*
X241400Y443100D02*
D03*
X76300Y268100D02*
D03*
X89000D02*
D03*
X101700D02*
D03*
X114400D02*
D03*
X127100D02*
D03*
X139800D02*
D03*
X152500D02*
D03*
X165200D02*
D03*
X177900D02*
D03*
X190600D02*
D03*
X203300D02*
D03*
X216000D02*
D03*
X228700D02*
D03*
X241400D02*
D03*
X228700Y443100D02*
D03*
X216000D02*
D03*
X203300D02*
D03*
X190600D02*
D03*
X177900D02*
D03*
X165200D02*
D03*
X152500D02*
D03*
X139800D02*
D03*
X127100D02*
D03*
X114400D02*
D03*
X101700D02*
D03*
X89000D02*
D03*
X76300D02*
D03*
D39*
X253900Y285800D02*
D03*
Y298500D02*
D03*
X253900Y311200D02*
D03*
X253900Y323900D02*
D03*
Y336600D02*
D03*
Y349300D02*
D03*
Y362000D02*
D03*
X253900Y374700D02*
D03*
X253900Y387400D02*
D03*
Y400100D02*
D03*
Y412800D02*
D03*
Y425500D02*
D03*
D40*
X351790Y24270D02*
D03*
Y105270D02*
D03*
D41*
X500060Y461210D02*
D03*
Y466210D02*
D03*
Y471210D02*
D03*
Y476210D02*
D03*
Y481210D02*
D03*
Y486210D02*
D03*
X460060D02*
D03*
Y481210D02*
D03*
Y476210D02*
D03*
Y471210D02*
D03*
Y466210D02*
D03*
Y461210D02*
D03*
D42*
X492560Y493710D02*
D03*
X487560D02*
D03*
X482560D02*
D03*
X477560D02*
D03*
X472560D02*
D03*
X467560D02*
D03*
Y453710D02*
D03*
X472560D02*
D03*
X477560D02*
D03*
X482560D02*
D03*
X487560D02*
D03*
X492560D02*
D03*
D43*
X480060Y473710D02*
D03*
D44*
X266700Y601599D02*
D03*
Y592201D02*
D03*
X68081Y587717D02*
D03*
X68081Y597115D02*
D03*
X491441Y176113D02*
D03*
Y166715D02*
D03*
X491443Y140804D02*
D03*
Y131406D02*
D03*
X320195Y202667D02*
D03*
X320195Y212065D02*
D03*
X434340Y353440D02*
D03*
Y362838D02*
D03*
X421664Y353440D02*
D03*
Y362838D02*
D03*
X471290Y435229D02*
D03*
Y425831D02*
D03*
X496060Y435229D02*
D03*
Y425831D02*
D03*
X444971Y516409D02*
D03*
Y525807D02*
D03*
X433572Y525804D02*
D03*
Y516406D02*
D03*
X414102Y525804D02*
D03*
Y516406D02*
D03*
X368905Y497589D02*
D03*
Y488191D02*
D03*
D45*
X137920Y599440D02*
D03*
X169420D02*
D03*
D46*
X85410Y589940D02*
D03*
Y608940D02*
D03*
X105410Y599440D02*
D03*
X566814Y168650D02*
D03*
Y149650D02*
D03*
X546814Y159150D02*
D03*
D47*
X513336Y266700D02*
D03*
X577736D02*
D03*
D48*
X547929Y220700D02*
D03*
X568249D02*
D03*
X566974Y110490D02*
D03*
X546654D02*
D03*
X566974Y85090D02*
D03*
X546654D02*
D03*
X615950Y341630D02*
D03*
X595630D02*
D03*
D49*
X627044Y220700D02*
D03*
X676844D02*
D03*
D50*
X90559Y231266D02*
D03*
X75319D02*
D03*
X75319Y214527D02*
D03*
X90559D02*
D03*
X430342Y40816D02*
D03*
X415102D02*
D03*
X248985Y103556D02*
D03*
X264225D02*
D03*
X217273Y121727D02*
D03*
X232513D02*
D03*
X217271Y103557D02*
D03*
X232511D02*
D03*
X484710Y523317D02*
D03*
X469470D02*
D03*
D51*
X171315Y232254D02*
D03*
X156315Y232254D02*
D03*
D52*
X475485Y163794D02*
D03*
Y179034D02*
D03*
X433612Y100305D02*
D03*
Y85065D02*
D03*
X449038D02*
D03*
Y100305D02*
D03*
X382580Y231685D02*
D03*
X382580Y216445D02*
D03*
X424757Y265503D02*
D03*
Y250263D02*
D03*
X406588Y265504D02*
D03*
X406588Y250264D02*
D03*
X448717Y361441D02*
D03*
Y346201D02*
D03*
D53*
X509050Y161690D02*
D03*
X518550Y161690D02*
D03*
X528050Y161690D02*
D03*
Y135490D02*
D03*
X518550D02*
D03*
X509050D02*
D03*
D54*
X452803Y40132D02*
D03*
X466678Y40133D02*
D03*
X452803Y64008D02*
D03*
X466678Y64008D02*
D03*
D55*
X459740Y38320D02*
D03*
Y65820D02*
D03*
D56*
X450990Y57070D02*
D03*
Y52070D02*
D03*
Y47070D02*
D03*
X468490D02*
D03*
Y52070D02*
D03*
Y57070D02*
D03*
D57*
X459740Y52070D02*
D03*
D58*
X280620Y57280D02*
D03*
X271120Y57280D02*
D03*
X261620Y57280D02*
D03*
Y81280D02*
D03*
X271120D02*
D03*
X280620D02*
D03*
D59*
X381000Y160020D02*
D03*
Y139700D02*
D03*
D60*
X351790Y136973D02*
D03*
Y162373D02*
D03*
X321310Y136974D02*
D03*
Y162374D02*
D03*
D61*
X336305Y202589D02*
D03*
X336305Y212089D02*
D03*
X336305Y221589D02*
D03*
X360305D02*
D03*
X360305Y212089D02*
D03*
X360305Y202589D02*
D03*
D62*
X382580Y249849D02*
D03*
X382580Y283550D02*
D03*
D63*
X467601Y380200D02*
D03*
X448601D02*
D03*
X458101Y400200D02*
D03*
D64*
X501601Y390389D02*
D03*
X566601D02*
D03*
D65*
X552476Y341977D02*
D03*
X506476D02*
D03*
D66*
X562360Y426720D02*
D03*
X570760D02*
D03*
X562360Y452120D02*
D03*
X570760D02*
D03*
D67*
X486340Y563188D02*
D03*
X467840D02*
D03*
Y547688D02*
D03*
X486340D02*
D03*
D68*
X439018Y589992D02*
D03*
Y598393D02*
D03*
X419018Y589990D02*
D03*
Y598390D02*
D03*
D69*
X345440Y509510D02*
D03*
Y476010D02*
D03*
X294640Y509510D02*
D03*
Y476010D02*
D03*
D70*
X628919Y266700D02*
D03*
X674919D02*
D03*
D71*
X216510Y69976D02*
D03*
Y39976D02*
D03*
D72*
X350001Y266699D02*
D03*
X318001Y266700D02*
D03*
D124*
X475150Y535515D02*
G03*
X469695Y530059I0J-5455D01*
G01*
X469218Y523569D02*
G03*
X469695Y524045I0J477D01*
G01*
X475150Y535515D02*
X499658D01*
X469695Y524045D02*
Y530059D01*
X266700Y584200D02*
Y590988D01*
X518550Y121920D02*
Y135490D01*
X165200Y240789D02*
X171315Y234674D01*
X165200Y240789D02*
Y268100D01*
X171315Y232254D02*
Y234674D01*
X68982Y608927D02*
X85397D01*
X68969Y608914D02*
X68982Y608927D01*
X85397D02*
X85410Y608940D01*
X266800Y602273D02*
Y660300D01*
X266900Y660400D01*
D125*
X248887Y518013D02*
G03*
X243570Y519430I-5316J-9267D01*
G01*
X252838Y514062D02*
G03*
X248887Y518013I-9267J-5316D01*
G01*
X254254Y508746D02*
G03*
X252838Y514062I-10683J0D01*
G01*
X254254Y484118D02*
G03*
X262362Y476010I8108J0D01*
G01*
X322290Y483920D02*
G03*
X330200Y476010I7910J0D01*
G01*
X501601Y390389D02*
G03*
X501845Y390144I245J0D01*
G01*
X567024Y149860D02*
G03*
X566814Y149650I0J-210D01*
G01*
X479930Y118682D02*
G03*
X486853Y111760I6922J0D01*
G01*
X521650D02*
G03*
X528050Y118160I0J6400D01*
G01*
X386358Y525804D02*
G03*
X379730Y519176I0J-6628D01*
G01*
X369620Y425500D02*
G03*
X379730Y435610I0J10110D01*
G01*
X363585Y476010D02*
G03*
X368905Y481330I0J5320D01*
G01*
X111135Y530125D02*
G03*
X101634Y520624I0J-9501D01*
G01*
X322106Y523062D02*
G03*
X321737Y524196I-3762J-600D01*
G01*
D02*
G03*
X312027Y530125I-9710J-4986D01*
G01*
X286102Y443100D02*
G03*
X294640Y451638I0J8538D01*
G01*
X169617Y472124D02*
G03*
X176633Y479140I0J7016D01*
G01*
X122600Y472124D02*
G03*
X114400Y463924I0J-8200D01*
G01*
X127695Y515045D02*
G03*
X126633Y510930I7437J-4116D01*
G01*
X131017Y518367D02*
G03*
X127695Y515045I4116J-7437D01*
G01*
X135133Y519430D02*
G03*
X131017Y518367I0J-8500D01*
G01*
X412608Y589887D02*
Y589990D01*
X471290Y417684D02*
Y425831D01*
Y417684D02*
X471363D01*
X433451Y486210D02*
Y493710D01*
X433572Y464710D02*
Y473710D01*
X433451D02*
X433572D01*
X433449D02*
X433451D01*
Y486210D01*
X444971Y516406D02*
Y516409D01*
Y508330D02*
Y516406D01*
X433572D02*
X444971D01*
X467840Y563188D02*
Y574388D01*
X486340Y547688D02*
X499658D01*
Y547434D02*
Y547688D01*
X484710Y523317D02*
X520065D01*
X531749Y474696D02*
X541166D01*
Y474520D02*
Y474696D01*
X531749Y462450D02*
X531770D01*
Y454751D02*
Y462450D01*
X531749D02*
Y474696D01*
X531747Y462450D02*
X531749D01*
Y447040D02*
Y454751D01*
X531770D01*
X421664Y362838D02*
Y373389D01*
X674733Y287381D02*
X674919D01*
Y266700D02*
Y287381D01*
X615950Y341630D02*
X629920D01*
X506289Y362658D02*
X506476D01*
Y341977D02*
Y362658D01*
X513336Y266700D02*
Y287381D01*
X513149D02*
X513336D01*
X547929Y220700D02*
Y236911D01*
X547955D01*
X417262Y57746D02*
Y84968D01*
Y40816D02*
Y57746D01*
X415102Y40816D02*
X417262D01*
Y84968D02*
X417262D01*
X459740Y94468D02*
Y100305D01*
X449038D02*
X459740D01*
X488240Y84968D02*
X503074D01*
Y64860D02*
Y84968D01*
X579120Y85090D02*
Y85090D01*
X566974D02*
X579120D01*
Y110490D02*
Y110490D01*
X566974D02*
X579120D01*
X556433Y129792D02*
X567024D01*
X491441Y176113D02*
Y187960D01*
X475485Y179034D02*
Y187960D01*
X424757Y238760D02*
Y250263D01*
X406588Y238760D02*
Y250264D01*
X365760Y249849D02*
X382580D01*
X365760D02*
Y250264D01*
Y231685D02*
X382580D01*
X336305D02*
X336359Y231739D01*
Y241076D02*
X336412Y241130D01*
X336359Y231739D02*
Y241076D01*
X336305Y221589D02*
Y231685D01*
Y221589D02*
X336305D01*
X304800Y162374D02*
X321310D01*
X304800D02*
Y162560D01*
X365305Y160020D02*
X381000D01*
X365305D02*
Y177800D01*
X348339Y160020D02*
X365305D01*
X348339D02*
Y162373D01*
X336305D02*
X348339D01*
X336305D02*
Y162374D01*
X321310D02*
X336305D01*
X232511Y103557D02*
Y137160D01*
X232513D01*
X248920Y92770D02*
Y103556D01*
X248985D01*
X243840Y57280D02*
X252795D01*
Y57280D01*
X261620D01*
X345440Y509510D02*
X368905D01*
Y497589D02*
Y509510D01*
X294640D02*
X309750D01*
X68081Y579120D02*
Y587717D01*
X85410Y579120D02*
Y589940D01*
X76300Y427990D02*
Y443100D01*
X118900Y246098D02*
X130601D01*
X76300Y268100D02*
Y283210D01*
X118898Y214527D02*
Y232252D01*
X130601D01*
X395255Y516406D02*
X414102D01*
X135133Y519430D02*
X243570D01*
X254254Y484118D02*
Y508746D01*
X262362Y476010D02*
X294640D01*
X345440D02*
X363585D01*
X330200D02*
X345440D01*
X322290Y521909D02*
Y521909D01*
Y483920D02*
Y521909D01*
X448717Y336550D02*
Y346201D01*
X421664Y353440D02*
X434340D01*
X448717Y362838D02*
Y380084D01*
X434340Y362838D02*
X448717D01*
Y361441D02*
Y362838D01*
X567024Y149860D02*
X579120D01*
X518550Y149650D02*
Y161690D01*
X479930Y118682D02*
Y143090D01*
X486853Y111760D02*
X521650D01*
X528050Y118160D02*
Y135490D01*
X381000Y101600D02*
Y102845D01*
X236900Y412800D02*
X253900D01*
X254254Y601726D02*
X266700D01*
Y601599D02*
Y601726D01*
X386358Y525804D02*
X414102D01*
X379730Y435610D02*
Y519176D01*
X253900Y425500D02*
X369620D01*
X368905Y481330D02*
Y488191D01*
X101634Y496125D02*
Y520624D01*
X111135Y530125D02*
X312027D01*
X322106Y523062D02*
X322290Y521909D01*
X241400Y443100D02*
X286102D01*
X294640Y451638D02*
Y476010D01*
X78652Y486605D02*
X101700Y463557D01*
Y443100D02*
Y463557D01*
X78652Y486605D02*
Y553944D01*
X59572Y573024D02*
X78652Y553944D01*
X59572Y573024D02*
Y608914D01*
X122600Y472124D02*
X169617D01*
X176633Y479140D02*
Y496124D01*
X127100Y443100D02*
Y459740D01*
X126633D02*
X127000D01*
X127100D01*
X114400Y443100D02*
Y463924D01*
X126633Y496125D02*
Y510930D01*
X101633Y496124D02*
X101634Y496125D01*
X126633Y496125D02*
X126633Y496124D01*
X101700Y268100D02*
Y283210D01*
X109501Y232253D02*
Y246097D01*
X109502Y246098D01*
X109500Y232252D02*
X109501Y232253D01*
X101700Y253901D02*
X108867Y246733D01*
X109248D02*
X109502Y246479D01*
X101700Y253901D02*
Y268100D01*
X108867Y246733D02*
X109248D01*
X109502Y246098D02*
Y246479D01*
D126*
X477306Y430140D02*
G03*
X481615Y425831I4309J0D01*
G01*
X566102Y389890D02*
G03*
X566601Y390389I0J499D01*
G01*
X487814Y431510D02*
Y453710D01*
X481615Y425831D02*
X496060D01*
X477306Y430140D02*
Y453710D01*
X487453Y431510D02*
X487560D01*
D127*
X448603Y550462D02*
D03*
Y555463D02*
D03*
Y560462D02*
D03*
Y565463D02*
D03*
X419601D02*
D03*
Y560462D02*
D03*
Y555463D02*
D03*
Y550462D02*
D03*
D128*
X441603Y572463D02*
D03*
X436601D02*
D03*
X431603D02*
D03*
X426601D02*
D03*
Y543461D02*
D03*
X431603D02*
D03*
X436601D02*
D03*
X441603D02*
D03*
D129*
X434102Y557962D02*
D03*
X660400Y129740D02*
D03*
X659129Y377121D02*
D03*
D130*
X105410Y599440D02*
X137920D01*
X138170D01*
X144980Y606250D02*
Y660400D01*
X138170Y599440D02*
X144980Y606250D01*
D131*
X464561Y19394D02*
D03*
D132*
X489408Y34661D02*
D03*
D133*
X459740Y27161D02*
D03*
D134*
X486440Y147054D02*
D03*
D135*
X423879Y416558D02*
D03*
D136*
X76589Y232434D02*
D03*
D137*
X89435D02*
D03*
D138*
X457538Y525807D02*
D03*
D139*
X428316Y176855D02*
D03*
D140*
X446719Y435229D02*
D03*
D141*
X482560Y449699D02*
D03*
D142*
X569593Y345440D02*
D03*
D143*
X463560Y461210D02*
D03*
Y481210D02*
D03*
Y466210D02*
D03*
X496560Y476210D02*
D03*
D144*
X467560Y490210D02*
D03*
X487560D02*
D03*
D145*
X460060Y473710D02*
D03*
D146*
X486551Y380167D02*
D03*
D147*
X579655Y367235D02*
D03*
D148*
X598705Y391799D02*
D03*
D149*
X608865Y402120D02*
D03*
D150*
X434039Y41721D02*
D03*
D151*
X478611Y36860D02*
D03*
D152*
X474910Y47070D02*
D03*
D153*
X459740Y29955D02*
D03*
D154*
X434021Y61269D02*
D03*
D155*
X439867Y49570D02*
D03*
D156*
X428818Y55920D02*
D03*
D157*
X482226Y52070D02*
D03*
D158*
X459740Y73269D02*
D03*
D159*
X451136Y76441D02*
D03*
D160*
X445639Y85065D02*
D03*
D161*
X543696Y106820D02*
D03*
D162*
X500209Y132305D02*
D03*
D163*
X510600Y167670D02*
D03*
D164*
X538182Y161420D02*
D03*
D165*
X491595Y162295D02*
D03*
D166*
X386101Y275446D02*
D03*
D167*
X312513Y249145D02*
D03*
D168*
X418419Y161812D02*
D03*
D169*
X390031Y216839D02*
D03*
D170*
X329163Y212089D02*
D03*
X329163Y202589D02*
D03*
D171*
X601567Y220620D02*
D03*
D172*
X673295Y191470D02*
D03*
D173*
X216510Y77958D02*
D03*
D174*
X210816Y95323D02*
D03*
D175*
X236065Y39976D02*
D03*
D176*
X280620Y50138D02*
D03*
X271120D02*
D03*
D177*
X147014Y232254D02*
D03*
D178*
X68081Y603459D02*
D03*
D179*
X226632Y496123D02*
D03*
X291900Y660400D02*
D03*
X169980D02*
D03*
D180*
X201634Y496123D02*
D03*
X176632D02*
D03*
X151634D02*
D03*
X101634D02*
D03*
X126633D02*
D03*
X660400Y154740D02*
D03*
X659129Y552119D02*
D03*
Y477121D02*
D03*
Y502119D02*
D03*
Y527120D02*
D03*
Y452119D02*
D03*
Y427121D02*
D03*
Y402119D02*
D03*
X266900Y660400D02*
D03*
X144980D02*
D03*
D181*
X391560D02*
D03*
X416560D02*
D03*
X441560D02*
D03*
D182*
X466560D02*
D03*
D183*
X438385Y553910D02*
D03*
Y562140D02*
D03*
X430155D02*
D03*
Y553910D02*
D03*
X445427Y589890D02*
D03*
X412608Y589887D02*
D03*
X471363Y417684D02*
D03*
X475700Y468437D02*
D03*
Y477937D02*
D03*
X485201D02*
D03*
Y468437D02*
D03*
X433451Y493710D02*
D03*
X433572Y464710D02*
D03*
X444971Y508330D02*
D03*
X467840Y574388D02*
D03*
X499658Y547434D02*
D03*
X520065Y523317D02*
D03*
X541166Y474520D02*
D03*
X555825Y426720D02*
D03*
Y452120D02*
D03*
X421664Y373389D02*
D03*
X684606Y246019D02*
D03*
X675106D02*
D03*
X665606D02*
D03*
X684233Y287381D02*
D03*
X674733D02*
D03*
X665233D02*
D03*
X629920Y341630D02*
D03*
X516162Y321296D02*
D03*
X506662D02*
D03*
X497163D02*
D03*
X515789Y362658D02*
D03*
X506289D02*
D03*
X496789D02*
D03*
X503649Y287381D02*
D03*
X513149D02*
D03*
X522649D02*
D03*
X504022Y246019D02*
D03*
X513522D02*
D03*
X523022D02*
D03*
X547955Y236911D02*
D03*
X417262Y84968D02*
D03*
X579120Y85090D02*
D03*
Y110490D02*
D03*
X567024Y129792D02*
D03*
X491441Y187960D02*
D03*
X475485D02*
D03*
X424757Y238760D02*
D03*
X406588D02*
D03*
X365760Y250264D02*
D03*
Y231685D02*
D03*
X336412Y241130D02*
D03*
X336305Y231685D02*
D03*
X304800Y162560D02*
D03*
X365305Y177800D02*
D03*
X336305Y162373D02*
D03*
X232513Y137160D02*
D03*
X248920Y92770D02*
D03*
X243840Y57280D02*
D03*
X252795D02*
D03*
X395255Y516406D02*
D03*
X361197Y509510D02*
D03*
X309750D02*
D03*
X68081Y579120D02*
D03*
X85410D02*
D03*
X76300Y427990D02*
D03*
X130601Y246097D02*
D03*
X77006Y193284D02*
D03*
Y202784D02*
D03*
X76300Y283210D02*
D03*
X143165Y330933D02*
D03*
X152665D02*
D03*
X162165D02*
D03*
Y340433D02*
D03*
X152665D02*
D03*
Y349933D02*
D03*
X162165D02*
D03*
X143165D02*
D03*
Y340433D02*
D03*
X118898Y214527D02*
D03*
X89706Y202784D02*
D03*
Y193284D02*
D03*
X203200Y96520D02*
D03*
Y104748D02*
D03*
Y112975D02*
D03*
Y121203D02*
D03*
X266700Y584200D02*
D03*
X499658Y535515D02*
D03*
X424757Y274320D02*
D03*
X406400D02*
D03*
X425201Y533400D02*
D03*
X381000Y46289D02*
D03*
Y54516D02*
D03*
Y62744D02*
D03*
Y70971D02*
D03*
X516636Y390144D02*
D03*
X482551Y441689D02*
D03*
X570760Y436009D02*
D03*
X487453Y431510D02*
D03*
X459740Y453710D02*
D03*
X450487Y461195D02*
D03*
X487545Y503283D02*
D03*
X467545D02*
D03*
X515620Y462450D02*
D03*
Y474696D02*
D03*
X448717Y336550D02*
D03*
X540247Y50912D02*
D03*
X547207D02*
D03*
Y60412D02*
D03*
X540247D02*
D03*
Y69912D02*
D03*
X547207D02*
D03*
X451829Y29325D02*
D03*
X467651D02*
D03*
X440740Y70463D02*
D03*
Y62235D02*
D03*
Y54008D02*
D03*
Y45780D02*
D03*
X478740Y29325D02*
D03*
Y36917D02*
D03*
Y44510D02*
D03*
X459740Y84968D02*
D03*
Y94468D02*
D03*
X488240D02*
D03*
X478740D02*
D03*
X469240D02*
D03*
Y84968D02*
D03*
X478740D02*
D03*
X488240D02*
D03*
Y75468D02*
D03*
X478740D02*
D03*
X469240D02*
D03*
X459740D02*
D03*
X579120Y149860D02*
D03*
X518550Y149650D02*
D03*
X490050Y121920D02*
D03*
X499550D02*
D03*
X509050D02*
D03*
X518550D02*
D03*
X254254Y601726D02*
D03*
X236900Y412750D02*
D03*
X570760Y442571D02*
D03*
X401804Y540137D02*
D03*
X395264D02*
D03*
X361696Y566367D02*
D03*
Y559827D02*
D03*
X238455Y248920D02*
D03*
X231915D02*
D03*
X127000Y459740D02*
D03*
X101700Y283210D02*
D03*
M02*
