<svg xmlns="http://www.w3.org/2000/svg" viewBox="0 0 1200 700" role="img" aria-labelledby="t d"><title id="t">GNU Radio SDR transmit and receive flowgraph</title><desc id="d">Signal source and processing blocks connect through UHD to a USRP X310 and a receive analysis path.</desc><defs><style>.b{fill:#fff;stroke:#15231e;stroke-width:3}.c{fill:#eef8d8;stroke:#638c14;stroke-width:3}.w{fill:none;stroke:#188447;stroke-width:5}.h{font:700 27px Arial;fill:#101a17}.s{font:18px Consolas,monospace;fill:#42524c}</style></defs><rect width="1200" height="700" fill="#f8f7f2"/><text x="60" y="65" class="h">GNU RADIO + USRP X310 · FLOWGRAPH SCHEMATIC</text><rect x="55" y="145" width="220" height="105" rx="14" class="b"/><text x="92" y="190" class="h">Signal source</text><text x="95" y="220" class="s">samples / waveform</text><rect x="360" y="145" width="220" height="105" rx="14" class="b"/><text x="399" y="190" class="h">TX chain</text><text x="390" y="220" class="s">filter + resample</text><rect x="665" y="145" width="220" height="105" rx="14" class="c"/><text x="710" y="190" class="h">UHD sink</text><text x="711" y="220" class="s">rate / gain / LO</text><rect x="965" y="275" width="190" height="150" rx="14" class="c"/><text x="1003" y="330" class="h">X310</text><text x="996" y="365" class="s">RF frontend</text><text x="1004" y="395" class="s">10 GbE host</text><rect x="665" y="485" width="220" height="105" rx="14" class="b"/><text x="704" y="530" class="h">UHD source</text><text x="703" y="560" class="s">receive samples</text><rect x="360" y="485" width="220" height="105" rx="14" class="b"/><text x="398" y="530" class="h">RX chain</text><text x="392" y="560" class="s">filter + detect</text><rect x="55" y="485" width="220" height="105" rx="14" class="b"/><text x="95" y="530" class="h">Analysis</text><text x="88" y="560" class="s">FFT / spectrum / log</text><path d="M275 197H360M580 197H665M885 197H925V330H965M965 375H925V537H885M665 537H580M360 537H275" class="w"/></svg>
