<svg xmlns="http://www.w3.org/2000/svg" viewBox="0 0 1200 700" role="img" aria-labelledby="t d"><title id="t">USB-C power delivery board power schematic</title><desc id="d">USB-C input flows through PD negotiation and protection into three regulated load rails.</desc><defs><style>.b{fill:#fff;stroke:#15231e;stroke-width:3}.c{fill:#eef8d8;stroke:#638c14;stroke-width:3}.w{fill:none;stroke:#188447;stroke-width:7}.p{fill:none;stroke:#2166c2;stroke-width:4;stroke-dasharray:10 8}.h{font:700 27px Arial;fill:#101a17}.s{font:18px Consolas,monospace;fill:#42524c}.n{font:16px Consolas,monospace;fill:#2166c2}</style></defs><rect width="1200" height="700" fill="#f8f7f2"/><text x="60" y="65" class="h">USB-C PD CONTROLLER · POWER SCHEMATIC</text>
<rect x="65" y="260" width="210" height="150" rx="14" class="b"/><text x="112" y="325" class="h">USB-C IN</text><text x="112" y="360" class="s">VBUS / CC</text><rect x="350" y="260" width="230" height="150" rx="14" class="c"/><text x="393" y="315" class="h">PD + protection</text><text x="400" y="350" class="s">negotiation</text><text x="404" y="380" class="s">reverse / surge</text><rect x="660" y="260" width="220" height="150" rx="14" class="b"/><text x="704" y="325" class="h">Buck stage</text><text x="699" y="360" class="s">high-current path</text>
<rect x="965" y="110" width="185" height="105" rx="14" class="b"/><text x="1016" y="156" class="h">9 V rail</text><text x="1015" y="187" class="s">main load</text><rect x="965" y="300" width="185" height="105" rx="14" class="b"/><text x="1005" y="346" class="h">5 V rail</text><text x="1008" y="377" class="s">auxiliary</text><rect x="965" y="490" width="185" height="105" rx="14" class="b"/><text x="995" y="536" class="h">3.3 V rail</text><text x="1000" y="567" class="s">logic domain</text>
<path d="M275 335H350M580 335H660M880 335H920V162H965M880 335H965M880 335H920V542H965" class="w"/><path d="M468 260V155H770V260" class="p"/><text x="520" y="138" class="n">control / enable</text><text x="287" y="320" class="n">VBUS</text><text x="596" y="320" class="n">protected bus</text>
</svg>
