<svg xmlns="http://www.w3.org/2000/svg" viewBox="0 0 1200 700" role="img" aria-labelledby="t d"><title id="t">Avionics automated test procedure interface schematic</title><desc id="d">Python test executive controls portable instrumentation and collects LRU measurements, logs and operator results.</desc><defs><style>.b{fill:#fff;stroke:#15231e;stroke-width:3}.c{fill:#eef8d8;stroke:#638c14;stroke-width:3}.w{fill:none;stroke:#188447;stroke-width:5}.p{fill:none;stroke:#2166c2;stroke-width:4}.h{font:700 27px Arial;fill:#101a17}.s{font:18px Consolas,monospace;fill:#42524c}</style></defs><rect width="1200" height="700" fill="#f8f7f2"/><text x="60" y="65" class="h">AVIONICS ATP · TEST INTERFACE SCHEMATIC</text><rect x="55" y="245" width="245" height="180" rx="15" class="b"/><text x="93" y="305" class="h">LRU / unit</text><text x="90" y="340" class="s">stimulus inputs</text><text x="85" y="372" class="s">measured outputs</text><rect x="390" y="220" width="280" height="230" rx="18" class="c"/><text x="440" y="280" class="h">Test interface</text><text x="437" y="320" class="s">portable tester</text><text x="425" y="350" class="s">I/O + instrumentation</text><text x="452" y="380" class="s">signal capture</text><rect x="780" y="130" width="340" height="150" rx="15" class="b"/><text x="836" y="190" class="h">Python ATP</text><text x="825" y="225" class="s">steps / limits / reports</text><rect x="780" y="405" width="340" height="150" rx="15" class="b"/><text x="821" y="465" class="h">Health monitor</text><text x="820" y="500" class="s">CPU / GPS / Ethernet</text><path d="M300 335H390M670 300H725V205H780M670 375H725V480H780" class="w"/><path d="M780 245H725V340H670" class="p"/><text x="310" y="320" class="s">I/O</text></svg>
