<svg xmlns="http://www.w3.org/2000/svg" viewBox="0 0 1200 700" role="img" aria-labelledby="t d"><title id="t">EKKO therapy system schematic</title><desc id="d">Touch controller coordinates two independent therapy applicator channels with power and safety monitoring.</desc><defs><style>.b{fill:#fff;stroke:#15231e;stroke-width:3}.c{fill:#eef8d8;stroke:#638c14;stroke-width:3}.w{fill:none;stroke:#188447;stroke-width:5}.p{fill:none;stroke:#2166c2;stroke-width:4}.h{font:700 27px Arial;fill:#101a17}.s{font:18px Consolas,monospace;fill:#42524c}</style></defs><rect width="1200" height="700" fill="#f8f7f2"/><text x="60" y="65" class="h">EKKO THERAPY SYSTEM · CONTROL SCHEMATIC</text><rect x="70" y="260" width="250" height="150" rx="15" class="b"/><text x="112" y="320" class="h">Touch interface</text><text x="105" y="355" class="s">session setup</text><text x="115" y="385" class="s">status feedback</text><rect x="450" y="220" width="300" height="230" rx="18" class="c"/><text x="508" y="285" class="h">Main controller</text><text x="505" y="325" class="s">timing + supervision</text><text x="515" y="355" class="s">independent channels</text><rect x="890" y="120" width="240" height="135" rx="15" class="b"/><text x="934" y="180" class="h">Applicator A</text><text x="945" y="215" class="s">therapy channel</text><rect x="890" y="420" width="240" height="135" rx="15" class="b"/><text x="934" y="480" class="h">Applicator B</text><text x="945" y="515" class="s">therapy channel</text><rect x="450" y="535" width="300" height="100" rx="15" class="b"/><text x="496" y="578" class="h">Power + safety</text><text x="515" y="609" class="s">rails / monitoring</text><path d="M320 335H450M750 285H820V187H890M750 385H820V487H890M600 535V450" class="w"/><path d="M750 585H820V525H890M750 585H820V225H890" class="p"/></svg>
