<svg xmlns="http://www.w3.org/2000/svg" viewBox="0 0 64 64" role="img" aria-label="MS">
  <rect width="64" height="64" rx="16" fill="#b9f542"/>
  <path d="M15 42V21h6l5.5 10L32 21h6v21h-5V29l-4.5 8h-4L20 29v13h-5Zm26.5-.5v-5.2c2.1 1.1 4.3 1.7 6.5 1.7 2.1 0 3.1-.6 3.1-1.7 0-.8-.8-1.4-3.8-2.3-4-1.2-6-3.1-6-6.4 0-4.1 3.2-6.9 8.4-6.9 2.4 0 4.5.5 6.3 1.3v5.1a13.2 13.2 0 0 0-5.9-1.5c-1.9 0-2.9.6-2.9 1.6 0 .9.9 1.4 3.9 2.3 4.2 1.3 5.9 3.2 5.9 6.5 0 4.4-3.4 7-8.8 7-2.5 0-4.8-.5-6.7-1.5Z" fill="#07110e"/>
</svg>
