<svg xmlns="http://www.w3.org/2000/svg" viewBox="0 0 1200 700" role="img" aria-labelledby="t d"><title id="t">Ergonomic BLE mouse interface schematic</title><desc id="d">Dual joysticks and buttons connected to an ESP32 BLE HID controller and battery power path.</desc><defs><style>.b{fill:#fff;stroke:#15231e;stroke-width:3}.c{fill:#eef8d8;stroke:#638c14;stroke-width:3}.w{fill:none;stroke:#188447;stroke-width:5}.p{fill:none;stroke:#2166c2;stroke-width:4}.h{font:700 27px Arial;fill:#101a17}.s{font:18px Consolas,monospace;fill:#42524c}.n{font:16px Consolas,monospace;fill:#2166c2}</style></defs><rect width="1200" height="700" fill="#f8f7f2"/><text x="60" y="65" class="h">ERGONOMIC BLE MOUSE · CONTROL SCHEMATIC</text>
<rect x="455" y="220" width="290" height="240" rx="18" class="c"/><text x="520" y="285" class="h">ESP32-WROOM</text><text x="525" y="330" class="s">input sampling</text><text x="538" y="360" class="s">BLE HID report</text>
<rect x="70" y="135" width="260" height="105" rx="14" class="b"/><text x="112" y="181" class="h">Joystick A</text><text x="122" y="212" class="s">X / Y / switch</text><rect x="70" y="300" width="260" height="105" rx="14" class="b"/><text x="112" y="346" class="h">Joystick B</text><text x="122" y="377" class="s">X / Y / switch</text><rect x="70" y="465" width="260" height="105" rx="14" class="b"/><text x="132" y="511" class="h">Buttons</text><text x="120" y="542" class="s">digital inputs</text>
<rect x="870" y="150" width="250" height="105" rx="14" class="b"/><text x="930" y="196" class="h">BLE HID</text><text x="922" y="227" class="s">host computer</text><rect x="870" y="340" width="250" height="105" rx="14" class="b"/><text x="936" y="386" class="h">USB-C</text><text x="907" y="417" class="s">charge + debug</text><rect x="870" y="530" width="250" height="105" rx="14" class="b"/><text x="927" y="576" class="h">Battery</text><text x="914" y="607" class="s">3.3 V regulation</text>
<path d="M330 187H395V270H455M330 352H455M330 517H395V410H455" class="w"/><path d="M745 275H810V202H870M745 342H870M745 410H810V582H870" class="p"/><text x="350" y="174" class="n">ADC</text><text x="352" y="339" class="n">ADC</text><text x="348" y="504" class="n">GPIO</text>
</svg>
